<svg width="130" height="24" viewBox="0 0 130 24" fill="none" xmlns="http://www.w3.org/2000/svg">
<path d="M46.25 23.2973C47.3929 21.583 47.3929 20.0282 47.3929 20.0016V3.31037C47.3929 3.28379 47.3929 1.74224 46.25 0.0146484H53.7319C52.589 1.74224 52.589 3.28379 52.589 3.31037V20.0016C52.589 20.0282 52.589 21.583 53.7319 23.2973H46.25Z" fill="white"/>
<path d="M130 6.89648H124.99C125.415 7.58753 125.242 8.69054 124.804 9.80684L121.561 18.4582L118.199 9.80684C117.747 8.69054 117.588 7.58753 118.013 6.89648H111.541C112.431 7.84002 112.99 9.04935 113.308 9.80684L118.877 23.2955H123.209C123.209 23.2955 123.315 22.1925 123.807 20.9566L128.285 9.80684C128.591 9.03606 129.229 7.70713 130 6.89648Z" fill="white"/>
<path d="M112.202 15.5732C112.521 12.1446 111.578 6.17773 104.003 6.17773C97.8232 6.17773 95.5508 10.4834 95.5508 14.6828C95.5508 20.025 98.4611 23.6929 105.425 23.6929C108.255 23.6929 110.541 22.8556 111.896 22.0317L110.501 18.9486C109.185 19.6131 107.577 20.1978 105.783 20.1978C102.674 20.1978 100.76 19.1081 100.348 16.025H107.072C109.544 16.0383 111.551 15.8921 112.202 15.5732ZM100.361 13.2077C100.667 10.5632 101.85 9.22095 104.003 9.22095C106.235 9.22095 107.338 10.9485 107.431 13.1811C107.431 13.1811 106.448 13.2077 105.172 13.2077H100.361Z" fill="white"/>
<path d="M66.5291 23.2956H73.1605C72.1505 21.7806 72.1505 20.3985 72.1505 20.3852V11.6276C72.1505 8.49139 70.4628 6.56445 66.9012 6.56445C64.6288 6.56445 62.755 7.58772 61.3729 8.83691V6.89668H55.7383C56.7483 8.42494 56.7483 9.79373 56.7483 9.80702V20.3719C56.7483 20.3985 56.7483 21.7673 55.7383 23.2823H62.3829C61.3729 21.7673 61.3729 20.3852 61.3729 20.3719V11.6276C62.2234 10.7506 63.4328 10.1127 64.7617 10.1127C66.7949 10.1127 67.5391 11.2423 67.5391 12.9964V20.3719C67.5391 20.3985 67.5391 21.7673 66.5291 23.2956Z" fill="white"/>
<path d="M83.7121 12.3071C86.9812 12.3071 88.7752 13.9018 88.7752 16.4799C88.7752 18.7923 87.3932 20.48 83.6324 20.48H81.3865V12.3071H83.7121ZM83.2204 2.83196C86.0775 2.83196 87.4064 3.94825 87.4064 6.04794C87.4064 8.13434 86.2104 9.38352 83.4596 9.38352C82.928 9.38352 81.9579 9.39681 81.3865 9.38352V2.83196H83.2204ZM83.8184 23.2973C85.2669 23.2973 86.6091 23.2176 87.5792 23.0448C91.3134 22.3936 94.0775 20.48 94.0775 16.3603C94.0775 13.0513 91.9646 11.337 88.6423 10.3802C91.6191 9.25063 92.6157 7.62935 92.6157 5.51637C92.6157 1.87513 89.6523 0.0146484 84.3101 0.0146484H75.3799C76.0045 0.95818 76.2171 2.32697 76.2171 3.31037V20.0016C76.2171 21.0913 76.0178 22.2342 75.3799 23.2973H83.8184Z" fill="white"/>
<path d="M38.2328 10.2858C41.3159 9.03666 42.4587 7.34893 42.4587 5.26253C42.4587 1.62128 39.2826 0 34.0733 0H24.7576C25.3424 0.890377 25.9005 1.8472 25.9005 3.28244V10.5118C23.1629 11.0566 20.7045 11.5217 18.3921 12.0799C16.319 6.36553 14.0067 0 14.0067 0H8.21268C8.3057 0.797353 8.22597 1.64786 7.80071 2.80402L1.31562 20.8773C1.31562 20.8773 0.890371 22.1531 0 23.296H4.74422C4.65119 22.6714 4.77079 21.8475 4.93026 21.3425C5.40867 19.9205 6.69772 18.977 8.0665 18.3657C9.84724 17.555 12.9436 16.5849 14.4054 16.1464L15.9469 20.5584C15.9469 20.5584 16.5715 22.2196 16.2393 23.296H22.937C21.9271 21.9272 21.5815 20.9039 21.5815 20.8773C21.4221 20.4521 20.545 18.0069 19.4154 14.9238C21.4619 14.4321 23.6015 14.0201 25.9005 13.5683V19.987C25.9005 21.2229 25.3955 22.3126 24.7576 23.2827H33.6082C35.0567 23.2827 36.3458 23.203 37.3159 23.0302C41.1165 22.3657 43.8408 20.4255 43.8408 16.2926C43.8541 13.1297 41.7278 11.2427 38.2328 10.2858ZM8.3057 15.0965C7.74756 15.3623 7.02994 15.8009 6.61798 16.2128C7.89374 12.4919 9.6479 7.37551 10.4984 4.95688L13.422 13.3025C11.9469 13.7278 9.67448 14.4454 8.3057 15.0965ZM31.07 2.91034C31.9869 2.85718 32.3191 2.85718 32.9172 2.85718C35.7743 2.85718 37.1032 4.05321 37.1032 5.74094C37.1032 7.34893 36.0401 8.34562 34.2726 8.87719C33.5285 9.10311 32.2926 9.35561 31.07 9.56823V2.91034ZM33.2228 20.3989H31.0833V12.638C31.8806 12.452 33.1564 12.2261 33.9936 12.1331C36.5717 12.7311 38.472 13.7942 38.472 16.4255C38.4587 19.4953 36.2129 20.3989 33.2228 20.3989Z" fill="white"/>
</svg>
