<svg width="150" height="40" viewBox="0 0 150 40" fill="none" xmlns="http://www.w3.org/2000/svg">
<g clip-path="url(#clip0_467_7907)">
<path d="M87.1016 11.1628L95.711 7.90698L87.1016 4.55814V0L101.847 6.04651V9.76744L87.1016 15.814V11.1628Z" fill="white"/>
<path d="M5.67853 39.9997C2.5645 39.9997 0 38.4183 0 34.8834V34.6974C0 30.4183 3.66357 28.9299 8.15144 28.9299H10.258V28.0927C10.258 26.3253 9.52528 25.302 7.6935 25.302C6.04489 25.302 5.22059 26.2323 5.129 27.5346H0.549536C0.915893 23.6276 3.93834 21.7671 7.96827 21.7671C12.0898 21.7671 15.1122 23.5346 15.1122 27.9067V39.6276H10.4412V37.5811C9.52528 38.8834 7.96827 39.9997 5.67853 39.9997ZM10.258 33.8602V32.1858H8.33462C5.9533 32.1858 4.76264 32.8369 4.76264 34.4183V34.6044C4.76264 35.8137 5.49536 36.6509 7.14396 36.6509C8.79257 36.5578 10.258 35.6276 10.258 33.8602ZM26.0114 39.9997C21.2487 39.9997 17.7683 37.023 17.7683 31.0695V30.7904C17.7683 24.8369 21.4319 21.6741 26.0114 21.6741C29.9497 21.6741 33.1553 23.7206 33.5217 28.2788H28.9422C28.6674 26.6044 27.7515 25.4881 26.1029 25.4881C24.088 25.4881 22.6226 27.1625 22.6226 30.6044V31.1625C22.6226 34.6974 23.9048 36.2788 26.1029 36.2788C27.7515 36.2788 28.9422 35.0695 29.217 33.116H33.6133C33.3385 37.209 30.6824 39.9997 26.0114 39.9997ZM43.9629 39.9997C39.2002 39.9997 35.7198 37.023 35.7198 31.0695V30.7904C35.7198 24.8369 39.3834 21.6741 43.9629 21.6741C47.9012 21.6741 51.1068 23.7206 51.4732 28.2788H46.8937C46.6189 26.6044 45.703 25.4881 44.0544 25.4881C42.0395 25.4881 40.574 27.1625 40.574 30.6044V31.1625C40.574 34.6974 41.8563 36.2788 44.0544 36.2788C45.703 36.2788 46.8937 35.0695 47.1685 33.116H51.5648C51.29 37.209 48.6339 39.9997 43.9629 39.9997ZM62.0059 39.9997C57.0601 39.9997 53.6713 37.023 53.6713 31.1625V30.7904C53.6713 24.9299 57.2433 21.6741 61.9143 21.6741C66.219 21.6741 69.791 24.0927 69.791 29.9532V32.0927H58.5255C58.7087 35.2555 60.0826 36.4648 62.0975 36.4648C63.9293 36.4648 64.9368 35.4416 65.3032 34.2323H69.791C69.2415 37.4881 66.4938 39.9997 62.0059 39.9997ZM58.6171 28.8369H65.0284C64.9368 26.2323 63.7461 25.116 61.8228 25.116C60.3573 25.209 58.9835 26.0462 58.6171 28.8369ZM72.7219 22.1392H77.5761V24.7439C78.4004 23.0695 80.1406 21.7671 82.7967 21.7671C85.9107 21.7671 88.0173 23.7206 88.0173 27.9067V39.6276H83.1631V28.6509C83.1631 26.6044 82.3388 25.6741 80.5986 25.6741C78.95 25.6741 77.5761 26.6974 77.5761 28.9299V39.6276H72.7219V22.1392ZM96.9015 16.8369V22.1392H100.199V25.7671H96.9015V34.0462C96.9015 35.3485 97.451 35.9997 98.6416 35.9997C99.3744 35.9997 99.8323 35.9067 100.29 35.7206V39.5346C99.7407 39.7206 98.7332 39.9067 97.5426 39.9067C93.7874 39.9067 92.0472 38.1392 92.0472 34.6044V25.7671H90.0323V22.1392H92.0472V18.8834L96.9015 16.8369ZM118.333 39.6276H113.571V37.023C112.746 38.6974 111.098 39.9997 108.533 39.9997C105.419 39.9997 103.13 38.0462 103.13 33.9532V22.1392H107.984V33.302C107.984 35.3485 108.808 36.2788 110.457 36.2788C112.105 36.2788 113.479 35.1625 113.479 33.023V22.1392H118.333V39.6276ZM121.905 22.1392H126.76V25.3951C127.767 23.0695 129.416 21.9532 131.98 21.9532V26.7904C128.683 26.7904 126.76 27.8137 126.76 30.6974V39.7206H121.905V22.1392ZM141.78 39.9997C136.834 39.9997 133.446 37.023 133.446 31.1625V30.7904C133.446 24.9299 137.018 21.6741 141.689 21.6741C145.993 21.6741 149.565 24.0927 149.565 29.9532V32.0927H138.391C138.575 35.2555 139.948 36.4648 141.963 36.4648C143.795 36.4648 144.803 35.4416 145.169 34.2323H149.657C148.924 37.4881 146.268 39.9997 141.78 39.9997ZM138.3 28.8369H144.803C144.711 26.2323 143.52 25.116 141.597 25.116C140.132 25.209 138.758 26.0462 138.3 28.8369Z" fill="white"/>
</g>
<defs>
<clipPath id="clip0_467_7907">
<rect width="149.474" height="40" fill="white"/>
</clipPath>
</defs>
</svg>
