<svg width="92" height="34" viewBox="0 0 92 34" fill="none" xmlns="http://www.w3.org/2000/svg">
<path d="M2.22461 8.62829C2.99438 15.2281 7.09984 19.4279 11.5759 21.7136C10.7206 20.3136 10.2645 18.7137 10.2645 16.9137C10.2645 12.3139 13.3721 8.37115 17.9907 8.37115C20.2715 8.37115 22.7519 9.34255 24.1204 11.1425L29.8794 4.457C27.1995 1.77137 22.4383 0 17.9052 0C11.1483 0 5.21817 3.37132 2.22461 8.62829Z" fill="white"/>
<path d="M18.1039 26.2253C10.1211 26.2253 2.67995 20.1969 0.541692 12.54C0.228081 13.8829 0 15.5685 0 17.0542C0 27.6253 7.78326 33.9965 17.7618 33.9965C22.466 33.9965 26.4859 32.8822 29.9071 30.8537L25.5166 24.9682C23.4638 25.7967 20.8979 26.2253 18.1039 26.2253Z" fill="white"/>
<path d="M46.8724 0.0273438C37.1504 0.0273438 29.2246 6.59856 29.2246 16.9411C29.2246 18.2267 29.3387 19.4553 29.5667 20.6267C33.4441 19.141 36.9223 16.8268 39.7734 13.884C40.7427 10.7127 43.6507 8.42707 47.129 8.42707C48.8966 8.42707 50.3221 8.91277 51.5766 9.85559C55.1973 6.96997 59.5594 4.99861 59.5594 4.99861C58.9892 4.39863 54.6842 0.0273438 46.8724 0.0273438Z" fill="white"/>
<path d="M46.9886 25.4583C42.5695 25.4583 39.7185 22.2584 39.2623 18.1729C36.6109 20.4013 33.5603 22.2013 30.2246 23.4298C32.6765 30.1439 39.0628 34.0009 46.846 34.0009C51.5787 34.0009 56.0263 32.5438 58.8203 29.801L53.2608 22.8584C51.7783 24.7441 49.2694 25.4583 46.9886 25.4583Z" fill="white"/>
<path d="M61.8105 20.5697V3.88455C66.7713 1.94175 71.4185 1.45605 71.4185 1.45605V19.9412C71.4185 23.3696 73.2716 25.6267 76.5503 25.6267C79.886 25.6267 81.7676 23.3982 81.7676 19.9412V1.45605C81.7676 1.45605 87.0705 2.08461 91.3756 3.82741C91.3756 5.25593 91.3756 20.5697 91.3756 20.5697C91.3756 28.6552 85.7591 33.9693 76.4648 33.9693C67.3415 33.9978 61.8105 28.6552 61.8105 20.5697Z" fill="white"/>
</svg>
