<svg width="145" height="35" viewBox="0 0 145 35" fill="none" xmlns="http://www.w3.org/2000/svg">
<g clip-path="url(#clip0_2122_14472)">
<path d="M0.0410156 32.4735H43.0734V33.2931H0.0410156V32.4735Z" fill="white"/>
<path fill-rule="evenodd" clip-rule="evenodd" d="M48.1696 33.6025C47.9657 33.6887 47.6369 33.7475 47.3279 33.7475C46.4401 33.7475 45.9137 33.1875 45.9137 32.3007C45.9137 31.314 46.5315 30.8338 47.3206 30.8338C47.6831 30.8338 47.9657 30.9127 48.1633 30.9978L48.3734 30.2087C48.1958 30.1099 47.8008 30.0122 47.2817 30.0122C45.9399 30.0122 44.8608 30.8465 44.8608 32.3595C44.8608 33.6225 45.651 34.5828 47.1829 34.5828C47.7157 34.5828 48.137 34.4778 48.3146 34.3916L48.1696 33.6025ZM51.5571 32.6096C51.5571 31.8467 51.2209 31.2153 50.1491 31.2153C49.5639 31.2153 49.1236 31.3792 48.8998 31.5042L49.0837 32.1494C49.2938 32.017 49.6427 31.9056 49.9716 31.9056C50.4654 31.9056 50.5568 32.1494 50.5568 32.3269V32.3658C49.4189 32.3658 48.6697 32.7609 48.6697 33.5962C48.6697 34.109 49.0574 34.5828 49.7089 34.5828C50.0903 34.5828 50.4192 34.4441 50.6293 34.1878H50.6482L50.7081 34.5103H51.6096C51.5697 34.3328 51.5571 34.0365 51.5571 33.7338V32.6096ZM50.5894 33.3398C50.5894 33.3987 50.5831 33.4575 50.5705 33.5111C50.5043 33.7139 50.2931 33.8788 50.0504 33.8788C49.8266 33.8788 49.6563 33.7538 49.6563 33.4974C49.6563 33.116 50.064 32.991 50.5894 32.991V33.3398ZM52.3515 34.5103H53.3517V29.8336H52.3515V34.5103ZM54.1608 34.5103H55.1611V31.2941H54.1608V34.5103ZM54.6673 29.8998C54.3447 29.8998 54.1345 30.1173 54.1345 30.3999C54.1345 30.6762 54.3384 30.9 54.6536 30.9C54.9898 30.9 55.1937 30.6762 55.1937 30.3999C55.1874 30.1173 54.9898 29.8998 54.6673 29.8998ZM58.0811 29.8336V31.5767H58.0674C57.9234 31.3603 57.6208 31.2153 57.2195 31.2153C56.4493 31.2153 55.7726 31.8467 55.7789 32.9311C55.7789 33.9314 56.3904 34.5828 57.1533 34.5828C57.5683 34.5828 57.9623 34.399 58.1599 34.0438H58.1798L58.2187 34.5103H59.1066C59.0929 34.2928 59.0803 33.9114 59.0803 33.55V29.8336H58.0811ZM58.0811 33.0771C58.0811 33.1549 58.0748 33.2337 58.0611 33.3062C58.0023 33.5888 57.7648 33.7864 57.4758 33.7864C57.0608 33.7864 56.7918 33.4449 56.7918 32.8996C56.7918 32.3921 57.0219 31.9844 57.4821 31.9844C57.7911 31.9844 58.0086 32.2082 58.0674 32.4719C58.0811 32.5308 58.0811 32.6033 58.0811 32.6558V33.0771ZM62.5603 32.6096C62.5603 31.8467 62.2241 31.2153 61.1523 31.2153C60.5671 31.2153 60.1268 31.3792 59.903 31.5042L60.0869 32.1494C60.297 32.017 60.6469 31.9056 60.9748 31.9056C61.4675 31.9056 61.56 32.1494 61.56 32.3269V32.3658C60.4221 32.3658 59.6729 32.7609 59.6729 33.5962C59.6729 34.109 60.0606 34.5828 60.7121 34.5828C61.0935 34.5828 61.4224 34.4441 61.6325 34.1878H61.6525L61.7113 34.5103H62.6128C62.5729 34.3328 62.5603 34.0365 62.5603 33.7338V32.6096ZM61.5926 33.3398C61.5926 33.3987 61.5863 33.4575 61.5737 33.5111C61.5075 33.7139 61.2973 33.8788 61.0536 33.8788C60.8298 33.8788 60.6585 33.7538 60.6585 33.4974C60.6585 33.116 61.0662 32.991 61.5926 32.991V33.3398ZM65.4729 29.8336V31.5767H65.4603C65.3153 31.3603 65.0127 31.2153 64.6113 31.2153C63.8422 31.2153 63.1645 31.8467 63.1718 32.9311C63.1718 33.9314 63.7833 34.5828 64.5462 34.5828C64.9601 34.5828 65.3542 34.399 65.5517 34.0438H65.5717L65.6116 34.5103H66.4995C66.4858 34.2928 66.4732 33.9114 66.4732 33.55V29.8336H65.4729ZM65.4729 33.0771C65.4729 33.1549 65.4666 33.2337 65.454 33.3062C65.3941 33.5888 65.1577 33.7864 64.8687 33.7864C64.4537 33.7864 64.1837 33.4449 64.1837 32.8996C64.1837 32.3921 64.4138 31.9844 64.875 31.9844C65.184 31.9844 65.4004 32.2082 65.4603 32.4719C65.4729 32.5308 65.4729 32.6033 65.4729 32.6558V33.0771ZM71.4452 33.2211C71.4589 33.1486 71.4788 32.9973 71.4788 32.8271C71.4788 32.0306 71.0838 31.2216 70.0446 31.2216C68.9266 31.2216 68.4191 32.1231 68.4191 32.9384C68.4191 33.944 69.0443 34.5765 70.136 34.5765C70.57 34.5765 70.9713 34.5103 71.3002 34.3716L71.1689 33.6939C70.8999 33.7864 70.6236 33.8326 70.281 33.8326C69.8145 33.8326 69.4005 33.6351 69.3732 33.2211H71.4452ZM69.3669 32.5371C69.3932 32.2744 69.5644 31.8856 69.9847 31.8856C70.4449 31.8856 70.5511 32.2933 70.5511 32.5371H69.3669ZM72.0767 34.5103H73.077V32.6558C73.077 32.5633 73.0823 32.4719 73.1096 32.4057C73.181 32.2219 73.346 32.0306 73.6223 32.0306C73.9848 32.0306 74.1288 32.3133 74.1288 32.7273V34.5103H75.1291V32.6096C75.1291 31.6618 74.6352 31.2216 73.9775 31.2216C73.4374 31.2216 73.1159 31.5305 72.9845 31.7417H72.9646L72.9183 31.2941H72.0504C72.063 31.5841 72.0767 31.9192 72.0767 32.3206V34.5103ZM77.1212 34.3002C77.3713 34.4378 77.8704 34.5765 78.3779 34.5765C79.5946 34.5765 80.1599 33.944 80.1599 33.2011C80.1599 32.5759 79.7974 32.1693 79.0157 31.8793C78.4367 31.6618 78.194 31.5378 78.194 31.2541C78.194 31.0314 78.4042 30.8265 78.8381 30.8265C79.2647 30.8265 79.5873 30.9526 79.7586 31.0377L79.9824 30.2349C79.7186 30.1099 79.3572 30.0122 78.8507 30.0122C77.8116 30.0122 77.1738 30.5838 77.1738 31.3403C77.1738 31.9844 77.6603 32.3921 78.3968 32.6558C78.9306 32.8397 79.1397 32.9973 79.1397 33.2736C79.1397 33.5626 78.897 33.7538 78.4367 33.7538C78.0091 33.7538 77.5888 33.6162 77.3251 33.4775L77.1212 34.3002ZM83.6977 33.2211C83.7114 33.1486 83.7313 32.9973 83.7313 32.8271C83.7313 32.0306 83.3363 31.2216 82.2971 31.2216C81.1802 31.2216 80.6727 32.1231 80.6727 32.9384C80.6727 33.944 81.2979 34.5765 82.3896 34.5765C82.8235 34.5765 83.2249 34.5103 83.5527 34.3716L83.4214 33.6939C83.1524 33.7864 82.8761 33.8326 82.5346 33.8326C82.067 33.8326 81.653 33.6351 81.6257 33.2211H83.6977ZM81.6194 32.5371C81.6467 32.2744 81.8169 31.8856 82.2372 31.8856C82.6985 31.8856 82.8036 32.2933 82.8036 32.5371H81.6194ZM84.3303 34.5103H85.3295V32.8796C85.3295 32.7998 85.3369 32.722 85.3484 32.6558C85.4146 32.3469 85.6647 32.1494 86.0335 32.1494C86.1449 32.1494 86.2237 32.162 86.3025 32.1756V31.2352C86.23 31.2216 86.1848 31.2153 86.0923 31.2153C85.7771 31.2153 85.3883 31.4128 85.2234 31.8856H85.1982L85.1582 31.2941H84.3029C84.3229 31.5704 84.3303 31.8793 84.3303 32.3532V34.5103ZM86.6061 31.2941L87.7756 34.5103H88.7759L89.9726 31.2941H88.9209L88.5058 32.7871C88.4333 33.0624 88.3808 33.3062 88.3283 33.5699H88.3093C88.2558 33.3136 88.2032 33.0624 88.1244 32.7871L87.6905 31.2941H86.6061ZM90.4329 34.5103H91.4321V31.2941H90.4329V34.5103ZM90.9393 29.8998C90.6167 29.8998 90.4066 30.1173 90.4066 30.3999C90.4066 30.6762 90.6104 30.9 90.9267 30.9C91.2608 30.9 91.4657 30.6762 91.4657 30.3999C91.4594 30.1173 91.2608 29.8998 90.9393 29.8998ZM94.5307 33.6887C94.3794 33.7538 94.1945 33.7937 93.958 33.7937C93.4716 33.7937 93.0775 33.4775 93.0775 32.8922C93.0702 32.3658 93.4127 31.9917 93.9381 31.9917C94.2018 31.9917 94.3794 32.0369 94.4971 32.0905L94.6557 31.3466C94.4456 31.2678 94.1556 31.2216 93.8918 31.2216C92.694 31.2216 92.051 31.9917 92.051 32.9311C92.051 33.9377 92.715 34.5765 93.7542 34.5765C94.1367 34.5765 94.4719 34.5103 94.6484 34.4242L94.5307 33.6887ZM95.2011 34.5103H96.2003V31.2941H95.2011V34.5103ZM95.7085 29.8998C95.3849 29.8998 95.1748 30.1173 95.1748 30.3999C95.1748 30.6762 95.3786 30.9 95.6949 30.9C96.0301 30.9 96.2339 30.6762 96.2339 30.3999C96.2276 30.1173 96.0301 29.8998 95.7085 29.8998ZM98.5424 31.2153C97.5032 31.2153 96.8192 31.8793 96.8192 32.9248C96.8192 33.964 97.5431 34.5828 98.4835 34.5828C99.3451 34.5828 100.18 34.0438 100.18 32.8659C100.18 31.893 99.5227 31.2153 98.5424 31.2153ZM98.5098 31.9319C98.9626 31.9319 99.1476 32.4194 99.1476 32.8922C99.1476 33.4775 98.9049 33.8652 98.5098 33.8652C98.0811 33.8652 97.852 33.4512 97.852 32.8996C97.852 32.4246 98.0359 31.9319 98.5098 31.9319Z" fill="white"/>
<path d="M144.953 32.688H101.92V33.5076H144.953V32.688Z" fill="white"/>
<path fill-rule="evenodd" clip-rule="evenodd" d="M130.946 4.85382V22.5428H144.903V17.3228H137.738V4.85382H130.946Z" fill="white"/>
<path fill-rule="evenodd" clip-rule="evenodd" d="M76.288 -0.000610352L89.3065 24.0305C89.9905 25.3534 89.5208 26.7677 87.514 26.7918H74.0909V20.8563H75.6429L72.4518 14.6833L69.2555 20.8563H70.8137V26.7918H57.3897C55.3817 26.7677 54.9121 25.3534 55.5961 24.0305L68.6146 -0.000610352L72.4518 6.76185L76.288 -0.000610352ZM72.4514 6.76249L65.3107 19.9312C65.1426 20.3294 65.4368 20.8454 65.9443 20.8559H67.285L72.4514 11.2144L77.6126 20.8559H78.9543C79.4618 20.8454 79.756 20.3294 79.5869 19.9312L72.4514 6.76249Z" fill="white"/>
<path fill-rule="evenodd" clip-rule="evenodd" d="M98.9938 12.5834H97.3883V8.80707H99.0862C100.325 8.80707 101.494 9.03508 101.494 10.6322C101.494 12.431 100.256 12.5834 98.9938 12.5834ZM106.519 16.2073C105.945 15.269 105.143 14.5598 103.811 14.3066V14.2561C106.106 13.6478 107.642 12.2787 107.642 9.56675C107.642 6.17081 105.279 4.85425 101.449 4.85425H90.6353V22.5432H97.6625V16.5362H99.04C99.7976 16.5362 100.416 16.6381 100.783 17.4482C101.289 18.5137 101.357 21.275 101.633 22.5432H108.033C107.39 20.819 107.459 18.0818 106.519 16.2073Z" fill="white"/>
<path fill-rule="evenodd" clip-rule="evenodd" d="M117.566 14.4585L119.398 8.65534H119.446L121.254 14.4585H117.566ZM123.918 4.85382H115.139L109.309 22.5428H115.663L116.686 18.716H122.062L123.156 22.5428H129.842L123.918 4.85382Z" fill="white"/>
<path fill-rule="evenodd" clip-rule="evenodd" d="M41.897 22.5426H48.6889V16.233H56.066V11.9745H48.6889V9.11124H57.0526V4.8537H41.897V22.5426Z" fill="white"/>
<path fill-rule="evenodd" clip-rule="evenodd" d="M28.6733 18.2853C26.0581 18.2853 25.7586 15.295 25.7586 13.3942C25.7586 11.7467 25.9772 8.50203 28.6733 8.50203C31.4525 8.50203 31.6427 11.7467 31.6711 13.3942C31.6427 15.295 31.5618 18.2853 28.6733 18.2853ZM28.6733 4.24554C22.0265 4.24554 18.1304 7.46391 18.1304 13.3942C18.1304 19.4254 22.0265 22.5471 28.6733 22.5471C35.3213 22.5471 39.2983 19.4254 39.2983 13.3942C39.2983 7.46391 35.3213 4.24554 28.6733 4.24554Z" fill="white"/>
<path fill-rule="evenodd" clip-rule="evenodd" d="M16.4239 17.1449C15.1052 17.5757 13.8391 17.8289 12.5204 17.8289C9.53112 17.8289 7.37714 16.2833 7.37714 13.2425C7.37714 10.353 9.69294 8.80631 12.7621 8.80631C13.9736 8.80631 15.1851 9.11102 16.3703 9.46512V4.80305C14.4317 4.47312 13.2465 4.24512 11.2543 4.24512C5.22315 4.24512 0 7.21026 0 13.1406C0 19.4502 5.00775 22.5477 11.2543 22.5477C13.0847 22.5477 15.0779 22.1873 16.4239 21.8332V17.1449Z" fill="white"/>
</g>
<defs>
<clipPath id="clip0_2122_14472">
<rect width="145" height="34.6739" fill="white"/>
</clipPath>
</defs>
</svg>
