<svg width="60" height="46" viewBox="0 0 60 46" fill="none" xmlns="http://www.w3.org/2000/svg">
<path d="M25.9477 0.122463C23.0319 0.42223 19.1092 1.34761 16.4941 2.37725C8.07351 5.64864 2.25493 11.5398 0.528963 18.5127C-1.28853 25.7983 1.64038 33.3056 8.3481 38.6363L8.84496 39.0273L8.06044 42.0902C7.62895 43.7584 7.28898 45.153 7.30206 45.166C7.31513 45.1921 9.28953 44.7229 11.6823 44.1364L16.0365 43.0807L17.8932 43.6802C21.8289 44.9705 24.6794 45.4528 28.9812 45.5571C32.3024 45.6353 34.3291 45.4919 36.9965 45.0096C48.4506 42.8982 57.2111 35.9514 59.434 27.2451C61.7614 18.0825 56.7927 8.93307 46.7115 3.81093C42.802 1.82984 38.3955 0.565598 33.8714 0.122463C32.2239 -0.0469742 27.5821 -0.0339394 25.9477 0.122463ZM23.9864 13.0386C24.5878 13.3384 25.2024 14.1855 24.9801 14.4071C24.9278 14.4593 24.3394 14.5505 23.6856 14.5896C23.0188 14.6287 21.7766 14.7981 20.9136 14.9545C19.4099 15.2413 19.3184 15.2673 19.0961 15.6583C18.0763 17.3787 16.2588 20.5719 16.1934 20.7414C16.128 20.9238 16.2588 20.9369 17.2786 20.8717C18.6516 20.7805 19.2661 20.976 19.6715 21.6407C20.116 22.3575 20.0114 22.4488 18.7169 22.553C18.0893 22.5921 16.9648 22.7616 16.2195 22.918L14.8728 23.2047L13.4475 26.0851C12.663 27.6621 11.97 28.9655 11.8916 28.9655C11.8262 28.9785 11.63 28.77 11.4601 28.5223C11.1986 28.1313 11.1593 27.9619 11.2116 27.3493C11.3162 26.2806 11.63 25.4464 12.9507 22.7876C14.219 20.22 15.0035 18.7603 16.3764 16.4925C17.2133 15.0849 17.2133 15.0718 16.9387 14.8894C16.6118 14.6548 16.2718 14.0422 16.2718 13.6642C16.2718 13.4296 16.3503 13.4035 17.2263 13.3905C17.7363 13.3905 19.0569 13.2471 20.1291 13.0907C22.705 12.6867 23.2672 12.6737 23.9864 13.0386ZM44.9202 14.0813C45.1425 14.4853 45.1033 15.6974 44.8679 16.3621L44.6587 16.9095L45.1294 17.0399C46.1101 17.3136 46.6985 18.4214 45.757 18.2259C45.6917 18.2129 45.234 18.239 44.7502 18.2911L43.8742 18.3823L43.0243 19.8421C41.6644 22.2011 40.5007 24.482 40.213 25.3552C39.7685 26.6846 39.8731 27.6491 40.5268 28.0792C41.0106 28.392 41.7036 28.1574 42.4751 27.3884C43.4034 26.4891 43.5342 26.2285 43.5473 25.3291C43.5603 24.508 43.7042 24.104 44.1618 23.5957C44.5279 23.2047 44.7371 23.2308 44.8417 23.7C44.894 23.9215 44.9725 24.0649 45.0379 24.0258C45.1033 23.9867 45.7178 23.1135 46.4108 22.0838C47.2999 20.7544 47.7445 19.9594 47.9276 19.3598C48.2283 18.3432 49.0782 17.4439 49.732 17.4439C50.3465 17.4439 50.4642 17.8088 50.085 18.5127C49.6274 19.3729 49.5881 19.8681 49.7974 22.5921C49.9935 25.3291 49.9281 26.3458 49.4966 27.1929L49.209 27.7534L49.6012 27.5579C50.2288 27.219 51.2226 26.1372 51.7717 25.1467C52.3601 24.104 52.6609 23.9867 52.7263 24.7948C52.8178 25.9287 51.4449 27.7143 49.9281 28.4181C47.8883 29.3695 45.7047 29.1088 44.4887 27.7664L44.018 27.2451L43.4427 27.7664C42.3182 28.8221 40.6968 29.2522 39.7162 28.7439C39.1931 28.4702 38.6309 27.8055 38.5394 27.3363C38.5001 27.1278 38.4348 26.9583 38.4086 26.9583C38.3694 26.9583 38.0163 27.219 37.611 27.5318C35.2182 29.4086 32.1978 29.4477 30.9817 27.61L30.6026 27.0235L29.9619 27.7012C28.772 28.9655 27.4383 29.3434 26.2484 28.77C25.6862 28.4963 25.1632 27.7794 25.1632 27.2711C25.1632 27.1147 24.9409 27.2581 24.444 27.7273C23.581 28.5484 22.8226 28.9003 21.9858 28.9133C20.8483 28.9133 20.1945 28.3529 19.9199 27.1408C19.593 25.681 20.2337 23.7782 21.7505 21.784C23.6333 19.2947 25.9085 17.9522 27.3075 18.4866C27.7129 18.63 28.1705 19.3338 28.1705 19.7899C28.1705 20.0506 28.2882 19.9333 28.7066 19.2295C29.3212 18.1999 29.648 18.0956 29.9488 18.8124C30.3933 19.8812 30.1188 20.7544 28.4713 23.6087C27.1506 25.8765 26.8237 26.6716 26.8891 27.4927C26.9676 28.5093 27.6083 28.5093 28.7328 27.4797C29.6219 26.6716 30.3933 25.5377 30.3933 25.0424C30.3933 23.9215 31.3217 21.8753 32.407 20.5459C33.5707 19.1383 35.2051 18.239 36.2381 18.4345C36.8396 18.5518 38.0686 19.6726 38.2256 20.2461C38.3825 20.8196 38.2256 21.4973 37.6241 22.8267C36.9834 24.2604 36.9049 24.3516 36.4473 24.0128C35.6497 23.4263 35.5843 22.6834 36.2119 21.2236C36.6565 20.1809 36.7742 19.5293 36.5257 19.5293C36.0812 19.5423 35.2705 20.207 34.4206 21.2497C32.407 23.713 31.7401 26.815 33.0084 27.9358C33.2307 28.1313 33.453 28.1965 34.0022 28.1704C35.8458 28.1053 37.951 26.3458 38.7878 24.1561C39.0101 23.6087 39.7031 22.136 40.3307 20.8847L41.4813 18.63L41.076 18.5518C40.383 18.3954 39.7815 17.9783 39.8338 17.6524C39.8731 17.4048 39.9646 17.3787 41.076 17.3396L42.2659 17.3005L43.0504 15.9711C43.848 14.6026 44.4495 13.7945 44.6587 13.7945C44.711 13.7945 44.8417 13.9249 44.9202 14.0813ZM13.0291 16.4143C13.4606 16.6358 13.5783 16.6489 13.6698 16.5055C13.7352 16.4143 13.7875 16.297 13.7875 16.2318C13.7875 16.1797 13.8529 16.1406 13.9182 16.1406C13.9967 16.1406 13.9706 16.31 13.8529 16.5316C13.7352 16.7401 13.6175 16.9226 13.5783 16.9226C13.4606 16.9226 12.2184 16.2709 12.2184 16.2057C12.2184 16.0754 12.5061 16.1536 13.0291 16.4143ZM12.7938 17.1311C13.1206 17.1832 13.3952 17.2745 13.3952 17.3527C13.3952 17.4178 13.2776 17.4439 13.1337 17.4048C12.7807 17.3136 12.5322 17.7437 12.8068 17.9652C12.9114 18.0565 13.003 18.1868 13.003 18.252C13.003 18.3172 12.7022 18.1347 12.3492 17.8349C11.4731 17.105 11.5516 16.9617 12.7938 17.1311ZM11.4993 18.1347C11.4339 18.3823 11.5124 18.4736 12.0354 18.7212C12.3623 18.8906 12.6107 19.047 12.5715 19.0861C12.5453 19.1252 12.2446 19.021 11.9046 18.8515C11.3162 18.5648 11.3032 18.5648 11.107 18.8255C10.8324 19.1774 10.8717 18.9558 11.1724 18.3563C11.4731 17.7697 11.6039 17.6785 11.4993 18.1347ZM11.4601 19.9594C11.8131 20.1158 11.9569 20.1158 12.0092 20.0115C12.0354 19.9203 12.0746 19.9333 12.0746 20.0636C12.0877 20.1679 11.9962 20.3764 11.8785 20.5198C11.7346 20.7023 11.6954 20.7153 11.7346 20.5589C11.8262 20.2722 10.754 19.7378 10.5317 19.9594C10.3486 20.1418 10.3486 19.9854 10.5317 19.6466C10.6494 19.412 10.6886 19.3989 10.8194 19.5684C10.9109 19.6857 11.1986 19.8551 11.4601 19.9594ZM10.1656 20.8847C10.1133 21.2497 10.1525 21.3539 10.3748 21.4843C10.7671 21.6928 11.2247 21.6016 11.277 21.3018C11.3162 21.1063 11.277 21.0672 11.0416 21.1324C10.8717 21.1715 10.7801 21.1454 10.8194 21.0542C10.8847 20.8326 11.0939 20.8196 11.3685 21.0151C11.6039 21.1845 11.6039 21.2106 11.3816 21.5494C11.1855 21.8492 11.0809 21.8883 10.7409 21.8231C10.0087 21.6798 9.70795 21.2366 9.99561 20.6892C10.1917 20.3243 10.244 20.3895 10.1656 20.8847ZM10.1133 22.3966C10.5056 22.5921 10.6494 22.6052 10.7801 22.4879C10.9109 22.3575 10.924 22.3966 10.8455 22.6573C10.7278 23.0744 10.5186 23.2959 10.5186 23.0092C10.5186 22.7094 9.56412 22.2272 9.35491 22.4357C9.17185 22.6182 9.17185 22.4618 9.36798 22.0968C9.45951 21.9144 9.53796 21.8753 9.57719 21.9795C9.60334 22.0708 9.85178 22.2533 10.1133 22.3966ZM9.96946 23.5045C10.2179 23.8173 10.231 24.2734 9.98253 24.4298C9.86485 24.495 8.5573 23.8824 8.5573 23.7521C8.5573 23.713 8.62268 23.5696 8.68806 23.4263C8.89727 23.0483 9.64257 23.0874 9.96946 23.5045Z" fill="white"/>
<path d="M26.1432 20.0506C25.4632 20.5068 24.1295 21.9013 23.4496 22.8789C22.1813 24.7035 21.4752 26.7237 21.776 27.61C22.0898 28.4832 23.3581 27.8837 24.5087 26.3197C26.1432 24.091 27.2938 21.7319 27.3069 20.5719C27.32 19.8681 27.3069 19.8551 26.9277 19.816C26.7054 19.803 26.3655 19.8942 26.1432 20.0506Z" fill="white"/>
<path d="M47.6137 21.927C47.5614 22.0703 46.973 22.9957 46.3323 23.9732C45.0378 25.9413 45.0639 25.837 45.6393 26.9839C46.3976 28.4958 47.4829 28.3264 47.7706 26.6451C48.0059 25.3417 47.8621 21.3144 47.6137 21.927Z" fill="white"/>
<path d="M12.2177 17.5086C12.3746 17.7041 12.6099 17.665 12.6099 17.4304C12.6099 17.3652 12.4792 17.3131 12.3353 17.3131C12.1 17.3131 12.0869 17.3392 12.2177 17.5086Z" fill="white"/>
<path d="M8.98829 23.3996C8.68755 23.5169 8.80523 23.6863 9.34133 23.96C9.96895 24.2859 9.9951 24.2859 9.9951 23.9731C9.9951 23.556 9.4067 23.2171 8.98829 23.3996Z" fill="white"/>
</svg>
