<svg width="90" height="45" viewBox="0 0 90 45" fill="none" xmlns="http://www.w3.org/2000/svg">
<path d="M89.2188 38.75H83.5156V44.4531H89.2188V38.75Z" fill="white"/>
<path d="M71.9531 13.3594L75.3906 38.8281L78.75 13.3594H84.0625L79.1406 44.4531H71.5625L66.7188 13.3594H71.9531Z" fill="white"/>
<path d="M2.96875 13.3594H0V17.5H2.96875V44.4531H8.125V17.5H11.7188V13.3594H8.125V7.03125C8.04687 6.25 8.28125 5.54688 8.75 4.92188C9.29687 4.375 10 4.14063 10.7813 4.21875H11.7188V0H9.84375C7.57812 0 5.3125 0.468751 4.29688 1.48438C3.28125 2.5 2.96875 3.98438 2.96875 6.25V13.3594Z" fill="white"/>
<path d="M18.4375 13.3594H13.2812V44.4531H18.4375V13.3594Z" fill="white"/>
<path d="M42.3437 20.0781C42.3437 18.3594 42.8125 16.4844 45.2344 16.4844C47.6563 16.4844 48.125 18.2813 48.125 20.0781V26.4844H42.3437V20.0781ZM42.3437 30.625H53.125V21.0938C53.125 15.3906 50.3906 13.0469 45.1562 13.0469C39.7656 13.0469 37.1875 15.3906 37.1875 21.1719V36.875C37.1875 42.1094 40.3906 44.8438 45.1562 44.8438C49.9219 44.8438 53.125 42.5781 53.125 36.875V34.375H48.125V37.3438C48.125 39.4531 47.3438 40.9375 45.2344 40.9375C43.125 40.9375 42.3437 39.4531 42.3437 37.3438V30.625Z" fill="white"/>
<path d="M30.0781 26.7969C26.1719 23.3594 25.8594 22.8906 25.8594 20.3906C25.8594 18.2031 26.0156 16.9531 27.9687 16.9531C29.9219 16.9531 30.1563 18.2812 30.1563 20.4687V23.3594H35.1563V18.6719C35.1563 15 32.3438 13.125 27.8906 13.125C23.4375 13.125 20.7031 14.6094 20.625 20.4687V21.0937C20.625 22.9687 20.625 25.8594 25.2344 29.7656L26.5625 30.8594C29.9219 33.6719 30.3125 34.0625 30.3125 37.4219C30.3125 39.5313 30.1562 41.0938 27.9687 41.0938C25.7812 41.0938 25.625 39.5313 25.625 38.5156V34.5312H20.3906V38.6719C20.3906 43.75 23.6719 45 27.9687 45C32.2656 45 35.5469 43.75 35.5469 37.2656V36.7188C35.4688 31.9531 34.6094 30.7813 30.0781 26.7969Z" fill="white"/>
<path d="M60 16.5625V13.3594H55.3125V44.4531H60.3906V22.7344C60.3906 21.0938 60.9375 19.9219 61.875 19.2969C62.8906 18.6719 64.1406 18.3594 65.3125 18.4375V12.9688C62.6563 13.0469 61.4844 13.5937 60.0781 16.4062L60 16.5625Z" fill="white"/>
</svg>
