<svg width="150" height="63" viewBox="0 0 150 63" fill="none" xmlns="http://www.w3.org/2000/svg">
<path d="M8.75701 49.4585H6.57151L6.60151 44.745H2.2155L2.1855 49.4585H0L0.0810006 38.5586H2.265L2.232 43.0355H6.61801L6.65251 38.5586H8.83501L8.75701 49.4585Z" fill="white"/>
<path d="M16.7347 40.0055C14.8672 40.0055 13.4752 41.4963 13.4752 43.9959C13.4752 46.5103 14.4532 48.0145 16.7347 48.0145C18.9037 48.0145 19.9537 46.0357 19.9537 43.9959C19.9537 41.6094 18.9037 40.0055 16.7347 40.0055ZM16.7347 49.6303C13.3312 49.6303 11.1172 47.7467 11.1172 43.9944C11.1172 40.8521 13.4917 38.3867 16.7347 38.3867C20.2807 38.3867 22.3252 40.6021 22.3252 43.9944C22.3252 47.1501 19.8712 49.6303 16.7347 49.6303Z" fill="white"/>
<path d="M30.6217 40.6468C30.0217 40.3031 28.8967 40.068 28.2157 40.068C27.0472 40.068 26.3002 40.4549 26.3002 41.3252C26.3182 43.5064 31.2892 42.6405 31.2892 46.366C31.2892 48.4073 29.7517 49.6303 27.2812 49.6303C26.0467 49.6303 24.8737 49.3655 23.8477 48.8299L24.6532 47.354C25.3777 47.6857 26.1757 47.9223 27.0607 47.9223C28.3117 47.9223 29.0047 47.4804 29.0047 46.5223C29.0047 44.4185 24.0367 45.2665 24.0367 41.5127C24.0367 39.6752 25.6972 38.3838 27.9307 38.3838C29.1337 38.3838 30.4507 38.6397 31.4752 39.1723L30.6217 40.6468Z" fill="white"/>
<path d="M37.5254 40.0691C36.9059 40.0691 36.3524 40.1003 35.9384 40.1152L35.9084 43.5402H37.1894C38.5379 43.5402 39.3134 42.8781 39.3134 41.8113C39.3134 40.8963 38.7914 40.0691 37.5254 40.0691ZM37.1774 45.2051H35.9084L35.8769 49.4588H33.6914L33.7724 38.5574C34.7549 38.4964 36.7199 38.4027 37.6814 38.4027C39.9299 38.3819 41.5964 39.2686 41.5964 41.7607C41.5964 44.4671 39.2804 45.2051 37.1774 45.2051Z" fill="white"/>
<path d="M45.8036 49.4585H43.6211L43.7006 38.5586H45.8831L45.8036 49.4585Z" fill="white"/>
<path d="M52.7858 40.2448L52.7243 49.459H50.5403L50.6018 40.2448H47.7383V38.5576H55.6538V40.2448H52.7858Z" fill="white"/>
<path d="M60.938 42.911C60.4655 41.5764 60.2915 40.3028 60.2915 40.3028C60.2915 40.3028 60.035 41.6702 59.594 42.911L58.8965 44.8705H61.6355L60.938 42.911ZM63.2825 49.6479L62.207 46.5369H58.247L57.0785 49.6301L55.1465 49.1912L59.3735 38.5576H61.5095L65.438 49.1629L63.2825 49.6479Z" fill="white"/>
<path d="M67.1348 49.4585L67.2113 38.5586H69.3953L69.3323 47.7475H73.2128V49.4585H67.1348Z" fill="white"/>
<path d="M81.9355 49.4585H79.75L79.8295 38.5586H82.0165L81.9355 49.4585Z" fill="white"/>
<path d="M88.9147 40.2448L88.8517 49.459H86.6692L86.7277 40.2448H83.8672V38.5576H91.7827V40.2448H88.9147Z" fill="white"/>
<path d="M97.0679 42.911C96.5939 41.5764 96.4214 40.3028 96.4214 40.3028C96.4214 40.3028 96.1634 41.6702 95.7239 42.911L95.0264 44.8705H97.7639L97.0679 42.911ZM99.408 49.6479L98.3354 46.5369H94.3754L93.2039 49.6301L91.2734 49.1912L95.5004 38.5576H97.6409L101.565 49.1629L99.408 49.6479Z" fill="white"/>
<path d="M103.258 49.4585L103.337 38.5586H105.526L105.46 47.7475H109.339V49.4585H103.258Z" fill="white"/>
<path d="M113.629 49.4585H111.445L111.523 38.5586H113.707L113.629 49.4585Z" fill="white"/>
<path d="M120.945 42.911C120.468 41.5764 120.294 40.3028 120.294 40.3028C120.294 40.3028 120.042 41.6702 119.596 42.911L118.9 44.8705H121.638L120.945 42.911ZM123.285 49.6479L122.214 46.5369H118.252L117.081 49.6301L115.15 49.1912L119.376 38.5576H121.515L125.442 49.1629L123.285 49.6479Z" fill="white"/>
<path d="M136.412 49.1626L133.91 49.7414L129.967 42.878C129.302 41.7339 128.969 40.7445 128.969 40.7445C128.969 40.7445 129.116 42.1267 129.116 42.9896L129.097 49.4602H127.135L127.211 38.9234L129.731 38.3535L133.642 45.1886C134.288 46.3358 134.654 47.3252 134.654 47.3252C134.654 47.3252 134.525 45.9445 134.525 45.08L134.545 38.5588H136.508L136.412 49.1626Z" fill="white"/>
<path d="M144.406 40.0055C142.539 40.0055 141.147 41.4963 141.147 43.9959C141.147 46.5103 142.126 48.0145 144.406 48.0145C146.577 48.0145 147.622 46.0357 147.622 43.9959C147.622 41.6094 146.578 40.0055 144.406 40.0055ZM144.406 49.6303C141.004 49.6303 138.787 47.7467 138.787 43.9944C138.787 40.8521 141.162 38.3867 144.406 38.3867C147.954 38.3867 150 40.6021 150 43.9944C150 47.1501 147.543 49.6303 144.406 49.6303Z" fill="white"/>
<path d="M35.0761 56.3519C33.6166 56.3519 32.9341 57.9008 32.9341 59.1446C32.9341 60.3364 33.3196 61.7201 34.7566 61.7201C35.6206 61.7201 36.3977 61.1011 36.7607 60.3617L36.7861 57.1197C36.3211 56.5573 35.7901 56.3519 35.0761 56.3519ZM37.5452 62.211H36.7727C36.7727 61.9403 36.7952 61.4775 36.8087 61.2737C36.2672 61.9804 35.4391 62.3494 34.5481 62.3494C32.7001 62.3494 32.0566 60.8645 32.0566 59.2354C32.0566 57.4931 33.1276 55.7122 35.0536 55.7122C35.8141 55.7122 36.3301 55.8952 36.8221 56.3028C36.8086 56.0455 36.7937 55.7985 36.7937 55.547L36.8221 52.6621H37.6352L37.5452 62.211Z" fill="white"/>
<path d="M42.0749 56.3413C40.9874 56.3413 40.3844 57.2861 40.1639 58.2353H43.6004C43.5989 57.2861 43.1579 56.3413 42.0749 56.3413ZM40.0724 58.8751C40.0724 58.9748 40.0574 59.067 40.0574 59.1712C40.0574 60.4909 40.4354 61.6826 41.9969 61.6826C42.6704 61.6826 43.2914 61.3122 43.7264 60.8242L44.2214 61.2869C43.5989 61.9519 42.8129 62.3492 41.8919 62.3492C39.8009 62.3492 39.1934 60.964 39.1934 59.1206C39.1934 57.4676 40.2389 55.709 42.0734 55.709C43.9574 55.709 44.4629 57.1477 44.4629 58.6475V58.8766H40.0724V58.8751Z" fill="white"/>
<path d="M51.8949 53.9546C51.4929 53.9546 51.0789 53.968 50.6784 53.9829L50.6514 57.3275H51.7884C52.9494 57.3275 54.0114 56.9169 54.0114 55.6076C54.0129 54.2254 53.0934 53.9546 51.8949 53.9546ZM51.8409 57.9941H50.6379L50.6124 61.5812C50.9874 61.5946 51.3609 61.6036 51.7374 61.6036C52.9764 61.6036 54.0984 61.1855 54.0984 59.775C54.0984 58.3392 53.1324 57.9941 51.8409 57.9941ZM51.8409 62.2716C51.1539 62.2716 50.4564 62.2329 49.7754 62.2106L49.8684 53.3565C50.6289 53.3148 51.3909 53.291 52.1514 53.291C53.7144 53.291 54.8769 53.7374 54.8769 55.4796C54.8769 56.5583 54.2544 57.3394 53.2089 57.6206C54.3864 57.7843 54.9804 58.6576 54.9804 59.7973C54.9789 61.5946 53.4159 62.2716 51.8409 62.2716Z" fill="white"/>
<path d="M61.8582 62.2106H61.0707C61.0587 61.669 61.0857 61.2242 61.0992 61.0665C60.5052 61.7315 59.7312 62.3475 58.7862 62.3475C57.5202 62.3475 56.8212 61.7479 56.8362 60.4817L56.8842 55.8501H57.7002L57.6627 60.3464C57.6477 61.1409 58.0242 61.6809 58.8762 61.6809C59.7822 61.6809 60.5847 60.9742 61.0722 60.2854L61.1007 55.8486H61.9137L61.8582 62.2106Z" fill="white"/>
<path d="M66.3728 56.3413C65.2853 56.3413 64.6808 57.2861 64.4618 58.2353H67.8968C67.8968 57.2861 67.4573 56.3413 66.3728 56.3413ZM64.3733 58.8751C64.3733 58.9748 64.3568 59.067 64.3568 59.1712C64.3568 60.4909 64.7303 61.6826 66.2933 61.6826C66.9668 61.6826 67.5848 61.3122 68.0243 60.8242L68.5133 61.2869C67.8953 61.9519 67.1063 62.3492 66.1913 62.3492C64.0973 62.3492 63.4883 60.964 63.4883 59.1206C63.4883 57.4676 64.5368 55.709 66.3713 55.709C68.2568 55.709 68.7593 57.1477 68.7593 58.6475V58.8766H64.3733V58.8751Z" fill="white"/>
<path d="M75.2882 62.2113H74.4752L74.5142 57.7105C74.5262 56.916 74.1527 56.3774 73.2962 56.3774C72.3902 56.3774 71.6027 57.0842 71.1122 57.776L71.0762 62.2113H70.2617L70.3142 55.8522H71.1122C71.1287 56.3938 71.1017 56.8402 71.0882 56.9934C71.6807 56.3269 72.4457 55.7139 73.3847 55.7139C74.6552 55.7139 75.3497 56.3194 75.3362 57.5841L75.2882 62.2113Z" fill="white"/>
<path d="M79.9269 56.3636C78.4314 56.3636 77.7714 57.6565 77.7714 58.9911C77.7714 60.3123 78.2379 61.7079 79.7844 61.7079C80.0979 61.7079 80.4084 61.632 80.6799 61.4907C81.6369 61.019 81.9699 59.9924 81.9699 58.9911C81.9699 57.7101 81.4164 56.3636 79.9269 56.3636ZM79.7844 62.3477C77.7714 62.3477 76.8789 60.8628 76.8789 59.0164C76.8789 57.234 78.0954 55.7119 79.9674 55.7119C81.9699 55.7119 82.8639 57.1834 82.8639 59.0164C82.8639 60.7601 81.6369 62.3477 79.7844 62.3477Z" fill="white"/>
<path d="M87.5015 56.7361C87.143 56.5575 86.6915 56.3522 86.2505 56.3522C85.5785 56.3522 84.854 56.6602 84.854 57.3907C84.854 58.8384 87.8255 58.4277 87.8255 60.4914C87.8255 61.64 86.7785 62.3482 85.6925 62.3482C85.0475 62.3482 84.3755 62.2202 83.834 61.8631L84.209 61.2859C84.569 61.5552 85.127 61.6965 85.577 61.6965C86.234 61.6965 86.9075 61.335 86.9075 60.6074C86.9075 59.0035 83.975 59.5421 83.975 57.4398C83.975 56.2733 85.1135 55.7109 86.156 55.7109C86.8685 55.7109 87.2705 55.8508 87.8795 56.1722L87.5015 56.7361Z" fill="white"/>
<path d="M96.2372 55.1855C96.0422 54.6737 95.8712 54.1991 95.8712 54.1991C95.8712 54.1991 95.7167 54.6737 95.4992 55.2376L94.2827 58.2757H97.4237L96.2372 55.1855ZM98.9867 62.3212L97.6832 58.9557H94.0247L92.6807 62.3212L91.9082 62.0816L95.5367 53.3555H96.3527L99.7862 62.0667L98.9867 62.3212Z" fill="white"/>
<path d="M101.903 62.2108H101.09L101.141 55.8518H101.969L101.903 62.2108ZM101.09 53.5947H102.072V54.5826H101.09V53.5947Z" fill="white"/>
<path d="M107.017 56.5853C106.878 56.5421 106.711 56.5049 106.555 56.5049C105.777 56.5049 105.093 57.3277 104.761 57.9273L104.722 62.2093H103.906L103.971 55.8503H104.761C104.761 56.316 104.746 56.6983 104.709 57.1209C105.196 56.3517 105.7 55.7119 106.711 55.7119C106.888 55.7119 107.124 55.7655 107.305 55.8116L107.017 56.5853Z" fill="white"/>
<path d="M110.528 56.3413C109.444 56.3413 108.835 57.2861 108.616 58.2353H112.054C112.054 57.2861 111.614 56.3413 110.528 56.3413ZM108.527 58.8751C108.527 58.9748 108.514 59.067 108.514 59.1712C108.514 60.4909 108.89 61.6826 110.453 61.6826C111.121 61.6826 111.743 61.3122 112.183 60.8242L112.672 61.2869C112.054 61.9519 111.266 62.3492 110.347 62.3492C108.254 62.3492 107.648 60.964 107.648 59.1206C107.648 57.4676 108.695 55.709 110.528 55.709C112.412 55.709 112.916 57.1477 112.916 58.6475V58.8766H108.527V58.8751Z" fill="white"/>
<path d="M117.567 56.7361C117.204 56.5575 116.754 56.3522 116.313 56.3522C115.644 56.3522 114.916 56.6602 114.916 57.3907C114.916 58.8384 117.889 58.4277 117.889 60.4914C117.889 61.64 116.841 62.3482 115.756 62.3482C115.11 62.3482 114.441 62.2202 113.895 61.8631L114.273 61.2859C114.633 61.5552 115.192 61.6965 115.642 61.6965C116.299 61.6965 116.973 61.335 116.973 60.6074C116.973 59.0035 114.039 59.5421 114.039 57.4398C114.039 56.2733 115.177 55.7109 116.223 55.7109C116.934 55.7109 117.334 55.8508 117.942 56.1722L117.567 56.7361Z" fill="white"/>
<path d="M63.6976 28.5037C61.7821 28.5067 61.7911 27.1022 61.7866 26.6052C61.7746 26.1172 61.7866 19.3848 61.7866 19.3848H67.5286V28.5037H63.6976Z" fill="white"/>
<path d="M63.6959 1.17992e-06C61.7804 -0.00148666 61.7894 1.40452 61.7879 1.89848C61.7729 2.38798 61.7879 9.12043 61.7879 9.12043H67.5269V1.17992e-06C67.5269 1.17992e-06 64.6529 0.00744036 63.6959 1.17992e-06Z" fill="white"/>
<path d="M86.3002 28.5037C88.2187 28.5067 88.2082 27.1022 88.2157 26.6052C88.2217 26.1172 88.2157 19.3848 88.2157 19.3848H82.4707V28.5037H86.3002Z" fill="white"/>
<path d="M86.3002 1.17992e-06C88.2187 -0.00148666 88.2082 1.40452 88.2157 1.89848C88.2217 2.38798 88.2157 9.12043 88.2157 9.12043H82.4707V1.17992e-06C82.4707 1.17992e-06 85.3447 0.00744036 86.3002 1.17992e-06Z" fill="white"/>
<path d="M77.873 0H72.125V28.504H77.873V0Z" fill="white"/>
<path d="M88.2198 11.4023H61.7793V17.1008H88.2198V11.4023Z" fill="white"/>
</svg>
