<svg width="150" height="35" viewBox="0 0 150 35" fill="none" xmlns="http://www.w3.org/2000/svg">
<path d="M26.0215 9.31543C17.1033 9.31543 9.70917 16.3817 9.20117 25.3803C9.20117 25.611 9.25762 25.8129 9.42695 25.986C9.56806 26.159 9.79383 26.2455 10.0196 26.2455H15.9745C16.3978 26.2455 16.7364 25.9283 16.7929 25.4668C17.2444 20.6214 21.2237 16.9585 26.0497 16.9585C30.8757 16.9585 34.855 20.6214 35.3065 25.4668C35.3348 25.8994 35.7016 26.2455 36.125 26.2455H42.0516C42.2774 26.2455 42.5031 26.159 42.6443 25.986C42.7854 25.8129 42.87 25.611 42.87 25.3803C42.3338 16.3528 34.9396 9.31543 26.0215 9.31543Z" fill="white"/>
<path d="M26.0212 18.6318C21.8161 18.6318 18.373 22.0928 18.373 26.3614C18.373 30.63 21.8161 34.091 26.0212 34.091C30.2263 34.091 33.6694 30.63 33.6694 26.3614C33.6694 22.0928 30.2263 18.6318 26.0212 18.6318Z" fill="white"/>
<path d="M26.0207 0C19.2474 0 12.8128 2.6246 7.93039 7.38348C3.0762 12.1424 0.253998 18.5164 0 25.3519C0 25.5826 0.0846661 25.7845 0.225776 25.9575C0.395108 26.1306 0.592662 26.2171 0.818438 26.2171H6.71684C7.14017 26.2171 7.50706 25.871 7.53528 25.4384C8.01505 15.4303 16.1148 7.61421 26.0207 7.61421C35.8984 7.61421 44.0263 15.4303 44.5061 25.4384C44.5343 25.871 44.873 26.2171 45.3246 26.2171H51.223C51.4487 26.2171 51.6463 26.1306 51.8156 25.9575C51.985 25.7845 52.0414 25.5826 52.0414 25.3519C51.7874 18.5164 48.9652 12.1424 44.111 7.38348C39.2286 2.65344 32.794 0 26.0207 0Z" fill="white"/>
<path d="M82.6898 3.3457L75.9165 3.3457C75.8036 3.3457 75.7189 3.40339 75.7189 3.51875L71.4856 20.3623H71.4292L67.337 3.51875C67.3088 3.43223 67.2241 3.3457 67.1395 3.3457L60.0839 3.3457C59.9711 3.3457 59.8864 3.43223 59.8582 3.5476L58.3906 25.7846C58.3906 25.8422 58.4188 25.8999 58.4471 25.9576C58.4753 26.0153 58.56 26.0153 58.6164 26.0153H62.2853C62.3982 26.0153 62.4828 25.9288 62.511 25.8134L63.5835 7.29702H63.6117L68.4377 25.8711C68.4659 25.9576 68.5506 26.0441 68.6352 26.0441L73.687 26.0441C73.7716 26.0441 73.8563 25.9865 73.8845 25.8711L78.8798 7.29702H78.908L79.6982 25.8134C79.6982 25.9288 79.8111 26.0153 79.924 26.0153H84.1856C84.242 26.0153 84.2984 25.9865 84.3549 25.9576C84.3831 25.8999 84.4113 25.8422 84.4113 25.7846L82.9438 3.5476C82.9156 3.43223 82.8027 3.3457 82.6898 3.3457Z" fill="white"/>
<path d="M93.612 8.56594C91.8622 8.56594 89.1811 8.85436 87.77 9.17162C87.6853 9.20046 87.6007 9.28698 87.6007 9.37351V12.5173C87.6007 12.5749 87.6289 12.6326 87.6853 12.6903C87.7418 12.7191 87.7982 12.748 87.8547 12.7191C88.8424 12.4884 91.1002 12.1135 93.358 12.1135C97.1115 12.1135 97.2244 13.0364 97.2244 15.4591H96.8857C93.4991 15.4591 89.6609 15.4591 87.7136 17.4203C86.8951 18.2279 86.5 19.3527 86.5 20.7371C86.5 25.5826 90.2535 26.3036 94.3175 26.3613C94.6844 26.3613 95.0513 26.3901 95.4182 26.3901C97.309 26.3901 99.2846 26.2459 101.937 25.9575C102.05 25.9575 102.135 25.8421 102.135 25.7268V14.3343C102.135 12.6326 101.655 11.3059 100.724 10.383C99.087 8.73899 96.3495 8.5371 93.612 8.56594ZM97.2244 18.8047V22.8714C96.3777 22.9868 95.6722 23.0445 94.8537 23.0445C92.9346 23.0445 91.58 22.9003 91.58 20.9102C91.58 18.9201 92.9346 18.7759 94.8537 18.7759C96.0108 18.7759 96.801 18.7759 97.2244 18.8047Z" fill="white"/>
<path d="M118.561 22.3811L118.278 22.41C117.488 22.5253 116.726 22.6119 115.428 22.6119C111.138 22.6119 109.389 21.0833 109.389 17.3627C109.389 13.6709 111.082 12.2 115.428 12.2C116.416 12.2 117.263 12.2865 118.448 12.4307C118.504 12.4307 118.561 12.4307 118.617 12.3731C118.674 12.3442 118.702 12.2865 118.702 12.2V9.22931C118.702 9.11394 118.645 9.02742 118.532 9.02742C117.121 8.71016 115.513 8.53711 113.707 8.53711C107.215 8.53711 104.309 12.8634 104.309 17.1319C104.309 22.9003 107.893 26.3324 113.904 26.3324C115.71 26.3324 117.206 26.1594 118.674 25.7845C118.758 25.7556 118.843 25.6691 118.843 25.5826V22.5542C118.843 22.4965 118.815 22.4388 118.758 22.3811C118.674 22.3811 118.617 22.3811 118.561 22.3811Z" fill="white"/>
<path d="M132.079 8.99843C132.079 8.88306 131.995 8.76762 131.854 8.76762H131.571C130.104 8.76762 128.298 8.73885 125.645 10.2675V9.11379C125.645 8.99843 125.56 8.88306 125.419 8.88306H121.468C121.355 8.88306 121.242 8.96958 121.242 9.11379V25.8131C121.242 25.9285 121.327 26.0439 121.468 26.0439H125.927C126.04 26.0439 126.153 25.9574 126.153 25.8131V13.9015C127.62 12.9209 130.019 12.9209 131.628 12.9209H131.882C131.995 12.9209 132.108 12.8344 132.108 12.6902L132.079 8.99843Z" fill="white"/>
<path d="M141.054 8.53711C135.494 8.53711 132.051 11.9693 132.051 17.4492C132.051 22.958 135.494 26.3613 141.054 26.3613C146.303 26.3613 150 22.6984 150 17.4492C150 11.9404 146.557 8.53711 141.054 8.53711ZM144.92 17.5069C144.92 21.314 143.791 22.8714 141.025 22.8714C138.231 22.8714 137.103 21.314 137.103 17.5069C137.103 13.6709 138.231 12.1135 141.025 12.1135C143.791 12.1135 144.92 13.6709 144.92 17.5069Z" fill="white"/>
</svg>
