<svg width="88" height="50" viewBox="0 0 88 50" fill="none" xmlns="http://www.w3.org/2000/svg">
<path d="M37.2455 0.16969C35.5906 0.460341 33.9562 1.02088 32.4852 1.78904C31.0754 2.55719 30.013 3.51219 26.5603 7.2699C25.0075 8.95153 23.2301 10.1141 20.758 11.0899L19.2461 11.692L20.3493 11.8581C22.4946 12.1902 25.9473 11.6712 28.2356 10.6539C30.0539 9.82349 31.7905 8.47403 34.1196 6.06577C37.0616 3.03469 39.9628 1.16621 42.4553 0.688711C42.8639 0.605668 43.2521 0.460341 43.3134 0.377298C43.5381 0.00360298 39.1455 -0.141723 37.2455 0.16969Z" fill="white"/>
<path d="M1.98276 2.32809C-0.346333 2.84711 -0.509778 2.97167 0.899937 3.13776C2.53439 3.32461 5.45597 4.32113 7.0087 5.21384C7.68291 5.6083 8.84746 6.41797 9.58296 7.02004C11.7078 8.74319 13.097 9.67743 13.5669 9.67743C13.9756 9.67743 16.1821 8.3695 16.9789 7.66363C17.3057 7.37297 17.224 7.24841 16.0799 6.16884C14.3433 4.52874 12.5454 3.40765 10.5636 2.72254C9.09263 2.20352 8.50014 2.12048 6.10975 2.07896C4.18927 2.01667 2.92257 2.09972 1.98276 2.32809Z" fill="white"/>
<path d="M6.11835 14.3725C1.54188 15.6804 -0.848508 20.6423 0.275178 26.5591C1.07197 30.7113 3.09461 33.8254 5.70973 34.9465C6.77213 35.4032 8.63132 35.6108 10.041 35.4032C15.8638 34.5935 18.5402 28.3653 16.2315 20.9537C14.8831 16.6146 12.3497 14.2894 8.81519 14.1233C7.83452 14.0818 6.81299 14.1856 6.11835 14.3725ZM8.34529 17.0506C9.20337 17.5074 10.3884 18.9606 10.94 20.227C11.9002 22.4277 12.268 24.2131 12.3906 27.1404C12.4927 29.7355 12.4723 30.0262 12.0432 31.0434C9.89802 36.1299 5.1581 30.5037 4.74949 22.3446C4.64734 20.6007 4.70863 19.9364 4.97423 19.0852C5.62801 17.0921 6.91514 16.3032 8.34529 17.0506Z" fill="white"/>
<path d="M69.1186 16.0134C68.8325 16.1172 66.4422 16.1795 63.684 16.138L58.7398 16.0757L58.6172 17.1137C58.5559 17.6743 58.4946 18.6708 58.4946 19.2936V20.4355L59.1075 19.6881C59.6387 19.003 61.2119 18.048 61.7635 18.048C61.8861 18.048 61.9883 20.9753 62.0087 26.29L62.07 34.5529L64.1744 34.6151L66.2583 34.6774V26.3523C66.2583 17.1968 66.1766 17.7366 67.5454 18.3386C67.9132 18.484 68.6078 19.0445 69.0777 19.5843L69.9767 20.56L69.8336 18.2141C69.7519 16.9269 69.6702 15.8473 69.6498 15.8473C69.6498 15.8266 69.4046 15.9096 69.1186 16.0134Z" fill="white"/>
<path d="M19.4437 17.0307C19.6889 17.7366 19.7502 19.4597 19.7502 26.29V34.6774L20.6287 34.6151L21.4868 34.5529L21.589 27.4527L21.6911 20.3524L23.5299 25.6049C24.5514 28.5115 25.4299 30.7744 25.4912 30.6498C25.5729 30.5045 26.4515 28.117 27.4321 25.3143L29.2505 20.2279L29.3118 27.4527L29.3526 34.6567H31.4978H33.6431V26.2693C33.6431 19.4597 33.7043 17.7366 33.9495 17.0307L34.2355 16.1795H31.3957H28.5354L28.515 17.0515C28.515 17.5705 28.1472 18.9407 27.6364 20.3109L26.7579 22.6984L26.002 20.4147C25.5729 19.086 25.2665 17.7366 25.2665 17.1553V16.1795H22.2019H19.1577L19.4437 17.0307Z" fill="white"/>
<path d="M36.3359 16.2418C36.3359 16.2833 36.479 16.6778 36.6424 17.1345C36.8671 17.7989 36.9284 19.5843 36.9489 26.3108V34.6774H39.0941H41.2393V26.1655C41.2393 19.1898 41.3006 17.5082 41.5253 16.9269L41.8318 16.2003H39.0736C37.5822 16.2003 36.3359 16.221 36.3359 16.2418Z" fill="white"/>
<path d="M44.1972 16.6362C44.4015 16.9892 44.4833 19.2729 44.565 25.8333L44.6671 34.5529L45.5252 34.6151L46.4037 34.6774L46.4446 27.1828L46.5059 19.6881L50.8781 26.8091C53.2889 30.7329 55.3728 34.0754 55.5362 34.2415C55.761 34.4906 55.8018 33.1619 55.8018 26.0824C55.8018 19.1691 55.8631 17.4874 56.0879 16.9061L56.3943 16.1795H54.862C54.0448 16.1795 53.3502 16.2003 53.3502 16.221C53.3502 16.2625 53.4932 16.657 53.6566 17.1137C53.9835 18.0272 54.0857 22.9268 53.7792 22.7399C53.5545 22.5946 51.205 18.567 50.9189 17.8404C50.8168 17.5497 50.6738 17.0722 50.6125 16.74L50.4899 16.1795H47.2005H43.9316L44.1972 16.6362Z" fill="white"/>
<path d="M3.0646 38.3324C3.0646 38.6646 2.36996 41.3427 1.5323 44.2908C0.694642 47.2596 0 49.7509 0 49.8339C0 49.917 0.204307 50 0.469905 50C0.878518 50 0.980671 49.8339 1.22584 48.7959L1.5323 47.6125L3.69795 47.5502L5.88403 47.4879L6.17006 48.6921C6.43566 49.8754 6.47652 49.8962 7.21202 49.9585C7.6615 50 7.96796 49.9377 7.96796 49.7924C7.96796 49.6678 7.37547 47.2388 6.63996 44.3738C5.90446 41.5296 5.31197 38.8722 5.31197 38.4777V37.7511H4.18828C3.08503 37.7511 3.0646 37.7719 3.0646 38.3324ZM4.67862 42.7545C5.14852 44.5399 5.51628 46.1385 5.51628 46.3253C5.51628 46.6367 5.25068 46.6783 3.67752 46.6783C2.65599 46.6783 1.83876 46.616 1.83876 46.5122C1.83876 46.4291 2.14522 45.2042 2.5334 43.7717C2.92158 42.3392 3.3302 40.7614 3.47321 40.2632C3.5958 39.7857 3.73881 39.412 3.77967 39.4327C3.82053 39.4742 4.20871 40.969 4.67862 42.7545Z" fill="white"/>
<path d="M11.6937 37.8091C10.427 38.4112 9.79363 39.906 10.1818 41.3593C10.4678 42.4388 11.0399 42.9163 13.0421 43.7468C13.9819 44.1412 14.9422 44.6602 15.2078 44.9301C16.1476 45.8851 16.0658 47.1515 14.9626 48.2726C14.3905 48.8539 14.1454 48.9577 13.3281 48.9577C12.6948 48.9577 12.1023 48.8124 11.6528 48.5217C10.9786 48.0858 10.9377 48.0858 10.6721 48.4595C10.2022 49.1031 10.3044 49.3107 11.2851 49.6844C12.6539 50.2241 14.5948 50.0581 15.5755 49.2899C16.5766 48.501 17.1078 47.2969 17.1078 45.7813C17.1078 44.4111 16.6788 43.2693 15.9637 42.8125C15.7185 42.6464 14.7378 42.1689 13.798 41.7745C12.8787 41.3593 11.9388 40.8818 11.755 40.7157C11.2442 40.2589 11.3055 39.5738 11.8571 39.0548C12.8378 38.1413 14.0228 38.2036 15.2282 39.2624C15.7389 39.7191 15.9228 39.8022 15.8207 39.5531C15.7389 39.3455 15.6777 38.868 15.6777 38.515C15.6777 37.9752 15.5959 37.8507 15.2282 37.8091C14.9626 37.8091 14.2066 37.7261 13.5324 37.6638C12.6743 37.56 12.1227 37.6223 11.6937 37.8091Z" fill="white"/>
<path d="M20.6586 37.9038C19.6983 38.402 19.208 39.2947 19.208 40.6027C19.208 42.0974 19.8822 42.8448 21.9661 43.6753C24.0501 44.4849 24.9286 45.3154 24.9286 46.3949C24.9286 47.2877 24.377 48.2842 23.6619 48.6786C22.9264 49.0939 21.4554 49.0316 20.7403 48.5541C19.9639 48.0351 19.9435 48.0351 19.6575 48.6579C19.3306 49.3637 19.2897 49.3015 20.2295 49.6752C21.2306 50.0904 23.0694 50.1111 23.9684 49.7167C26.4813 48.6579 27.1147 44.2981 24.9899 42.7826C24.663 42.5749 23.6619 42.0767 22.7221 41.703C20.7812 40.9348 20.2295 40.3535 20.5973 39.5231C20.7199 39.2532 21.1081 38.8795 21.4758 38.6927C22.3339 38.2359 23.3146 38.4228 24.2135 39.2532L24.9286 39.876L24.9082 39.2947C24.8673 38.2775 24.6426 37.8622 24.1114 37.8C21.8027 37.5301 21.3328 37.5508 20.6586 37.9038Z" fill="white"/>
<path d="M33.8466 37.9389C32.4777 38.7071 32.0078 40.7832 32.9068 42.1326C33.2541 42.6724 33.8057 43.0253 35.2767 43.6689C37.4424 44.6239 38.1575 45.2883 38.1575 46.3886C38.1575 48.5062 35.9305 49.6688 34.0713 48.5269L33.3767 48.091L33.0089 48.5477C32.5595 49.1082 32.6821 49.3366 33.581 49.7103C34.6025 50.1463 36.4413 50.084 37.4833 49.565C39.6285 48.5062 40.2823 44.707 38.5865 43.0668C38.2801 42.7762 37.2177 42.1949 36.1961 41.7797C35.195 41.3645 34.2552 40.9285 34.1122 40.8039C33.9488 40.6793 33.867 40.2849 33.9079 39.8489C33.9692 39.2261 34.0918 39.0392 34.7456 38.7071C35.7262 38.2296 36.6865 38.3957 37.5241 39.1846L38.1575 39.7866V38.7901C38.1575 37.8559 38.137 37.8143 37.6058 37.7936C37.279 37.7936 36.4822 37.7313 35.8079 37.6483C34.8273 37.5652 34.4391 37.6275 33.8466 37.9389Z" fill="white"/>
<path d="M41.6494 38.976V40.0971L42.1193 39.6611C42.6301 39.1836 43.5086 38.7891 44.1215 38.7891C44.4893 38.7891 44.5097 38.9967 44.5097 44.3946V50H45.2248H45.9399V44.3946C45.9399 38.9967 45.9603 38.7891 46.328 38.7891C46.941 38.7891 47.8195 39.1836 48.3507 39.6611L48.8001 40.0971V39.3912C48.8001 37.7719 48.984 37.8549 45.1022 37.8549H41.6494V38.976Z" fill="white"/>
<path d="M53.9052 38.7269C53.8439 39.2874 53.1288 41.9655 52.332 44.706C51.5556 47.4464 50.9019 49.7509 50.9019 49.8339C50.9019 49.9377 51.1062 50 51.3718 50C51.7804 50 51.8825 49.8339 52.1277 48.7959L52.4342 47.6125L54.5998 47.5502L56.7859 47.4879L57.0719 48.6921C57.3375 49.8754 57.3784 49.8962 58.1139 49.9585C58.6042 50 58.8698 49.9377 58.8698 49.7716C58.8698 49.6471 58.2773 47.1765 57.5418 44.2908C56.8063 41.4258 56.2138 38.7684 56.2138 38.4154C56.2138 37.7511 56.2138 37.7511 55.1106 37.7511H54.0277L53.9052 38.7269ZM55.6622 43.0036C56.1525 44.9136 56.4999 46.5122 56.459 46.5745C56.2955 46.7198 52.7406 46.699 52.7406 46.5537C52.7406 46.4707 53.1492 44.8721 53.66 43.0036C54.1708 41.1351 54.5794 39.5573 54.5794 39.4742C54.5794 38.9967 54.8654 39.9517 55.6622 43.0036Z" fill="white"/>
<path d="M73.2848 37.9762C72.8354 38.1838 72.2224 38.6198 71.916 38.9519C69.6686 41.3809 70.3428 47.0902 73.0805 49.0417C74.0612 49.7268 75.8795 50.142 77.1258 49.9552C78.3312 49.7683 78.6989 49.4569 78.5559 48.7511L78.4538 48.2113L77.8 48.6057C77.0441 49.0625 75.6343 49.1247 74.858 48.7095C73.387 47.9206 72.3859 46.0521 72.2224 43.7269C72.0386 41.1526 73.0192 38.8689 74.4902 38.4952C75.3892 38.2668 76.7989 38.599 77.4935 39.2011L78.1269 39.7408L77.9839 39.0142C77.7183 37.6025 77.8204 37.6648 75.8795 37.6232C74.4902 37.5817 73.9182 37.6648 73.2848 37.9762Z" fill="white"/>
<path d="M83.5458 37.8964L80.6855 37.9795L80.7468 43.9794L80.8081 50H83.9544C86.9782 50 87.1212 49.9792 87.1212 49.5848C87.1212 49.1903 86.9782 49.1696 84.7717 49.1696H82.4221V46.3669V43.5641H83.3824C83.9749 43.5641 84.4652 43.6887 84.7104 43.9171C85.1394 44.2908 85.1803 44.1247 84.9555 43.0036C84.833 42.4015 84.833 42.4015 83.6276 42.4846L82.4221 42.5676V40.6784V38.7891H84.0157C85.2416 38.7891 85.7319 38.8929 86.2835 39.2251L86.9782 39.6403L86.8352 39.1628C86.7739 38.8929 86.7126 38.4777 86.7126 38.2078C86.7126 37.9587 86.6513 37.7719 86.5696 37.7926C86.4674 37.8134 85.119 37.8757 83.5458 37.8964Z" fill="white"/>
<path d="M28.4197 38.4154C28.481 38.6853 28.5423 41.3842 28.5423 44.4361V50H29.3596H30.1768V44.4361C30.1768 41.3842 30.2381 38.6853 30.2994 38.4154C30.422 37.9795 30.3607 37.9587 29.3596 37.9587C28.3585 37.9587 28.2972 37.9795 28.4197 38.4154Z" fill="white"/>
<path d="M61.1745 38.4985C61.2971 38.7891 61.3788 41.4465 61.3788 44.5191C61.3788 49.8547 61.3993 50 61.7874 50C62.1756 50 62.1961 49.8547 62.2165 45.6817C62.2369 43.315 62.2982 41.1766 62.3595 40.9275C62.4821 40.5746 62.9929 41.5296 64.7499 45.2458C66.8543 49.7301 67.0177 50 67.5489 50H68.1005L68.1618 44.3323C68.2027 41.2389 68.3048 38.5192 68.407 38.3116C68.55 38.0002 68.4683 37.9587 67.7328 37.9587C66.9564 37.9587 66.8951 38.0002 67.0994 38.3532C67.365 38.8514 67.3854 46.8443 67.1199 46.5537C66.7725 46.18 63.4219 38.7684 63.4219 38.3739C63.4219 38.0002 63.2789 37.9587 62.1961 37.9587H60.9702L61.1745 38.4985Z" fill="white"/>
</svg>
