<svg width="120" height="32" viewBox="0 0 120 32" fill="none" xmlns="http://www.w3.org/2000/svg">
<g clip-path="url(#clip0_467_8025)">
<path d="M16.3273 18.4723C15.6134 19.2104 13.9075 21.3729 14.6648 25.2325C14.6648 25.2325 8.41001 20.5742 13.3686 14.4005C13.3686 14.4005 16.5321 10.636 14.6159 6.64355C14.6159 6.64355 22.0441 12.1162 16.6052 18.1516C16.52 18.2644 16.4272 18.3716 16.3273 18.4723Z" fill="white"/>
<path d="M79.7516 3.43511C79.7517 4.09319 79.5525 4.73653 79.179 5.28375C78.8055 5.83097 78.2746 6.25747 77.6534 6.50931C77.0322 6.76114 76.3486 6.82699 75.6892 6.69853C75.0298 6.57007 74.4241 6.25307 73.9487 5.78763C73.4734 5.32218 73.1498 4.72921 73.0189 4.08373C72.8879 3.43825 72.9555 2.76926 73.2131 2.1614C73.4707 1.55353 73.9068 1.0341 74.466 0.66881C75.0253 0.303524 75.6827 0.108797 76.3551 0.109263C77.256 0.109888 78.1198 0.46054 78.7566 1.08417C79.3935 1.70779 79.7514 2.55338 79.7516 3.43511ZM68.139 13.3498C67.2306 11.0214 63.635 9.32589 61.2079 9.32589C57.9151 9.32589 55.8823 10.5954 53.848 13.3498C52.9388 11.0214 49.3424 9.32589 46.9185 9.32589C43.6256 9.32589 41.5921 10.5954 40.2525 12.4631L40.1649 12.5873V11.5552C40.1647 11.3461 40.1224 11.1392 40.0405 10.9461C39.9586 10.7531 39.8386 10.5777 39.6874 10.4301C39.5363 10.2824 39.3568 10.1653 39.1595 10.0855C38.9621 10.0057 38.7505 9.96476 38.5369 9.96497H33.7093V31.2383H40.2051V18.4372C40.2926 15.3417 42.0692 13.5636 44.1043 13.5636C47.3096 13.5636 47.9594 16.1458 48.0019 18.4372V31.2383H54.4985V18.4372C54.5836 15.3417 56.3586 13.5636 58.3937 13.5636C61.6007 13.5636 62.2488 16.1458 62.2922 18.4372V29.6347V29.6418C62.2928 30.0641 62.4647 30.4689 62.7701 30.7672C63.0755 31.0655 63.4894 31.233 63.9209 31.2328H68.7887V18.4372C68.7887 16.7432 68.8289 14.962 68.139 13.3498ZM120 14.1987V9.96104H115.107V5.06856C115.107 4.64644 114.937 4.24148 114.632 3.94248C114.328 3.64349 113.915 3.47488 113.483 3.47363H108.612L108.616 24.6699C108.616 29.2873 109.697 31.8758 114.769 31.8758C115.673 31.8758 119.14 31.5779 119.875 31.2391V27.5076C119.184 27.5516 118.49 27.6357 117.795 27.6357C115.541 27.6357 115.111 26.8725 115.111 24.0764V14.1987H120ZM15.0275 31.875C25.3775 31.875 30.0526 24.9647 30.0526 15.9438C30.0526 6.90795 25.3791 0 15.0275 0C4.67587 0 0 6.90795 0 15.9438C0 24.9647 4.67667 31.875 15.0275 31.875ZM15.0275 4.74784C21.6542 4.74784 22.9079 10.6819 22.9079 15.9438C22.9079 21.1931 21.6542 27.1256 15.0275 27.1256C8.40082 27.1256 7.14792 21.1931 7.14792 15.9438C7.14792 10.6819 8.40323 4.74784 15.0275 4.74784ZM73.1072 9.96104V31.2383H79.6046V9.96104H73.1072ZM104.408 13.992C103.63 10.8972 99.4284 9.32904 97.26 9.32904C93.9671 9.32904 91.9335 10.5985 90.5939 12.5519L90.5072 12.6753V11.4648C90.4822 11.0588 90.2996 10.6774 89.9969 10.3988C89.6941 10.1201 89.294 9.96522 88.8784 9.96575H84.054V31.2383H90.5481V18.4372C90.6357 15.3417 92.4114 13.5636 94.4466 13.5636C97.6519 13.5636 98.3016 16.1458 98.3442 18.4372V29.6449C98.3444 30.0666 98.5155 30.4709 98.82 30.7691C99.1244 31.0674 99.5374 31.2353 99.9681 31.2359H104.841V17.3799C104.832 16.2379 104.687 15.1009 104.408 13.992Z" fill="white"/>
</g>
<defs>
<clipPath id="clip0_467_8025">
<rect width="120" height="31.875" fill="white"/>
</clipPath>
</defs>
</svg>
