<svg width="140" height="43" viewBox="0 0 140 43" fill="none" xmlns="http://www.w3.org/2000/svg">
<path d="M61.6346 5.18271H53.7437C53.361 5.17958 52.9815 5.25265 52.6273 5.39766C52.2731 5.54268 51.9513 5.75673 51.6807 6.02736C51.4101 6.29799 51.196 6.61977 51.051 6.97396C50.906 7.32815 50.8329 7.70765 50.836 8.09037V30.7518C50.8375 30.9589 50.9192 31.1573 51.0639 31.3054C51.2087 31.4534 51.4052 31.5395 51.6122 31.5456H55.8605C56.0656 31.5429 56.262 31.4619 56.4095 31.3193C56.557 31.1767 56.6446 30.9832 56.6543 30.7783V23.687H61.0643C66.9942 23.687 71.7512 20.5148 71.7512 14.3966V14.3231C71.7512 8.92238 67.9292 5.18271 61.6317 5.18271H61.6346ZM65.8565 14.5113C65.8565 16.7633 64.166 18.5273 61.2583 18.5273H56.6513V10.4335H61.1525C64.0601 10.4335 65.8741 11.83 65.8741 14.4349L65.8565 14.5113Z" fill="white"/>
<path d="M140.001 30.7374V7.69671C140.001 6.92556 139.695 6.18598 139.149 5.64069C138.604 5.0954 137.864 4.78906 137.093 4.78906C136.322 4.78906 135.582 5.0954 135.037 5.64069C134.492 6.18598 134.186 6.92556 134.186 7.69671V30.7404C134.187 30.9525 134.272 31.1554 134.423 31.3052C134.573 31.4549 134.776 31.5393 134.988 31.54H139.201C139.413 31.5385 139.616 31.4533 139.766 31.3031C139.916 31.1528 140 30.9495 140.001 30.7374Z" fill="white"/>
<path d="M97.8167 30.7609C97.8164 30.6707 97.8005 30.5812 97.7697 30.4963L87.4033 7.09108C86.7594 5.65636 85.6393 4.78906 84.0428 4.78906H83.7018C82.1142 4.78906 80.9441 5.65636 80.3032 7.09108L70.0426 30.2112C70.0014 30.2964 69.9662 30.3846 69.9309 30.4728C69.8932 30.5662 69.8742 30.6661 69.875 30.7668C69.875 30.9805 69.9599 31.1854 70.111 31.3364C70.262 31.4875 70.4669 31.5724 70.6806 31.5724H74.9142C75.0665 31.567 75.2141 31.5182 75.3397 31.4318C75.4652 31.3453 75.5634 31.2248 75.6227 31.0843L77.9747 25.7159H89.6053L91.9367 31.0902C91.9977 31.2313 92.0981 31.3518 92.2259 31.4374C92.3536 31.5229 92.5033 31.5698 92.657 31.5724H97.067C97.2742 31.564 97.4702 31.4758 97.6138 31.3262C97.7574 31.1765 97.8375 30.9771 97.8373 30.7698L97.8167 30.7609ZM80.115 20.5856L83.79 11.8509L87.4415 20.5856H80.115Z" fill="white"/>
<path d="M101.788 34.4717H100.947V42.7272H101.788V34.4717Z" fill="white"/>
<path d="M110.638 41.5042H110.661V34.4717H111.499V42.7272H110.45L105.646 35.6271H105.622V42.7272H104.781V34.4717H105.831L110.638 41.5042Z" fill="white"/>
<path d="M118.264 35.8036C118.083 35.5531 117.848 35.347 117.576 35.2009C117.262 35.0414 116.913 34.9635 116.562 34.9745C116.351 34.9762 116.143 35.0079 115.941 35.0686C115.735 35.1309 115.541 35.2306 115.371 35.3626C115.199 35.4912 115.058 35.6557 114.956 35.8448C114.848 36.0574 114.794 36.294 114.801 36.5327C114.792 36.7607 114.844 36.9868 114.951 37.1884C115.053 37.359 115.189 37.507 115.35 37.6235C115.527 37.7479 115.72 37.8469 115.924 37.9175C116.135 37.9968 116.359 38.0733 116.591 38.1527C116.885 38.2467 117.179 38.3467 117.455 38.4467C117.736 38.5511 118.001 38.6957 118.24 38.8759C118.477 39.0529 118.672 39.2798 118.811 39.5403C118.969 39.8564 119.045 40.2073 119.031 40.5605C119.043 40.9074 118.973 41.2523 118.826 41.5667C118.679 41.881 118.459 42.1559 118.185 42.3686C117.928 42.5662 117.635 42.712 117.323 42.7979C117.007 42.8911 116.679 42.9387 116.35 42.939C116.1 42.9383 115.851 42.9127 115.606 42.8625C115.36 42.8134 115.121 42.7375 114.892 42.6362C114.666 42.5352 114.455 42.4058 114.263 42.251C114.069 42.095 113.896 41.9152 113.748 41.7159L114.474 41.1779C114.661 41.4819 114.918 41.7361 115.224 41.9188C115.491 42.0718 115.787 42.1682 116.093 42.2021C116.399 42.236 116.708 42.2066 117.003 42.1158C117.215 42.0543 117.414 41.9547 117.591 41.8218C117.765 41.6845 117.912 41.5148 118.023 41.322C118.133 41.1031 118.19 40.8614 118.19 40.6164C118.19 40.3713 118.133 40.1297 118.023 39.9108C117.909 39.7208 117.755 39.5574 117.573 39.4316C117.374 39.297 117.159 39.1892 116.932 39.1111C116.688 39.0258 116.438 38.9406 116.174 38.8553C115.909 38.7701 115.633 38.6701 115.368 38.5613C115.11 38.4584 114.87 38.3155 114.657 38.138C114.445 37.9597 114.273 37.7395 114.151 37.4912C114.014 37.196 113.947 36.8728 113.957 36.5474C113.946 36.1893 114.029 35.8346 114.198 35.5184C114.35 35.2378 114.563 34.9947 114.821 34.807C115.078 34.6215 115.366 34.4831 115.671 34.3983C115.971 34.3167 116.28 34.2742 116.591 34.2719C117.086 34.2574 117.577 34.358 118.026 34.5659C118.376 34.7287 118.684 34.9701 118.925 35.2715L118.264 35.8036Z" fill="white"/>
<path d="M125.444 35.8035C125.264 35.5524 125.028 35.3461 124.756 35.2008C124.442 35.041 124.093 34.9631 123.741 34.9745C123.532 34.9763 123.324 35.008 123.124 35.0685C122.911 35.1288 122.712 35.2286 122.536 35.3625C122.353 35.498 122.206 35.6758 122.106 35.8805C122.007 36.0853 121.959 36.3111 121.966 36.5385C121.957 36.7669 122.009 36.9934 122.118 37.1942C122.219 37.3658 122.356 37.5141 122.518 37.6293C122.694 37.7531 122.886 37.8521 123.089 37.9233C123.3 38.0027 123.527 38.0791 123.756 38.1585C124.05 38.2526 124.344 38.3525 124.623 38.4525C124.904 38.5575 125.168 38.7021 125.408 38.8817C125.644 39.0597 125.838 39.2863 125.979 39.5462C126.137 39.8622 126.213 40.2131 126.199 40.5663C126.208 40.9359 126.127 41.302 125.964 41.6336C125.816 41.9216 125.607 42.1743 125.352 42.3744C125.096 42.5715 124.803 42.7172 124.491 42.8037C124.175 42.8968 123.847 42.9443 123.518 42.9448C123.267 42.9443 123.017 42.9187 122.771 42.8684C122.526 42.8196 122.288 42.7437 122.06 42.642C121.834 42.5417 121.622 42.4122 121.431 42.2568C121.237 42.1016 121.064 41.9217 120.916 41.7218L121.639 41.1837C121.827 41.4878 122.085 41.742 122.392 41.9246C122.657 42.0756 122.95 42.1709 123.254 42.2047C123.557 42.2386 123.864 42.2103 124.156 42.1216C124.369 42.0613 124.568 41.9616 124.744 41.8276C124.92 41.6919 125.067 41.5219 125.176 41.3278C125.286 41.1089 125.344 40.8672 125.344 40.6222C125.344 40.3771 125.286 40.1355 125.176 39.9166C125.064 39.7253 124.91 39.5616 124.726 39.4374C124.528 39.3022 124.312 39.1944 124.085 39.1169C123.844 39.0326 123.591 38.9474 123.327 38.8611C123.056 38.7759 122.789 38.6759 122.521 38.5671C122.265 38.4634 122.026 38.3206 121.813 38.1438C121.6 37.9657 121.427 37.7454 121.304 37.497C121.169 37.2011 121.104 36.8783 121.113 36.5532C121.103 36.1955 121.185 35.8413 121.351 35.5242C121.504 35.2442 121.717 35.0013 121.974 34.8128C122.232 34.6273 122.521 34.4889 122.827 34.4041C123.127 34.3223 123.436 34.2798 123.747 34.2777C124.242 34.2635 124.733 34.3641 125.182 34.5717C125.532 34.7352 125.839 34.9765 126.082 35.2773L125.444 35.8035Z" fill="white"/>
<path d="M128.134 41.0367C128.188 41.3508 128.341 41.6393 128.572 41.8599C128.693 41.9725 128.836 42.0599 128.991 42.1169C129.146 42.1739 129.312 42.1995 129.477 42.1921C129.723 42.2009 129.966 42.1473 130.186 42.0363C130.369 41.9341 130.524 41.7875 130.635 41.61C130.752 41.4231 130.831 41.2154 130.868 40.9985C130.912 40.7619 130.934 40.5217 130.932 40.2811V34.4717H131.773V40.3517C131.771 40.641 131.742 40.9294 131.685 41.2131C131.628 41.5107 131.515 41.795 131.353 42.051C131.182 42.3162 130.949 42.5353 130.674 42.689C130.334 42.8689 129.952 42.9551 129.568 42.9389C129.037 42.9568 128.517 42.7872 128.098 42.4596C127.718 42.1556 127.457 41.7264 127.363 41.2484L128.134 41.0367Z" fill="white"/>
<path d="M134.857 34.471H137.189C137.574 34.4663 137.959 34.5117 138.333 34.6063C138.65 34.6835 138.95 34.8224 139.215 35.0149C139.458 35.1935 139.653 35.4299 139.782 35.7029C139.92 36.0082 139.988 36.3409 139.979 36.676C139.987 37.0117 139.917 37.3447 139.776 37.6492C139.644 37.921 139.448 38.157 139.206 38.3371C138.94 38.5287 138.641 38.6693 138.324 38.7517C137.948 38.8494 137.562 38.8968 137.174 38.8928H135.704V42.7148H134.857V34.471ZM135.698 38.1813H137.121C137.651 38.2171 138.178 38.081 138.624 37.7932C138.795 37.664 138.932 37.4943 139.021 37.2994C139.111 37.1044 139.151 36.8903 139.138 36.676C139.154 36.4584 139.114 36.2403 139.02 36.0429C138.927 35.8456 138.784 35.6758 138.606 35.55C138.157 35.2881 137.64 35.1644 137.121 35.1943H135.698V38.1813Z" fill="white"/>
<path d="M101.788 34.4717H100.947V42.7272H101.788V34.4717Z" fill="white"/>
<path d="M110.638 41.5042H110.661V34.4717H111.499V42.7272H110.45L105.646 35.6271H105.622V42.7272H104.781V34.4717H105.831L110.638 41.5042Z" fill="white"/>
<path d="M118.264 35.8036C118.083 35.5531 117.848 35.347 117.576 35.2009C117.262 35.0414 116.913 34.9635 116.562 34.9745C116.351 34.9762 116.143 35.0079 115.941 35.0686C115.735 35.1309 115.541 35.2306 115.371 35.3626C115.199 35.4912 115.058 35.6557 114.956 35.8448C114.848 36.0574 114.794 36.294 114.801 36.5327C114.792 36.7607 114.844 36.9868 114.951 37.1884C115.053 37.359 115.189 37.507 115.35 37.6235C115.527 37.7479 115.72 37.8469 115.924 37.9175C116.135 37.9968 116.359 38.0733 116.591 38.1527C116.885 38.2467 117.179 38.3467 117.455 38.4467C117.736 38.5511 118.001 38.6957 118.24 38.8759C118.477 39.0529 118.672 39.2798 118.811 39.5403C118.969 39.8564 119.045 40.2073 119.031 40.5605C119.043 40.9074 118.973 41.2523 118.826 41.5667C118.679 41.881 118.459 42.1559 118.185 42.3686C117.928 42.5662 117.635 42.712 117.323 42.7979C117.007 42.8911 116.679 42.9387 116.35 42.939C116.1 42.9383 115.851 42.9127 115.606 42.8625C115.36 42.8134 115.121 42.7375 114.892 42.6362C114.666 42.5352 114.455 42.4058 114.263 42.251C114.069 42.095 113.896 41.9152 113.748 41.7159L114.474 41.1779C114.661 41.4819 114.918 41.7361 115.224 41.9188C115.491 42.0718 115.787 42.1682 116.093 42.2021C116.399 42.236 116.708 42.2066 117.003 42.1158C117.215 42.0543 117.414 41.9547 117.591 41.8218C117.765 41.6845 117.912 41.5148 118.023 41.322C118.133 41.1031 118.19 40.8614 118.19 40.6164C118.19 40.3713 118.133 40.1297 118.023 39.9108C117.909 39.7208 117.755 39.5574 117.573 39.4316C117.374 39.297 117.159 39.1892 116.932 39.1111C116.688 39.0258 116.438 38.9406 116.174 38.8553C115.909 38.7701 115.633 38.6701 115.368 38.5613C115.11 38.4584 114.87 38.3155 114.657 38.138C114.445 37.9597 114.273 37.7395 114.151 37.4912C114.014 37.196 113.947 36.8728 113.957 36.5474C113.946 36.1893 114.029 35.8346 114.198 35.5184C114.35 35.2378 114.563 34.9947 114.821 34.807C115.078 34.6215 115.366 34.4831 115.671 34.3983C115.971 34.3167 116.28 34.2742 116.591 34.2719C117.086 34.2574 117.577 34.358 118.026 34.5659C118.376 34.7287 118.684 34.9701 118.925 35.2715L118.264 35.8036Z" fill="white"/>
<path d="M125.444 35.8035C125.264 35.5524 125.028 35.3461 124.756 35.2008C124.442 35.041 124.093 34.9631 123.741 34.9745C123.532 34.9763 123.324 35.008 123.124 35.0685C122.911 35.1288 122.712 35.2286 122.536 35.3625C122.353 35.498 122.206 35.6758 122.106 35.8805C122.007 36.0853 121.959 36.3111 121.966 36.5385C121.957 36.7669 122.009 36.9934 122.118 37.1942C122.219 37.3658 122.356 37.5141 122.518 37.6293C122.694 37.7531 122.886 37.8521 123.089 37.9233C123.3 38.0027 123.527 38.0791 123.756 38.1585C124.05 38.2526 124.344 38.3525 124.623 38.4525C124.904 38.5575 125.168 38.7021 125.408 38.8817C125.644 39.0597 125.838 39.2863 125.979 39.5462C126.137 39.8622 126.213 40.2131 126.199 40.5663C126.208 40.9359 126.127 41.302 125.964 41.6336C125.816 41.9216 125.607 42.1743 125.352 42.3744C125.096 42.5715 124.803 42.7172 124.491 42.8037C124.175 42.8968 123.847 42.9443 123.518 42.9448C123.267 42.9443 123.017 42.9187 122.771 42.8684C122.526 42.8196 122.288 42.7437 122.06 42.642C121.834 42.5417 121.622 42.4122 121.431 42.2568C121.237 42.1016 121.064 41.9217 120.916 41.7218L121.639 41.1837C121.827 41.4878 122.085 41.742 122.392 41.9246C122.657 42.0756 122.95 42.1709 123.254 42.2047C123.557 42.2386 123.864 42.2103 124.156 42.1216C124.369 42.0613 124.568 41.9616 124.744 41.8276C124.92 41.6919 125.067 41.5219 125.176 41.3278C125.286 41.1089 125.344 40.8672 125.344 40.6222C125.344 40.3771 125.286 40.1355 125.176 39.9166C125.064 39.7253 124.91 39.5616 124.726 39.4374C124.528 39.3022 124.312 39.1944 124.085 39.1169C123.844 39.0326 123.591 38.9474 123.327 38.8611C123.056 38.7759 122.789 38.6759 122.521 38.5671C122.265 38.4634 122.026 38.3206 121.813 38.1438C121.6 37.9657 121.427 37.7454 121.304 37.497C121.169 37.2011 121.104 36.8783 121.113 36.5532C121.103 36.1955 121.185 35.8413 121.351 35.5242C121.504 35.2442 121.717 35.0013 121.974 34.8128C122.232 34.6273 122.521 34.4889 122.827 34.4041C123.127 34.3223 123.436 34.2798 123.747 34.2777C124.242 34.2635 124.733 34.3641 125.182 34.5717C125.532 34.7352 125.839 34.9765 126.082 35.2773L125.444 35.8035Z" fill="white"/>
<path d="M128.134 41.0367C128.188 41.3508 128.341 41.6393 128.572 41.8599C128.693 41.9725 128.836 42.0599 128.991 42.1169C129.146 42.1739 129.312 42.1995 129.477 42.1921C129.723 42.2009 129.966 42.1473 130.186 42.0363C130.369 41.9341 130.524 41.7875 130.635 41.61C130.752 41.4231 130.831 41.2154 130.868 40.9985C130.912 40.7619 130.934 40.5217 130.932 40.2811V34.4717H131.773V40.3517C131.771 40.641 131.742 40.9294 131.685 41.2131C131.628 41.5107 131.515 41.795 131.353 42.051C131.182 42.3162 130.949 42.5353 130.674 42.689C130.334 42.8689 129.952 42.9551 129.568 42.9389C129.037 42.9568 128.517 42.7872 128.098 42.4596C127.718 42.1556 127.457 41.7264 127.363 41.2484L128.134 41.0367Z" fill="white"/>
<path d="M134.857 34.471H137.189C137.574 34.4663 137.959 34.5117 138.333 34.6063C138.65 34.6835 138.95 34.8224 139.215 35.0149C139.458 35.1935 139.653 35.4299 139.782 35.7029C139.92 36.0082 139.988 36.3409 139.979 36.676C139.987 37.0117 139.917 37.3447 139.776 37.6492C139.644 37.921 139.448 38.157 139.206 38.3371C138.94 38.5287 138.641 38.6693 138.324 38.7517C137.948 38.8494 137.562 38.8968 137.174 38.8928H135.704V42.7148H134.857V34.471ZM135.698 38.1813H137.121C137.651 38.2171 138.178 38.081 138.624 37.7932C138.795 37.664 138.932 37.4943 139.021 37.2994C139.111 37.1044 139.151 36.8903 139.138 36.676C139.154 36.4584 139.114 36.2403 139.02 36.0429C138.927 35.8456 138.784 35.6758 138.606 35.55C138.157 35.2881 137.64 35.1644 137.121 35.1943H135.698V38.1813Z" fill="white"/>
<path d="M129.036 30.7762V7.71781C129.041 7.3303 128.969 6.94569 128.823 6.58667C128.677 6.22765 128.461 5.9015 128.187 5.62747C127.913 5.35343 127.586 5.13707 127.227 4.99114C126.868 4.84521 126.484 4.77267 126.096 4.77781H125.449C124.919 4.756 124.393 4.88188 123.93 5.14143C123.467 5.40097 123.085 5.784 122.827 6.24781L115.027 17.8343L107.183 6.30955C106.916 5.84077 106.528 5.45236 106.06 5.18497C105.591 4.91757 105.059 4.78101 104.52 4.78957H103.876C103.488 4.78443 103.104 4.85697 102.745 5.0029C102.386 5.14883 102.059 5.36519 101.785 5.63923C101.511 5.91326 101.295 6.23941 101.149 6.59843C101.003 6.95745 100.931 7.34206 100.936 7.72957V30.7585C100.935 30.9628 101.012 31.1597 101.152 31.3093C101.291 31.4588 101.482 31.5499 101.685 31.5641H105.91C106.112 31.554 106.302 31.4691 106.444 31.3261C106.586 31.1831 106.669 30.9922 106.678 30.7909V15.7028L112.505 23.4997C113.113 24.4111 113.875 24.9697 114.939 24.9697C116.003 24.9697 116.765 24.3993 117.373 23.4997L123.218 15.5882V30.7527C123.218 30.9671 123.303 31.1727 123.455 31.3243C123.606 31.476 123.812 31.5611 124.027 31.5611H128.234C128.443 31.5612 128.644 31.4795 128.794 31.3334C128.944 31.1873 129.031 30.9884 129.036 30.7791" fill="white"/>
<path d="M12.2012 18.1635C12.2029 19.3394 12.5532 20.4885 13.2078 21.4654C13.8624 22.4423 14.7919 23.2032 15.8788 23.6521C16.9658 24.1009 18.1614 24.2174 19.3145 23.9869C20.4676 23.7564 21.5266 23.1893 22.3575 22.3571C23.1884 21.525 23.754 20.4652 23.9827 19.3117C24.2115 18.1582 24.0932 16.9628 23.6428 15.8766C23.1924 14.7903 22.4301 13.8619 21.4522 13.2088C20.4743 12.5556 19.3247 12.207 18.1488 12.207C17.3669 12.2066 16.5926 12.3605 15.8702 12.6598C15.1479 12.9591 14.4917 13.398 13.9392 13.9513C13.3867 14.5046 12.9488 15.1615 12.6506 15.8842C12.3524 16.607 12.1996 17.3816 12.2012 18.1635Z" fill="white"/>
<path d="M18.1476 36.3025C13.84 36.3023 9.67276 34.7704 6.39065 31.9805C3.10853 29.1907 0.925359 25.3247 0.231257 21.0734C0.231257 21.0734 -0.356741 18.4097 2.51563 17.8394C5.7702 17.3043 6.25236 20.4854 6.25236 20.4854C6.79441 23.2414 8.2768 25.7237 10.4462 27.508C12.6155 29.2923 15.3372 30.2677 18.1461 30.2677C20.955 30.2677 23.6767 29.2923 25.846 27.508C28.0154 25.7237 29.4978 23.2414 30.0398 20.4854C30.0398 20.4854 30.522 17.2925 33.7766 17.8394C36.646 18.4274 36.0609 21.0734 36.0609 21.0734C35.3675 25.3244 33.1849 29.1904 29.9033 31.9803C26.6216 34.7702 22.4548 36.3022 18.1476 36.3025Z" fill="white"/>
<path d="M2.35199 17.0226H2.3814C2.66303 16.9738 2.94818 16.9483 3.23399 16.9461C3.76282 16.9321 4.28825 17.0347 4.77297 17.2466C5.2577 17.4585 5.68985 17.7744 6.03875 18.1721V18.1545C6.01371 16.5473 6.30863 14.9513 6.90634 13.4592C7.50405 11.9671 8.3926 10.6089 9.52027 9.46352C10.6479 8.31815 11.9922 7.40855 13.4748 6.78767C14.9573 6.1668 16.5486 5.84705 18.1559 5.84705C19.7633 5.84705 21.3545 6.1668 22.8371 6.78767C24.3197 7.40855 25.6639 8.31815 26.7916 9.46352C27.9193 10.6089 28.8078 11.9671 29.4055 13.4592C30.0032 14.9513 30.2981 16.5473 30.2731 18.1545V18.1721C30.6227 17.7745 31.0554 17.4586 31.5406 17.2468C32.0258 17.0349 32.5516 16.9323 33.0808 16.9461C33.3625 16.9471 33.6437 16.9707 33.9216 17.0167H33.951C34.8867 17.1628 35.7296 17.6654 36.303 18.4191C36.303 18.3279 36.303 18.2368 36.303 18.1486C36.3023 13.3345 34.3891 8.71789 30.9845 5.31438C27.5799 1.91086 22.9627 -0.000779496 18.1486 2.3844e-07C13.3345 0.000779973 8.7179 1.91391 5.31438 5.31853C1.91086 8.72315 -0.000779496 13.3404 2.3844e-07 18.1545C2.3844e-07 18.2427 2.3844e-07 18.3338 2.3844e-07 18.4249C0.57344 17.6712 1.41629 17.1687 2.35199 17.0226Z" fill="white"/>
</svg>
