<svg width="150" height="35" viewBox="0 0 150 35" fill="none" xmlns="http://www.w3.org/2000/svg">
<path d="M23.2061 4.44877L23.1392 4.4697C21.8345 4.88708 20.6386 5.58818 19.6373 6.52263C20.2259 7.06961 20.741 7.69076 21.1695 8.37047C21.855 9.45127 22.3153 10.6593 22.5228 11.9221C22.7304 13.185 22.6808 14.4767 22.3772 15.72C22.2427 16.2631 22.062 16.7938 21.8372 17.3063C20.9215 19.3973 19.2735 21.0821 17.2029 22.0441C16.5971 22.3181 16.1109 22.802 15.834 23.4064C15.6163 23.8879 15.5435 24.4224 15.6247 24.9446C15.6445 25.077 15.6739 25.2077 15.7126 25.3359L15.7314 25.3945L15.7314 25.4133C16.0537 26.4394 15.9587 27.551 15.467 28.5075C14.9753 29.464 14.1265 30.1884 13.1045 30.5237C12.595 30.6885 12.0572 30.7476 11.5241 30.6974C10.4812 30.5965 9.5183 30.0946 8.83859 29.2974C8.48507 28.8817 8.21883 28.3992 8.05574 27.8785L8.05574 27.8576L4.51409 16.5571C4.50363 16.5173 4.49107 16.4755 4.47851 16.4378L4.45548 16.3687C4.45548 16.3478 4.44083 16.3248 4.43455 16.3018C2.87932 11.3463 5.60464 6.04759 10.5048 4.46761C12.3136 3.88332 14.2594 3.87601 16.0726 4.44668C17.0857 3.30338 18.2898 2.34464 19.631 1.61318C18.8805 1.20545 18.0926 0.870487 17.2783 0.612875C16.4354 0.346985 15.568 0.166113 14.689 0.0729615C13.7962 -0.0191122 12.8963 -0.0191122 12.0035 0.0729615C11.0838 0.162997 10.176 0.348861 9.2949 0.627524C2.29951 2.87298 -1.59798 10.4632 0.624975 17.5302L0.660559 17.6348C0.664892 17.6547 0.670485 17.6742 0.677304 17.6934L4.24617 29.0881L4.26082 29.1341C4.52693 29.9658 4.92481 30.7493 5.43927 31.4549C6.43501 32.8144 7.83164 33.828 9.43305 34.3533C10.6973 34.7661 12.0448 34.8554 13.3525 34.613C14.6601 34.3706 15.8861 33.8043 16.9182 32.9658C18.0518 32.0462 18.9205 30.8419 19.4354 29.4762C19.9503 28.1105 20.093 26.6325 19.8487 25.1936C21.1875 24.444 22.3847 23.4659 23.3861 22.3036C25.3705 19.9907 26.5158 17.0759 26.6368 14.0312C26.7385 11.4789 26.1221 8.94933 24.8576 6.7298C24.3911 5.91367 23.8396 5.14908 23.2124 4.44877" fill="white"/>
<path d="M38.6598 9.39233C38.3866 8.52119 38.0261 7.67985 37.5839 6.8811C36.7297 5.34272 35.581 3.98743 34.2034 2.89243C33.5276 2.35815 32.803 1.8887 32.0391 1.49033C31.2836 1.09884 30.4922 0.780691 29.6759 0.540251C28.8565 0.297339 28.0152 0.135426 27.1641 0.0568404C26.2984 -0.0247914 25.4267 -0.0184811 24.5623 0.0756746C23.6702 0.169088 22.7899 0.353507 21.9353 0.626052C14.9316 2.86941 11.0508 10.4617 13.2612 17.5266C13.2738 17.5643 13.2864 17.5999 13.2947 17.6312L13.3136 17.6898L15.6956 25.2486L15.6956 25.2172L15.6789 25.1356C15.6642 25.0708 15.6516 25.0059 15.6412 24.9389C15.6025 24.6931 15.5983 24.443 15.6286 24.196C15.6649 23.8914 15.7519 23.595 15.8861 23.3192C16.1698 22.7535 16.639 22.3022 17.2152 22.0405C17.6317 21.8449 18.0333 21.619 18.4167 21.3646L18.626 21.2265L17.1608 16.564C17.1504 16.5242 17.1378 16.4824 17.1252 16.4447L17.1022 16.3756C17.1022 16.3547 17.0876 16.3317 17.0813 16.3087C15.5261 11.3532 18.2514 6.05449 23.1515 4.47451C23.7492 4.282 24.365 4.15088 24.9893 4.08317C25.5944 4.01831 26.2044 4.0141 26.8103 4.07062C28.0037 4.18276 29.1643 4.52381 30.2285 5.07511C30.7638 5.35402 31.2712 5.68337 31.744 6.05867C32.7052 6.82555 33.5061 7.77414 34.1009 8.85032C34.4103 9.41103 34.6627 10.0013 34.8544 10.6124C35.3722 12.2658 35.4287 14.0291 35.0177 15.7122C34.8831 16.2554 34.7025 16.7861 34.4776 17.2985C33.5618 19.3904 31.9119 21.0749 29.8392 22.0343C29.2348 22.3131 28.7505 22.7994 28.4744 23.405C28.2004 24.0121 28.1587 24.6986 28.3572 25.3344L28.376 25.393L28.376 25.4119C28.6983 26.4379 28.6033 27.5495 28.1116 28.506C27.6199 29.4625 26.7712 30.1869 25.7491 30.5222C25.2396 30.687 24.7019 30.7461 24.1688 30.6959C23.1218 30.5972 22.1546 30.0942 21.4728 29.2938C21.1192 28.8782 20.853 28.3956 20.6899 27.875L19.8526 25.1921C20.0456 26.3201 20.0002 27.476 19.7194 28.5854C19.4386 29.6947 18.9285 30.733 18.2221 31.6334C18.5966 32.1178 19.0258 32.5573 19.501 32.9434C19.9715 33.3251 20.4834 33.653 21.0269 33.9207C22.392 34.5941 23.9217 34.8617 25.4343 34.6918C26.947 34.522 28.3792 33.9217 29.5608 32.9623C30.6931 32.0421 31.561 30.838 32.0759 29.473C32.5907 28.1079 32.734 26.6307 32.4912 25.1921C33.8288 24.4417 35.0246 23.4629 36.0245 22.3C38.0088 19.9872 39.1542 17.0724 39.2752 14.0276C39.3384 12.4586 39.1302 10.8905 38.6598 9.39233Z" fill="white"/>
<path d="M79.934 13.4269C79.5051 12.4183 78.8869 11.5012 78.1129 10.7252C77.7274 10.3416 77.3069 9.9948 76.857 9.68932C76.4012 9.38189 75.9168 9.11908 75.4106 8.90456C74.1078 8.3526 72.6876 8.13526 71.2794 8.27232C69.8711 8.40939 68.5195 8.89651 67.3477 9.68932C66.4384 10.3004 65.6565 11.0822 65.0452 11.9913C64.0955 13.3943 63.5879 15.0496 63.5879 16.7438C63.5879 18.4379 64.0955 20.0932 65.0452 21.4963C65.6565 22.4053 66.4384 23.1871 67.3477 23.7982C68.5208 24.588 69.8722 25.0734 71.2798 25.2104C72.6875 25.3474 74.1071 25.1318 75.4106 24.583C75.9168 24.3685 76.4012 24.1057 76.857 23.7982L76.8695 23.7982C76.959 24.2661 77.2225 24.6826 77.6069 24.964C77.9913 25.2454 78.4681 25.3708 78.9413 25.3148C79.4144 25.2588 79.8487 25.0257 80.1568 24.6624C80.4649 24.299 80.6239 23.8325 80.6017 23.3567L80.6017 16.7396C80.6046 15.6017 80.3775 14.4749 79.934 13.4269ZM75.4378 20.0712C74.6661 20.8456 73.6496 21.3285 72.5616 21.4375C71.4735 21.5464 70.3814 21.2746 69.4714 20.6685C68.5614 20.0623 67.8899 19.1594 67.5714 18.1136C67.2529 17.0678 67.3071 15.9439 67.7248 14.9336C68.1424 13.9233 68.8977 13.0891 69.8618 12.5733C70.8259 12.0575 71.9391 11.8921 73.0116 12.1051C74.0841 12.3182 75.0495 12.8966 75.7431 13.7418C76.4367 14.5869 76.8155 15.6464 76.8151 16.7396C76.8126 17.9858 76.3158 19.1802 75.4336 20.0607L75.4378 20.0712Z" fill="white"/>
<path d="M60.7402 11.9833C60.1289 11.0742 59.347 10.2924 58.4377 9.6813C56.8022 8.57715 54.8333 8.07663 52.869 8.26565C50.9046 8.45467 49.0673 9.32145 47.6725 10.7172C46.8966 11.4916 46.2782 12.4091 45.8515 13.4188C45.411 14.459 45.1832 15.5769 45.1816 16.7065L45.1816 28.9926C45.1816 29.4922 45.3801 29.9712 45.7334 30.3244C46.0867 30.6776 46.5659 30.8761 47.0655 30.8761C47.5651 30.8761 48.0443 30.6776 48.3976 30.3244C48.7509 29.9712 48.9494 29.4922 48.9494 28.9926L48.9494 23.807C49.3926 24.1049 49.8637 24.3593 50.356 24.5666C51.6587 25.1186 53.0789 25.3359 54.4872 25.1988C55.8955 25.0618 57.247 24.5747 58.4189 23.7818C59.3281 23.1707 60.1101 22.3889 60.7214 21.4799C61.6711 20.0768 62.1787 18.4215 62.1787 16.7274C62.1787 15.0332 61.6711 13.3779 60.7214 11.9749L60.7402 11.9833ZM58.04 18.571C57.5525 19.7233 56.6275 20.6349 55.4681 21.1058C54.3088 21.5767 53.0099 21.5682 51.8568 21.0823C50.728 20.5794 49.8415 19.654 49.3877 18.5048C48.9339 17.3557 48.9489 16.0744 49.4296 14.9362C49.9103 13.798 50.8183 12.8937 51.9586 12.4175C53.0989 11.9413 54.3805 11.9311 55.5282 12.3892C56.6792 12.8784 57.5896 13.8034 58.0603 14.9618C58.5311 16.1203 58.5237 17.418 58.04 18.571Z" fill="white"/>
<path d="M150 16.7402C150.002 15.6035 149.774 14.4782 149.33 13.4317C148.688 11.9146 147.619 10.6164 146.253 9.69412C144.85 8.7447 143.194 8.2373 141.499 8.2373C139.804 8.2373 138.148 8.7447 136.744 9.69412C135.835 10.3052 135.053 11.087 134.442 11.9961C133.492 13.3991 132.984 15.0544 132.984 16.7486C132.984 18.4427 133.492 20.098 134.442 21.5011C135.053 22.4101 135.835 23.1919 136.744 23.803C138.148 24.7516 139.804 25.2585 141.499 25.2585C143.193 25.2585 144.849 24.7516 146.253 23.803L146.268 23.803C146.349 24.1421 146.522 24.4522 146.768 24.6987C147.031 24.9672 147.369 25.151 147.737 25.2262C148.105 25.3015 148.488 25.2649 148.835 25.1211C149.183 24.9773 149.479 24.7329 149.686 24.4193C149.893 24.1057 150.002 23.7373 149.998 23.3615L149.998 16.7402L150 16.7402ZM144.845 20.0718C144.407 20.5103 143.887 20.8583 143.315 21.0957C142.743 21.3331 142.129 21.4553 141.509 21.4553C140.89 21.4553 140.276 21.3331 139.704 21.0957C139.131 20.8583 138.611 20.5103 138.174 20.0718C137.681 19.5796 137.304 18.9846 137.069 18.3294C136.834 17.6742 136.746 16.9751 136.813 16.2822C136.88 15.5893 137.1 14.9198 137.456 14.3218C137.813 13.7238 138.297 13.212 138.874 12.8232C139.452 12.4344 140.108 12.1783 140.797 12.0731C141.485 11.968 142.188 12.0164 142.855 12.215C143.523 12.4136 144.138 12.7574 144.657 13.2217C145.175 13.6861 145.585 14.2595 145.856 14.9007C146.099 15.4831 146.222 16.109 146.216 16.7402C146.216 17.3658 146.09 17.9849 145.845 18.5608C145.613 19.1243 145.273 19.6374 144.845 20.0718Z" fill="white"/>
<path d="M130.138 11.9836C129.359 10.8303 128.309 9.88575 127.081 9.23276C125.852 8.57976 124.481 8.23828 123.089 8.23828C121.698 8.23828 120.327 8.57976 119.098 9.23276C117.869 9.88575 116.819 10.8303 116.041 11.9836C115.733 12.4378 115.47 12.9215 115.258 13.4275C114.816 14.4674 114.588 15.5854 114.588 16.7151L114.588 29.0013C114.588 29.5008 114.786 29.9799 115.14 30.3331C115.493 30.6863 115.972 30.8847 116.472 30.8847C116.971 30.8847 117.451 30.6863 117.804 30.3331C118.157 29.9799 118.356 29.5008 118.356 29.0013L118.356 23.8072C119.527 24.5867 120.873 25.0641 122.274 25.1967C123.674 25.3292 125.086 25.1128 126.383 24.5669C128.421 23.7042 130.042 22.0822 130.904 20.0446C131.346 18.9975 131.574 17.8725 131.574 16.7361C131.574 15.5996 131.346 14.4746 130.904 13.4275C130.695 12.9229 130.439 12.4394 130.138 11.9836ZM127.436 18.5713C127.012 19.5734 126.255 20.3983 125.293 20.906C124.33 21.4137 123.222 21.573 122.155 21.357C121.089 21.1409 120.13 20.5628 119.441 19.7206C118.752 18.8784 118.376 17.824 118.376 16.7361C118.376 15.6481 118.752 14.5937 119.441 13.7515C120.13 12.9093 121.089 12.3312 122.155 12.1151C123.222 11.8991 124.33 12.0584 125.293 12.5661C126.255 13.0738 127.012 13.8987 127.436 14.9008C127.68 15.4817 127.806 16.1057 127.806 16.7361C127.806 17.3664 127.68 17.9904 127.436 18.5713Z" fill="white"/>
<path d="M86.2744 23.3253C86.2763 23.5738 86.229 23.8203 86.1352 24.0505C86.0414 24.2807 85.903 24.4901 85.7279 24.6665C85.5527 24.843 85.3444 24.983 85.1149 25.0786C84.8854 25.1742 84.6392 25.2234 84.3906 25.2233C83.8898 25.2234 83.4093 25.0253 83.054 24.6725C82.6987 24.3196 82.4975 23.8406 82.4941 23.3399L82.4941 16.7145C82.4957 15.5849 82.7235 14.4671 83.164 13.4269C83.8055 11.9104 84.8728 10.6122 86.2367 9.68932C87.6408 8.74012 89.2975 8.23418 90.9924 8.237C92.6868 8.23331 94.3431 8.73935 95.746 9.68932C96.4465 10.1596 97.0718 10.7333 97.6006 11.3907C97.7884 11.1586 97.9882 10.9365 98.1992 10.7252C98.5847 10.3416 99.0052 9.9948 99.4551 9.68932C99.9069 9.38259 100.387 9.11981 100.889 8.90456C102.192 8.3526 103.612 8.13526 105.02 8.27232C106.428 8.40939 107.78 8.89651 108.952 9.68932C109.861 10.3004 110.643 11.0822 111.254 11.9913C112.201 13.3879 112.707 15.036 112.707 16.7228L112.707 16.7396L112.707 23.3316C112.707 23.8333 112.508 24.3145 112.153 24.6693C111.798 25.024 111.317 25.2233 110.815 25.2233C110.313 25.2233 109.832 25.024 109.477 24.6693C109.122 24.3145 108.923 23.8333 108.923 23.3316L108.923 16.7396C108.923 15.4886 108.425 14.2888 107.541 13.4042C106.656 12.5196 105.456 12.0227 104.205 12.0227C102.953 12.0227 101.753 12.5196 100.868 13.4042C99.9836 14.2888 99.4865 15.4886 99.4865 16.7396L99.4865 23.3316C99.4865 23.8333 99.2872 24.3145 98.9323 24.6693C98.5774 25.024 98.0962 25.2233 97.5943 25.2233C97.0925 25.2233 96.6112 25.024 96.2563 24.6693C95.9014 24.3145 95.7021 23.8333 95.7021 23.3316L95.7021 16.7396C95.7153 16.1119 95.6031 15.488 95.372 14.9042C95.1409 14.3205 94.7955 13.7888 94.3562 13.3402C93.9169 12.8916 93.3924 12.5352 92.8135 12.2919C92.2347 12.0486 91.613 11.9233 90.9851 11.9233C90.3572 11.9233 89.7355 12.0486 89.1567 12.2919C88.5778 12.5352 88.0533 12.8916 87.614 13.3402C87.1747 13.7888 86.8294 14.3205 86.5982 14.9042C86.3671 15.488 86.2549 16.1119 86.2681 16.7396L86.2744 23.3253Z" fill="white"/>
<path d="M148.463 9.69953C148.46 9.69986 148.457 9.69955 148.454 9.69862C148.451 9.69769 148.449 9.69616 148.447 9.69414C148.445 9.69213 148.443 9.68968 148.443 9.68699C148.442 9.6843 148.441 9.68143 148.442 9.6786L148.442 8.39369C148.442 8.39196 148.442 8.39016 148.442 8.38845C148.441 8.38674 148.44 8.38519 148.439 8.38393C148.438 8.38267 148.436 8.38176 148.434 8.38127C148.433 8.38078 148.431 8.38073 148.429 8.38114L148.195 8.38114C148.192 8.38115 148.189 8.38055 148.186 8.37937C148.184 8.37819 148.181 8.37646 148.179 8.37429C148.177 8.37211 148.176 8.36955 148.175 8.36677C148.174 8.36398 148.174 8.36103 148.174 8.35812L148.174 8.23883C148.174 8.236 148.174 8.23313 148.175 8.23044C148.176 8.22775 148.177 8.2253 148.179 8.22329C148.181 8.22128 148.184 8.21974 148.186 8.21881C148.189 8.21788 148.192 8.21757 148.195 8.21791L148.885 8.21791C148.888 8.21761 148.891 8.21794 148.894 8.21886C148.896 8.21977 148.899 8.22127 148.901 8.22324C148.903 8.22522 148.905 8.22762 148.906 8.23031C148.907 8.23299 148.908 8.2359 148.908 8.23883L148.908 8.36858C148.908 8.37168 148.908 8.37482 148.907 8.37776C148.906 8.38071 148.904 8.38338 148.902 8.38559C148.9 8.38779 148.897 8.38948 148.894 8.39052C148.891 8.39156 148.888 8.39193 148.885 8.3916L148.642 8.3916C148.632 8.3916 148.628 8.3916 148.628 8.40415L148.628 9.68906C148.628 9.69189 148.628 9.69476 148.627 9.69745C148.626 9.70015 148.624 9.70259 148.622 9.70461C148.62 9.70662 148.618 9.70815 148.615 9.70909C148.613 9.71002 148.61 9.71033 148.607 9.70999L148.463 9.69953Z" fill="white"/>
<path d="M149.063 8.23893C149.062 8.2361 149.063 8.23323 149.064 8.23054C149.064 8.22785 149.066 8.2254 149.068 8.22339C149.07 8.22138 149.072 8.21984 149.075 8.21891C149.078 8.21798 149.081 8.21767 149.084 8.21801L149.217 8.21801C149.236 8.21801 149.245 8.21801 149.249 8.23893L149.519 9.14507L149.782 8.23893C149.784 8.23214 149.789 8.22635 149.795 8.22255C149.801 8.21874 149.808 8.21713 149.816 8.21801L149.949 8.21801C149.952 8.21767 149.955 8.21798 149.958 8.21891C149.96 8.21984 149.963 8.22138 149.965 8.22339C149.967 8.2254 149.968 8.22785 149.969 8.23054C149.97 8.23323 149.971 8.2361 149.97 8.23893L149.97 9.6787C149.971 9.68153 149.97 9.6844 149.969 9.68709C149.968 9.68978 149.967 9.69223 149.965 9.69424C149.963 9.69626 149.96 9.69779 149.958 9.69872C149.955 9.69966 149.952 9.69997 149.949 9.69963L149.83 9.69963C149.827 9.69997 149.824 9.69966 149.822 9.69872C149.819 9.69779 149.817 9.69626 149.815 9.69424C149.813 9.69223 149.811 9.68978 149.81 9.68709C149.809 9.6844 149.809 9.68153 149.809 9.6787L149.809 8.65119L149.581 9.41502C149.58 9.42076 149.577 9.42591 149.572 9.42968C149.568 9.43345 149.562 9.43565 149.556 9.43595L149.485 9.43595C149.481 9.43765 149.477 9.43844 149.473 9.43824C149.469 9.43804 149.465 9.43686 149.462 9.4348C149.458 9.43274 149.455 9.42987 149.453 9.42642C149.451 9.42298 149.45 9.41907 149.45 9.41502L149.24 8.65119L149.23 8.65119L149.23 9.6787C149.23 9.68164 149.229 9.68454 149.228 9.68723C149.227 9.68991 149.225 9.69232 149.223 9.69429C149.221 9.69627 149.218 9.69776 149.216 9.69868C149.213 9.6996 149.21 9.69992 149.207 9.69963L149.09 9.69963C149.087 9.69997 149.084 9.69966 149.081 9.69872C149.079 9.69779 149.076 9.69626 149.074 9.69424C149.072 9.69223 149.071 9.68978 149.07 9.68709C149.069 9.6844 149.069 9.68153 149.069 9.6787L149.063 8.23893Z" fill="white"/>
</svg>
