<svg width="130" height="53" viewBox="0 0 130 53" fill="none" xmlns="http://www.w3.org/2000/svg">
<path d="M95.5457 0.573077C99.4782 11.1883 99.0271 22.971 94.2925 33.2407C94.2223 33.4181 94.4446 33.5769 94.6851 33.4154C102.264 28.3613 108.876 18.6688 111.055 10.7501C105.631 7.96492 100.634 4.39211 96.2191 0.14418C96.08 -0.0252605 95.8317 -0.0490875 95.6653 0.0925542C95.5275 0.210368 95.4846 0.406283 95.5613 0.571753" fill="white"/>
<path d="M129.701 16.9106C123.4 15.89 117.303 13.7945 113.316 11.8711C111.013 18.0226 106.561 24.6268 101.895 29.1606C101.643 29.3804 101.85 29.7722 102.263 29.4664C110.532 23.6869 119.868 19.6812 129.701 17.6863C129.911 17.6188 130.03 17.3911 129.963 17.1767C129.924 17.0509 129.826 16.9517 129.701 16.9106Z" fill="white"/>
<path d="M5.82984 44.0395C3.67183 43.285 3.03613 42.9276 3.03613 41.9864C3.03613 41.1326 3.93573 40.4919 5.15513 40.4919C6.42914 40.5276 7.67844 40.8837 8.78865 41.5244C8.81205 41.5376 8.83675 41.5456 8.86405 41.5456C8.89135 41.5456 8.91865 41.5376 8.94205 41.5244C8.98755 41.4979 9.02005 41.4529 9.02655 41.4013L9.38015 39.1099C9.38795 39.0384 9.35025 38.9709 9.28655 38.9391C8.00734 38.3765 6.62674 38.0879 5.23313 38.0959C2.42512 38.0959 0.466017 39.822 0.466017 42.2908C0.466017 44.5584 1.96622 45.5062 4.90943 46.5679C6.86204 47.247 7.51074 47.6494 7.51074 48.7057C7.51074 49.7647 6.51624 50.4452 4.98743 50.4452C3.45343 50.3697 1.95452 49.9527 0.597318 49.222C0.573918 49.2101 0.547917 49.2008 0.520617 49.1995C0.493317 49.1995 0.466017 49.2074 0.442617 49.222C0.397117 49.2472 0.364617 49.2908 0.352917 49.3411L0.00191536 51.577C-0.00978467 51.6524 0.0331156 51.7252 0.103316 51.7517C1.61002 52.4149 3.22853 52.7723 4.86913 52.8001C7.98134 52.8001 10.073 51.0303 10.073 48.3867C10.073 46 8.57284 45.0257 5.82074 44.0395" fill="white"/>
<path d="M24.1549 38.302H21.6745C21.5861 38.302 21.5146 38.3748 21.5146 38.4635V46.9646C21.5146 49.2415 20.4642 50.4448 18.4804 50.4448C16.5434 50.4448 15.48 49.1898 15.48 46.909V38.4515C15.4761 38.3642 15.4072 38.2927 15.3214 38.29H12.8839C12.7968 38.29 12.724 38.3615 12.7227 38.4515V47.007C12.7227 50.6738 14.8677 52.8818 18.4661 52.8818C22.1295 52.8818 24.32 50.6433 24.32 46.8944V38.4515C24.3174 38.3615 24.2433 38.29 24.1549 38.29" fill="white"/>
<path d="M32.3863 44.8554H30.8146V40.7147H32.4435C33.6434 40.7147 35.0422 41.0774 35.0422 42.7863C35.0422 44.1802 34.1712 44.8554 32.3863 44.8554ZM32.6866 38.2856H28.2159C28.1275 38.2856 28.0547 38.3584 28.0508 38.4484V52.4405C28.0534 52.5318 28.1275 52.6046 28.2159 52.6046H30.656C30.7444 52.6046 30.8159 52.5318 30.8159 52.4431C30.8159 52.4418 30.8159 52.4418 30.8159 52.4405V47.2447H32.3876C35.8001 47.2447 37.7553 45.5953 37.7553 42.7201C37.7553 39.9694 35.8079 38.2803 32.6879 38.2803" fill="white"/>
<path d="M49.3484 50.096H43.2189V46.4279H48.2876C48.3344 46.4292 48.3799 46.4067 48.4111 46.3696C48.441 46.3312 48.4566 46.2822 48.4501 46.2319L48.0965 44.0557C48.0835 43.9763 48.0159 43.918 47.9366 43.918H43.2189V40.7953H49.1573C49.247 40.7953 49.3198 40.7211 49.3198 40.6298V38.4496C49.3172 38.3609 49.2457 38.2894 49.1573 38.2881H40.6241C40.5357 38.2881 40.4616 38.3596 40.459 38.4496V52.4403C40.4616 52.5317 40.5344 52.6058 40.6241 52.6058H49.351C49.4394 52.6058 49.5122 52.5304 49.5122 52.4403V50.2588C49.5109 50.1701 49.4394 50.096 49.351 50.0947" fill="white"/>
<path d="M59.4843 42.7882C59.4843 44.1715 58.5626 44.926 56.8856 44.926H55.2618V40.7708H56.8856C58.0855 40.7708 59.4843 41.1189 59.4843 42.7882ZM59.4843 46.8097C61.2848 46.1068 62.2598 44.6705 62.2598 42.7564C62.2598 39.958 60.2682 38.29 56.9246 38.29H52.654C52.5682 38.2914 52.4967 38.3628 52.4941 38.4515V52.445C52.4941 52.535 52.5656 52.6091 52.654 52.6104H55.0941C55.1838 52.6104 55.2566 52.5363 55.2592 52.445V47.1989H56.5007L60.2968 52.6978C60.3241 52.7415 60.3735 52.7666 60.4242 52.7666C60.4359 52.768 60.4489 52.768 60.4593 52.7666L62.9826 52.1855C63.0359 52.1749 63.0788 52.1352 63.097 52.0822C63.1152 52.0306 63.1048 51.9737 63.0723 51.93L59.4843 46.8097Z" fill="white"/>
<path d="M77.0163 38.3013H74.5502C74.4813 38.2999 74.4189 38.3423 74.3968 38.4085L70.541 48.8926L66.758 38.4058C66.7333 38.3383 66.6735 38.2933 66.6046 38.292H63.9213C63.8745 38.3026 63.8356 38.3344 63.8135 38.3767C63.794 38.4204 63.794 38.4694 63.8135 38.5144L69.1669 52.4932C69.1929 52.5568 69.2514 52.5978 69.319 52.5978H71.5719C71.6395 52.5978 71.7019 52.5568 71.7279 52.4932L77.1684 38.5276C77.1866 38.4773 77.1801 38.4217 77.1502 38.378C77.1229 38.3317 77.0709 38.3039 77.0176 38.3039" fill="white"/>
<path d="M82.3434 38.302H79.8891C79.8007 38.302 79.7292 38.3748 79.7266 38.4635V52.4542C79.7266 52.5456 79.7994 52.6197 79.8891 52.6197H82.3526C82.4423 52.6223 82.5164 52.5482 82.519 52.4582C82.519 52.4569 82.519 52.4569 82.519 52.4542V38.4515C82.519 38.3628 82.4462 38.29 82.3591 38.29C82.3578 38.29 82.3552 38.29 82.3526 38.29" fill="white"/>
<path d="M95.8661 50.096H89.7417V46.4279H94.8092C94.8573 46.4252 94.9028 46.4053 94.9366 46.3696C94.9652 46.3312 94.9782 46.2822 94.9678 46.2319L94.6155 44.0557C94.6038 43.9763 94.5375 43.918 94.4595 43.918H89.7417V40.7953H95.6763C95.766 40.7953 95.8388 40.7211 95.8388 40.6298V38.4496C95.8375 38.3596 95.7647 38.2881 95.6763 38.2881H87.1404C87.0546 38.2894 86.9844 38.3622 86.9844 38.4496V52.4403C86.9818 52.529 87.052 52.6032 87.1404 52.6058H95.8661C95.9558 52.6058 96.0286 52.5304 96.0286 52.4403V50.2588C96.0273 50.1714 95.9558 50.0973 95.8661 50.096Z" fill="white"/>
<path d="M118.178 50.1267H113.136V38.4525C113.135 38.3638 113.065 38.2923 112.978 38.291H110.541C110.453 38.291 110.38 38.3625 110.379 38.4525V52.4459C110.378 52.5359 110.448 52.6101 110.535 52.6114C110.538 52.6114 110.539 52.6114 110.541 52.6114H118.531C118.62 52.6101 118.692 52.5333 118.69 52.4419C118.69 52.434 118.689 52.4261 118.687 52.4181L118.339 50.2802C118.325 50.1982 118.257 50.1413 118.176 50.1426" fill="white"/>
<path d="M129.836 50.096H123.699V46.4279H128.77C128.816 46.4279 128.86 46.4054 128.89 46.3696C128.927 46.3365 128.943 46.2836 128.931 46.2319L128.578 44.0557C128.567 43.9763 128.501 43.918 128.423 43.918H123.699V40.7953H129.637C129.727 40.7953 129.798 40.7211 129.798 40.6298V38.4496C129.797 38.3596 129.724 38.2881 129.637 38.2881H121.112C121.023 38.2881 120.953 38.3609 120.953 38.4496V52.4403C120.951 52.529 121.021 52.6032 121.108 52.6058C121.109 52.6058 121.11 52.6058 121.112 52.6058H129.835C129.925 52.6071 129.999 52.5343 130 52.443C130 52.443 130 52.4417 130 52.4403V50.2588C130 50.1688 129.926 50.096 129.836 50.096Z" fill="white"/>
<path d="M107.461 50.1267H102.421V38.4525C102.419 38.3638 102.349 38.2923 102.261 38.291H99.8188C99.7317 38.291 99.6589 38.3625 99.6562 38.4525V52.4459C99.6562 52.5373 99.7304 52.6114 99.8188 52.6114H107.812C107.859 52.6114 107.905 52.5902 107.936 52.5531C107.965 52.5147 107.976 52.4671 107.968 52.4181L107.616 50.2802C107.603 50.1995 107.536 50.1426 107.458 50.1426" fill="white"/>
</svg>
