<svg width="150" height="30" viewBox="0 0 150 30" fill="none" xmlns="http://www.w3.org/2000/svg">
<path d="M0 8.00429H3.16684L3.44355 3.20407L7.71937 3.20407V8.00429H12.2719V11.5244H7.71937L7.71937 24.8077C7.71937 25.4505 8.07559 25.6079 8.43182 25.6079L12.2719 25.6079L12.2719 29.4076L6.92739 29.4076C4.55253 29.4076 3.16684 27.8886 3.16684 24.7681L3.16684 11.519H0L0 8.00429ZM24.6233 7.48366C30.482 7.48366 34.2436 11.9636 34.2436 18.089V20.6492L18.5271 20.6492C18.8833 23.6894 21.694 25.8094 25.217 25.8094C27.8675 25.8094 29.7695 24.4092 31.1542 22.9695L33.847 25.6797C31.5517 28.5999 28.3054 30 24.9001 30C19.3583 30 14.0531 25.9593 14.0531 18.8794C14.0531 12.5196 18.7243 7.47938 24.6233 7.47938V7.48366ZM29.8098 17.0402C29.7303 14.0407 27.9089 11.684 24.4653 11.684C21.4967 11.684 18.8833 13.8436 18.5282 17.0402H29.8098ZM37.4104 0L41.963 0L41.963 24.7991C41.963 25.3595 42.0022 25.5994 42.6755 25.5994H45.5252V29.3991H41.1318C38.2416 29.3991 37.4104 27.5201 37.4104 24.8399L37.4104 0ZM57.4813 7.47938C63.34 7.47938 67.1015 11.9593 67.1015 18.0846V20.6449L51.3851 20.6449C51.7413 23.685 54.5519 25.805 58.075 25.805C60.7254 25.805 62.6275 24.405 64.0121 22.9652L66.705 25.6797C64.4097 28.5999 61.1633 30 57.758 30C52.2163 30 46.911 25.9593 46.911 18.8794C46.911 12.5196 51.5822 7.47938 57.4813 7.47938ZM62.6677 17.0402C62.5882 14.0407 60.7668 11.684 57.3232 11.684C54.3547 11.684 51.7413 13.8436 51.3861 17.0402L62.6677 17.0402ZM81.0358 7.39904C86.1821 7.39904 89.0722 10.5185 90.4187 14.0782L86.6179 15.7172C85.4304 12.9974 83.5305 11.5973 80.9987 11.5973C77.4353 11.5973 74.9417 14.4371 74.9417 18.7177C74.9417 22.9577 77.5149 25.8372 80.9987 25.8372C83.5719 25.8372 85.4717 24.5517 87.1352 22.1949L90.302 24.3557C88.2876 27.7954 85.6308 29.9958 80.722 29.9958C74.665 29.9958 70.3892 25.2352 70.3892 18.8356C70.3892 12.3953 74.7042 7.39583 81.0379 7.39583L81.0358 7.39904ZM92.6769 18.3556H97.0715V18.7949C97.0715 22.7585 100.318 25.5158 103.802 25.5158C107.245 25.5158 110.215 22.8378 110.215 18.9148V18.3953H114.688C114.688 18.6352 114.728 19.0755 114.728 19.3958C114.728 25.6347 109.462 29.9958 103.642 29.9958C97.8634 29.9958 92.6377 25.5158 92.6377 19.1955C92.633 18.915 92.6461 18.6345 92.6769 18.3556ZM103.683 7.39583C109.027 7.39583 113.104 10.8752 114.411 15.8351H109.859C108.868 13.3551 106.572 11.7954 103.683 11.7954C100.794 11.7954 98.5367 13.4355 97.5072 15.8351L92.9939 15.8351C93.5982 13.4304 94.976 11.2968 96.9107 9.7693C98.8454 8.24174 101.228 7.40688 103.683 7.39583ZM118.092 7.99572L122.249 7.99572L122.289 12.0354H122.486C123.753 9.1548 125.971 7.39583 129.217 7.39583C132.423 7.39583 134.64 9.23514 135.55 12.5956H135.788C137.016 9.27477 139.311 7.39583 142.835 7.39583C147.665 7.39583 150 11.1548 150 15.955V29.398H145.448V16.5185C145.448 13.639 144.418 11.4386 141.449 11.4386C138.045 11.4386 136.263 14.3985 136.263 17.4376V29.398H131.711V16.5185C131.711 13.1184 130.365 11.4386 127.752 11.4386C124.267 11.4386 122.645 14.3182 122.645 17.4376V29.398L118.092 29.398V7.99572Z" fill="white"/>
</svg>
