<svg width="60" height="60" viewBox="0 0 60 60" fill="none" xmlns="http://www.w3.org/2000/svg">
<path d="M30 57.24C15.06 57.24 2.82 44.94 2.82 30C2.82 26.64 3.42 23.46 4.56 20.46L20.46 52.44C20.64 52.86 20.94 53.22 21.42 53.22C21.9 53.22 22.2 52.86 22.38 52.44L29.7 36.06C29.76 35.88 29.88 35.7 30.06 35.7C30.24 35.7 30.3 35.88 30.42 36.06L37.74 52.44C37.92 52.86 38.22 53.22 38.7 53.22C39.18 53.22 39.48 52.86 39.66 52.44L55.56 20.46C56.7 23.46 57.3 26.64 57.3 30C57.18 44.94 44.94 57.24 30 57.24ZM30 23.82C29.82 23.82 29.76 23.64 29.64 23.46L21.12 4.26C23.88 3.24 26.88 2.7 30 2.7C33.12 2.7 36.12 3.24 38.88 4.26L30.36 23.46C30.24 23.7 30.18 23.82 30 23.82ZM21.3 43.56C21.12 43.56 21.06 43.38 20.94 43.2L7.14 15.36C9.6 11.58 12.9 8.4 16.92 6.18L26.88 28.32C27 28.68 27.3 28.8 27.6 28.8H32.4C32.76 28.8 33 28.74 33.18 28.32L43.14 6.18C47.1 8.4 50.46 11.58 52.92 15.36L39 43.2C38.94 43.38 38.82 43.56 38.64 43.56C38.46 43.56 38.4 43.38 38.28 43.2L33.06 31.32C32.88 30.9 32.64 30.84 32.28 30.84H27.48C27.12 30.84 26.88 30.9 26.7 31.32L21.66 43.2C21.6 43.38 21.48 43.56 21.3 43.56ZM30 60C46.62 60 60 46.62 60 30C60 13.38 46.62 0 30 0C13.38 0 0 13.38 0 30C0 46.62 13.38 60 30 60Z" fill="white"/>
</svg>
