<svg width="58" height="36" viewBox="0 0 58 36" fill="none" xmlns="http://www.w3.org/2000/svg">
<g opacity="0.3">
<rect width="56" height="34" rx="17" transform="matrix(-1 0 0 1 57 1)" stroke="black"/>
<path d="M15.4039 11.6266C15.7944 11.236 16.4276 11.236 16.8181 11.6266C17.2086 12.0171 17.2086 12.6502 16.8181 13.0408L15.4039 11.6266ZM10.4443 18.0003L9.73723 18.7074C9.3467 18.3169 9.3467 17.6837 9.73723 17.2932L10.4443 18.0003ZM16.8181 22.9599C17.2086 23.3504 17.2086 23.9836 16.8181 24.3741C16.4276 24.7646 15.7944 24.7646 15.4039 24.3741L16.8181 22.9599ZM25.5554 17.0003C26.1077 17.0003 26.5554 17.448 26.5554 18.0003C26.5554 18.5526 26.1077 19.0003 25.5554 19.0003L25.5554 17.0003ZM16.8181 13.0408L11.1514 18.7074L9.73723 17.2932L15.4039 11.6266L16.8181 13.0408ZM11.1514 17.2932L16.8181 22.9599L15.4039 24.3741L9.73723 18.7074L11.1514 17.2932ZM10.4443 17.0003L25.5554 17.0003L25.5554 19.0003L10.4443 19.0003L10.4443 17.0003Z" fill="black"/>
</g>
</svg>
