<svg width="56" height="44" viewBox="0 0 56 44" fill="none" xmlns="http://www.w3.org/2000/svg">
<path d="M29.2872 21.4087C27.404 21.4087 25.8779 22.9105 25.8779 24.7638C25.8779 26.6171 27.404 28.1189 29.2872 28.1189C31.1704 28.1189 32.6965 26.6171 32.6965 24.7638C32.6965 22.9105 31.1704 21.4087 29.2872 21.4087Z" fill="white"/>
<path d="M42.5999 20.2908C42.1778 20.099 41.8206 20.2269 41.5284 20.6423L37.5022 26.8093C37.4697 26.8732 37.4048 27.001 37.4048 27.033C37.3723 27.1288 37.3398 27.1927 37.3398 27.2886C37.3398 27.7359 37.697 28.0555 38.1191 28.0874H42.957V20.8979C42.957 20.6103 42.8271 20.4186 42.5999 20.2908Z" fill="white"/>
<path d="M16.7862 21.4087C14.903 21.4087 13.377 22.9105 13.377 24.7638C13.377 26.6171 14.903 28.1189 16.7862 28.1189C18.6694 28.1189 20.1955 26.6171 20.1955 24.7638C20.1955 22.9105 18.6694 21.4087 16.7862 21.4087Z" fill="white"/>
<path d="M23.4103 0C12.5006 0 0 10.8642 0 26.3936C0 39.1431 12.6955 44 26.6248 44C40.554 44 55.2301 38.9833 55.2301 26.2338C55.2301 13.5163 37.3396 0 23.4103 0ZM45.4569 27.9274V30.5156V30.8991C45.4569 31.2505 45.392 31.5701 45.1322 31.8257C44.8724 32.0813 44.6127 32.2092 44.2555 32.2092C43.8984 32.2092 43.6061 32.0813 43.3464 31.8257C43.0866 31.5701 42.9568 31.2825 42.9568 30.931V30.5476H38.0539C37.1123 30.5476 36.333 30.1961 35.6512 29.557C35.2616 29.1736 35.0018 28.7262 34.8395 28.2469C34.5797 28.6304 34.2875 28.9818 33.9628 29.3333C32.729 30.5476 31.073 31.2505 29.2872 31.2505C28.2157 31.2505 27.1443 30.9949 26.2351 30.5156H26.2027C26.1052 30.4837 26.0403 30.4517 25.9429 30.4517C25.5857 30.4517 25.326 30.7073 25.326 31.0588V34.9572C25.326 35.6601 24.7415 36.2672 23.9947 36.2672C23.2804 36.2672 22.6635 35.6921 22.6635 34.9572V27.7037C22.3388 28.3108 21.9492 28.854 21.4297 29.3653C20.1958 30.5795 18.5399 31.2825 16.7541 31.2825C15.6177 31.2825 14.5137 30.9949 13.5397 30.4517C13.5072 30.4517 13.4747 30.4198 13.4747 30.4198C13.3773 30.3878 13.2799 30.3558 13.1825 30.3558C12.9227 30.3558 12.6955 30.4837 12.5981 30.6754C12.3708 31.0269 11.9487 31.2505 11.4941 31.2505C10.7473 31.2505 10.1629 30.6754 10.1629 29.9724V14.6028C10.1629 13.8678 10.7473 13.2927 11.4941 13.2927C12.2409 13.2927 12.8253 13.8678 12.8253 14.6028V18.5011C12.8253 18.8526 13.1176 19.1082 13.4423 19.1082C13.5397 19.1082 13.6371 19.0763 13.702 19.0443H13.7345C14.6761 18.565 15.7151 18.3094 16.7866 18.3094C18.5399 18.3094 20.1958 18.9804 21.4621 20.2266C21.9492 20.7059 22.3713 21.281 22.696 21.8882V19.6195C22.696 18.8845 23.3129 18.3094 24.0272 18.3094C24.4818 18.3094 24.9039 18.533 25.1312 18.8845C25.261 19.0763 25.4883 19.2041 25.7156 19.2041C25.813 19.2041 25.9104 19.1721 26.0078 19.1402L26.0728 19.1082C27.0469 18.565 28.1508 18.3094 29.2872 18.3094C31.0406 18.3094 32.6965 18.9804 33.9628 20.2266C35.1317 21.3769 35.8135 22.8787 35.8785 24.4764L39.2877 19.236C39.8073 18.4691 40.4891 17.9579 41.3658 17.7342C42.2424 17.5105 43.0542 17.6064 43.8659 18.0537C44.3854 18.3413 44.775 18.7567 45.0997 19.2999C45.392 19.8431 45.4894 20.3863 45.4894 20.9935V27.9274H45.4569Z" fill="white"/>
</svg>
