<svg width="50" height="41" viewBox="0 0 50 41" fill="none" xmlns="http://www.w3.org/2000/svg">
<rect x="7.95459" y="12.5" width="34.0909" height="22.7273" fill="white"/>
<path d="M26.5137 19.9048C24.8088 19.9048 23.4272 21.3011 23.4272 23.0242C23.4272 24.7473 24.8088 26.1436 26.5137 26.1436C28.2185 26.1436 29.6001 24.7473 29.6001 23.0242C29.6001 21.3011 28.2185 19.9048 26.5137 19.9048Z" fill="#FF8E09"/>
<path d="M38.5656 18.8652C38.1835 18.687 37.8601 18.8058 37.5956 19.192L33.9507 24.9258C33.9213 24.9852 33.8625 25.1041 33.8625 25.1338C33.8331 25.2229 33.8037 25.2823 33.8037 25.3714C33.8037 25.7874 34.1271 26.0845 34.5092 26.1142H38.889V19.4297C38.889 19.1623 38.7714 18.984 38.5656 18.8652Z" fill="#FF8E09"/>
<path d="M15.1963 19.9048C13.4914 19.9048 12.1099 21.3011 12.1099 23.0242C12.1099 24.7473 13.4914 26.1436 15.1963 26.1436C16.9012 26.1436 18.2827 24.7473 18.2827 23.0242C18.2827 21.3011 16.9012 19.9048 15.1963 19.9048Z" fill="#FF8E09"/>
<path d="M21.1934 0C11.3169 0 0 10.101 0 24.5395C0 36.3933 11.4932 40.9091 24.1035 40.9091C36.7137 40.9091 50 36.2448 50 24.391C50 12.5668 33.8036 0 21.1934 0ZM41.1523 25.9655V28.372V28.7285C41.1523 29.0553 41.0935 29.3523 40.8583 29.59C40.6232 29.8277 40.388 29.9465 40.0647 29.9465C39.7413 29.9465 39.4768 29.8277 39.2416 29.59C39.0065 29.3523 38.8889 29.085 38.8889 28.7582V28.4017H34.4503C33.5979 28.4017 32.8924 28.0749 32.2751 27.4807C31.9224 27.1242 31.6872 26.7083 31.5403 26.2626C31.3051 26.6191 31.0406 26.9459 30.7466 27.2727C29.6296 28.4017 28.1305 29.0553 26.5138 29.0553C25.5438 29.0553 24.5738 28.8176 23.7507 28.372H23.7213C23.6332 28.3422 23.5744 28.3125 23.4862 28.3125C23.1628 28.3125 22.9277 28.5502 22.9277 28.877V32.5015C22.9277 33.1551 22.3986 33.7195 21.7225 33.7195C21.0758 33.7195 20.5173 33.1848 20.5173 32.5015V25.7576C20.2234 26.322 19.8707 26.8271 19.4004 27.3024C18.2834 28.4314 16.7842 29.085 15.1675 29.085C14.1387 29.085 13.1393 28.8176 12.2575 28.3125C12.2281 28.3125 12.1987 28.2828 12.1987 28.2828C12.1105 28.2531 12.0223 28.2234 11.9342 28.2234C11.699 28.2234 11.4932 28.3422 11.4051 28.5205C11.1993 28.8473 10.8172 29.0553 10.4056 29.0553C9.72957 29.0553 9.20047 28.5205 9.20047 27.8669V13.5769C9.20047 12.8936 9.72957 12.3589 10.4056 12.3589C11.0817 12.3589 11.6108 12.8936 11.6108 13.5769V17.2014C11.6108 17.5282 11.8754 17.7659 12.1693 17.7659C12.2575 17.7659 12.3457 17.7362 12.4045 17.7065H12.4339C13.2863 17.2608 14.2269 17.0232 15.1969 17.0232C16.7842 17.0232 18.2834 17.6471 19.4297 18.8057C19.8707 19.2513 20.2528 19.7861 20.5467 20.3506V18.2412C20.5467 17.5579 21.1052 17.0232 21.7519 17.0232C22.1634 17.0232 22.5456 17.2311 22.7513 17.5579C22.8689 17.7362 23.0747 17.855 23.2804 17.855C23.3686 17.855 23.4568 17.8253 23.545 17.7956L23.6038 17.7659C24.4856 17.2608 25.485 17.0232 26.5138 17.0232C28.1011 17.0232 29.6002 17.6471 30.7466 18.8057C31.8048 19.8752 32.4221 21.2715 32.4809 22.757L35.5673 17.8847C36.0376 17.1717 36.6549 16.6964 37.4486 16.4884C38.2422 16.2805 38.9771 16.3696 39.7119 16.7855C40.1822 17.0529 40.535 17.4391 40.8289 17.9441C41.0935 18.4492 41.1817 18.9543 41.1817 19.5187V25.9655H41.1523Z" fill="#FF8E09"/>
</svg>
