<svg width="114" height="118" viewBox="0 0 114 118" fill="none" xmlns="http://www.w3.org/2000/svg">
<path d="M49.0048 114.895C48.4443 115.505 48.4443 116.495 49.0048 117.105C49.5652 117.715 50.4739 117.715 51.0343 117.105L49.0048 114.895ZM113.435 48.5306C113.435 47.6678 112.793 46.9684 112 46.9684L99.0841 46.9684C98.2915 46.9684 97.649 47.6678 97.649 48.5306C97.649 49.3934 98.2915 50.0928 99.0841 50.0928L110.565 50.0928L110.565 62.5904C110.565 63.4532 111.208 64.1526 112 64.1526C112.793 64.1526 113.435 63.4532 113.435 62.5904L113.435 48.5306ZM51.0343 117.105L113.015 49.6353L110.985 47.426L49.0048 114.895L51.0343 117.105Z" fill="#FF8E09"/>
<path d="M80.1165 2.36735C77.9074 2.36735 76.1165 4.15821 76.1165 6.36735V36.2449C76.1165 38.454 74.3256 40.2449 72.1165 40.2449H43.1456C40.9365 40.2449 39.1456 42.0358 39.1456 44.2449V74.1225C39.1456 76.3316 37.3548 78.1225 35.1456 78.1225H6.17476C3.96562 78.1225 2.17476 79.9133 2.17476 82.1225L2.17476 114.913C2.17476 115.513 1.68792 116 1.08738 116C0.486836 116 0 115.513 0 114.913V79.7551C0 77.546 1.79087 75.7551 4 75.7551H32.9709C35.18 75.7551 36.9709 73.9642 36.9709 71.7551V41.8776C36.9709 39.6684 38.7617 37.8776 40.9709 37.8776H69.9417C72.1509 37.8776 73.9417 36.0867 73.9417 33.8776V4C73.9417 1.79086 75.7326 0 77.9417 0H110.816C111.47 0 112 0.529949 112 1.18367C112 1.8374 111.47 2.36735 110.816 2.36735H80.1165Z" fill="#FF8E09"/>
</svg>
