<svg width="119" height="116" viewBox="0 0 119 116" fill="none" xmlns="http://www.w3.org/2000/svg">
<path d="M58 29C58 44.152 45.3884 56.5 29.75 56.5C14.1116 56.5 1.5 44.152 1.5 29C1.5 13.848 14.1116 1.5 29.75 1.5C45.3884 1.5 58 13.848 58 29Z" stroke="#FF8E09" stroke-width="3"/>
<path d="M117.5 29C117.5 44.152 104.888 56.5 89.25 56.5C73.6116 56.5 61 44.152 61 29C61 13.848 73.6116 1.5 89.25 1.5C104.888 1.5 117.5 13.848 117.5 29Z" stroke="#FF8E09" stroke-width="3"/>
<path d="M58 87C58 102.152 45.3884 114.5 29.75 114.5C14.1116 114.5 1.5 102.152 1.5 87C1.5 71.848 14.1116 59.5 29.75 59.5C45.3884 59.5 58 71.848 58 87Z" stroke="#FF8E09" stroke-width="3"/>
<path d="M117.5 87C117.5 102.152 104.888 114.5 89.25 114.5C73.6116 114.5 61 102.152 61 87C61 71.848 73.6116 59.5 89.25 59.5C104.888 59.5 117.5 71.848 117.5 87Z" stroke="#FF8E09" stroke-width="3"/>
</svg>
