<svg width="140" height="135" viewBox="0 0 140 135" fill="none" xmlns="http://www.w3.org/2000/svg">
<circle cx="69.1953" cy="58.8501" r="37.853" stroke="#FF8E09" stroke-width="3"/>
<path d="M129.074 69.6717C126.871 80.7015 121.749 91.3601 114 99.5C106.251 107.64 96.1915 112.928 85.293 115.66C74.3945 118.393 62.9423 117.976 52.265 114.456C41.5877 110.937 32.123 104.46 24.9688 95.7766C17.8147 87.0933 13.2645 76.5597 11.846 65.3979C10.4275 54.2361 12.199 42.9037 16.9548 32.7152M16.9548 32.7152L10.106 35.379M16.9548 32.7152L19.6032 38.4674" stroke="#FF8E09" stroke-width="3" stroke-linecap="round" stroke-linejoin="round"/>
<path d="M129.074 69.6717C126.871 80.7015 121.749 91.3601 114 99.5C106.251 107.64 96.1915 112.928 85.293 115.66C74.3945 118.393 62.9423 117.976 52.265 114.456C41.5877 110.937 32.123 104.46 24.9688 95.7766C17.8147 87.0933 13.2645 76.5597 11.846 65.3979C10.4275 54.2361 12.199 42.9037 16.9548 32.7152M16.9548 32.7152L10.106 35.379M16.9548 32.7152L19.6032 38.4674" stroke="#FF8E09" stroke-width="3" stroke-linecap="round" stroke-linejoin="round"/>
</svg>
