<svg width="36" height="36" viewBox="0 0 36 36" fill="none" xmlns="http://www.w3.org/2000/svg">
<path d="M15.7576 24.0202C15.9528 24.2155 16.2694 24.2155 16.4647 24.0202C16.6599 23.825 16.6599 23.5084 16.4647 23.3131L15.7576 24.0202ZM10.4444 18L10.0909 17.6464C9.89563 17.8417 9.89563 18.1583 10.0909 18.3536L10.4444 18ZM16.4647 12.6869C16.6599 12.4916 16.6599 12.175 16.4647 11.9798C16.2694 11.7845 15.9528 11.7845 15.7576 11.9798L16.4647 12.6869ZM25.5556 18.5C25.8317 18.5 26.0556 18.2761 26.0556 18C26.0556 17.7239 25.8317 17.5 25.5556 17.5V18.5ZM16.4647 23.3131L10.798 17.6464L10.0909 18.3536L15.7576 24.0202L16.4647 23.3131ZM10.798 18.3536L16.4647 12.6869L15.7576 11.9798L10.0909 17.6464L10.798 18.3536ZM10.4444 18.5L25.5556 18.5V17.5L10.4444 17.5L10.4444 18.5ZM1.5 18C1.5 8.8873 8.8873 1.5 18 1.5V0.5C8.33502 0.499999 0.500001 8.33501 0.5 18H1.5ZM18 1.5C27.1127 1.5 34.5 8.8873 34.5 18H35.5C35.5 8.33502 27.665 0.500001 18 0.5V1.5ZM34.5 18C34.5 27.1127 27.1127 34.5 18 34.5V35.5C27.665 35.5 35.5 27.665 35.5 18H34.5ZM18 34.5C8.8873 34.5 1.5 27.1127 1.5 18H0.5C0.499999 27.665 8.33501 35.5 18 35.5V34.5Z" fill="#FF6000"/>
</svg>
