<svg width="58" height="33" viewBox="0 0 58 33" fill="none" xmlns="http://www.w3.org/2000/svg">
<rect x="1" y="1" width="56" height="31" rx="15.5" stroke="#EFF7FF"/>
<path d="M42.2259 10.9642C42.0218 10.7781 41.7056 10.7927 41.5195 10.9968C41.3335 11.2008 41.3481 11.5171 41.5521 11.7031L42.2259 10.9642ZM47.5557 16.5003L47.8925 16.8698C47.9965 16.7751 48.0557 16.6409 48.0557 16.5003C48.0557 16.3597 47.9965 16.2256 47.8925 16.1309L47.5557 16.5003ZM41.5521 21.2975C41.3481 21.4836 41.3335 21.7998 41.5195 22.0039C41.7056 22.2079 42.0218 22.2225 42.2259 22.0365L41.5521 21.2975ZM32.4446 16.0003C32.1684 16.0003 31.9446 16.2242 31.9446 16.5003C31.9446 16.7765 32.1684 17.0003 32.4446 17.0003L32.4446 16.0003ZM41.5521 11.7031L47.2188 16.8698L47.8925 16.1309L42.2259 10.9642L41.5521 11.7031ZM47.2188 16.1309L41.5521 21.2975L42.2259 22.0365L47.8925 16.8698L47.2188 16.1309ZM47.5557 16.0003L32.4446 16.0003L32.4446 17.0003L47.5557 17.0003L47.5557 16.0003Z" fill="#EFF7FF"/>
</svg>
