<svg width="22" height="22" viewBox="0 0 22 22" fill="none" xmlns="http://www.w3.org/2000/svg">
<path d="M0.292893 20.2929C-0.0976311 20.6834 -0.0976311 21.3166 0.292893 21.7071C0.683417 22.0976 1.31658 22.0976 1.70711 21.7071L0.292893 20.2929ZM21.7071 1.70711C22.0976 1.31658 22.0976 0.683418 21.7071 0.292894C21.3166 -0.0976301 20.6834 -0.0976303 20.2929 0.292894L21.7071 1.70711ZM1.70711 0.292893C1.31658 -0.0976311 0.683418 -0.0976311 0.292893 0.292893C-0.0976311 0.683417 -0.0976311 1.31658 0.292893 1.70711L1.70711 0.292893ZM20.2929 21.7071C20.6834 22.0976 21.3166 22.0976 21.7071 21.7071C22.0976 21.3166 22.0976 20.6834 21.7071 20.2929L20.2929 21.7071ZM1.70711 21.7071L21.7071 1.70711L20.2929 0.292894L0.292893 20.2929L1.70711 21.7071ZM0.292893 1.70711L20.2929 21.7071L21.7071 20.2929L1.70711 0.292893L0.292893 1.70711Z" fill="white"/>
</svg>
