<svg width="124" height="118" viewBox="0 0 124 118" fill="none" xmlns="http://www.w3.org/2000/svg">
<path d="M60.5 59C60.5 75.3155 47.4934 88.5 31.5 88.5C15.5066 88.5 2.5 75.3155 2.5 59C2.5 42.6845 15.5066 29.5 31.5 29.5C47.4934 29.5 60.5 42.6845 60.5 59Z" stroke="#B9D8E9" stroke-width="3"/>
<circle cx="93" cy="59" r="29.5" stroke="#B9D8E9" stroke-width="3"/>
<path d="M61.4696 22.1685C61.4696 -3.51727 115.387 -4.43006 122.278 18.0657C123.087 20.706 120.761 23 118 23H6.18559C3.35274 23 1.0086 20.5994 1.8638 17.8988C9.33605 -5.69827 61.9668 -1.9925 61.4696 22.1685Z" stroke="#B9D8E9" stroke-width="3"/>
<path d="M61.4696 95.8315C61.4696 121.517 115.387 122.43 122.278 99.9343C123.087 97.294 120.761 95 118 95H6.18559C3.35274 95 1.0086 97.4006 1.8638 100.101C9.33605 123.698 61.9668 119.993 61.4696 95.8315Z" stroke="#B9D8E9" stroke-width="3"/>
</svg>
