<svg width="261" height="517" viewBox="0 0 261 517" fill="none" xmlns="http://www.w3.org/2000/svg">
<g opacity="0.3">
<path d="M73.8364 40.2772C73.8402 40.3648 73.8551 40.4498 73.8797 40.5306V41.6421L73.8796 41.8831L73.8797 42.0563L73.8796 164.249C73.8796 171.981 67.6116 178.249 59.8796 178.249H16.106C8.37397 178.249 2.10596 171.981 2.10596 164.249L2.10597 40.535C2.13148 40.4528 2.14689 40.3662 2.15078 40.2768L2.15079 40.2767C3.10825 18.2946 18.8948 0.999997 37.9936 1C57.0925 1 72.8792 18.2948 73.8364 40.2772ZM73.8364 40.2772L74.8355 40.234M73.8364 40.2772C73.8364 40.2773 73.8364 40.2774 73.8364 40.2775L74.8355 40.234M74.8355 40.234C74.836 40.2458 74.8457 40.2552 74.8576 40.2552C74.8698 40.2552 74.8797 40.2651 74.8797 40.2773V41.8831L74.8796 164.249C74.8796 172.533 68.1639 179.249 59.8796 179.249H16.106C7.82168 179.249 1.10596 172.533 1.10596 164.249L1.10597 40.2781C1.10597 40.2655 1.11622 40.2552 1.12886 40.2552C1.14111 40.2552 1.1512 40.2455 1.15173 40.2332C2.12685 17.8458 18.2386 -2.78967e-06 37.9936 0C57.7488 2.7897e-06 73.8607 17.8462 74.8355 40.234Z" stroke="white" stroke-width="2"/>
<path d="M89.9038 137.368L89.9038 137.363V137.192L89.9038 15C89.9038 7.26801 96.1718 0.999999 103.904 1L147.678 1.00001C155.409 1.00001 161.678 7.26801 161.678 15L161.677 138.714C161.652 138.796 161.637 138.883 161.633 138.972C160.675 160.954 144.889 178.249 125.79 178.249C106.691 178.249 90.9041 160.954 89.947 138.971C89.9432 138.884 89.9284 138.799 89.9038 138.718L89.9038 137.606V137.368Z" stroke="white" stroke-width="2"/>
<mask id="mask0_438_6048" style="mask-type:alpha" maskUnits="userSpaceOnUse" x="177" y="0" width="83" height="83">
<path d="M259.242 41.8796L259.242 15C259.242 6.71573 252.526 -5.89587e-07 244.242 -1.31382e-06L221.716 -3.28309e-06C179.932 -6.93597e-06 177.242 34.3886 177.242 42.3448C177.242 48.4262 182.594 84.286 221.716 81.9155C253.014 80.019 259.774 54.4347 259.242 41.8796Z" fill="#C4C4C4"/>
</mask>
<g mask="url(#mask0_438_6048)">
<path d="M168 11.2011C168 11.2011 173.227 9.59086 174.612 5.53699C175.94 1.59612 181.308 0 181.308 0" stroke="white" stroke-miterlimit="10"/>
<path d="M168 16.2861C168 16.2861 176.929 14.2097 179.246 7.98061C181.478 1.9775 190.59 0 190.59 0" stroke="white" stroke-miterlimit="10"/>
<path d="M168 21.3852C168 21.3852 180.616 18.8286 183.894 10.4242C187.016 2.34475 199.858 0 199.858 0" stroke="white" stroke-miterlimit="10"/>
<path d="M168 26.4702C168 26.4702 184.318 23.4475 188.528 12.8679C192.554 2.72612 209.14 0 209.14 0" stroke="white" stroke-miterlimit="10"/>
<path d="M168 31.5552C168 31.5552 188.019 28.0663 193.176 15.2973C198.092 3.10749 218.422 0 218.422 0" stroke="white" stroke-miterlimit="10"/>
<path d="M168 36.6543C168 36.6543 191.706 32.6852 197.81 17.7551C203.63 3.47474 227.704 0 227.704 0" stroke="white" stroke-miterlimit="10"/>
<path d="M168 41.7393C168 41.7393 195.408 37.3041 202.458 20.1846C209.168 3.85612 236.986 0 236.986 0" stroke="white" stroke-miterlimit="10"/>
<path d="M168 46.8243C168 46.8243 199.109 41.9229 207.106 22.6282C214.706 4.23749 246.254 0 246.254 0" stroke="white" stroke-miterlimit="10"/>
<path d="M168 51.9234C168 51.9234 202.797 46.5559 211.739 25.0718C220.258 4.60474 255.535 0 255.535 0" stroke="white" stroke-miterlimit="10"/>
<path d="M168 57.0084C168 57.0084 206.498 51.1607 216.387 27.5155C225.797 4.98612 264.817 0 264.817 0" stroke="white" stroke-miterlimit="10"/>
<path d="M168 62.0934C168 62.0934 210.2 55.7795 221.021 29.9449C231.335 5.36749 274.099 0 274.099 0" stroke="white" stroke-miterlimit="10"/>
<path d="M168 67.1925C168 67.1925 213.887 60.4125 225.669 32.4027C236.873 5.73474 283.367 0 283.367 0" stroke="white" stroke-miterlimit="10"/>
<path d="M168 72.2775C168 72.2775 217.588 65.0314 230.303 34.8463C242.411 6.11611 292.649 0 292.649 0" stroke="white" stroke-miterlimit="10"/>
<path d="M168 77.3766C168 77.3766 221.29 69.6502 234.951 37.2899C247.949 6.49749 301.931 0 301.931 0" stroke="white" stroke-miterlimit="10"/>
<path d="M168 82.4616C168 82.4616 224.977 74.2691 239.585 39.7335C253.487 6.86474 311.213 0 311.213 0" stroke="white" stroke-miterlimit="10"/>
<path d="M168 87.5466C168 87.5466 228.679 78.888 244.233 42.163C259.025 7.24611 320.495 0 320.495 0" stroke="white" stroke-miterlimit="10"/>
<path d="M168 92.6457C168 92.6457 232.38 83.5068 248.881 44.6208C264.563 7.62749 329.763 0 329.763 0" stroke="white" stroke-miterlimit="10"/>
<path d="M168 97.7307C168 97.7307 236.067 88.1257 253.515 47.0503C270.101 7.99474 339.044 0 339.044 0" stroke="white" stroke-miterlimit="10"/>
<path d="M168 102.816C168 102.816 239.769 92.7446 258.163 49.4939C275.639 8.37611 348.326 0 348.326 0" stroke="white" stroke-miterlimit="10"/>
<path d="M168 107.915C168 107.915 243.47 97.3776 262.797 51.9375C281.177 8.75748 357.608 0 357.608 0" stroke="white" stroke-miterlimit="10"/>
<path d="M168 113C168 113 247.158 101.982 267.445 54.3811C286.715 9.12473 366.876 0 366.876 0" stroke="white" stroke-miterlimit="10"/>
</g>
<path d="M186.33 162.213L187.053 161.522L186.33 162.213ZM236.654 176.142L237.019 177.073L236.654 176.142ZM258.81 133.374L259.804 133.262L258.81 133.374ZM218.288 98.0444L218.156 99.0356L218.288 98.0444ZM182.204 124.29L181.356 123.759L182.204 124.29ZM187.053 161.522C199.646 174.686 217.313 182.653 236.289 175.211L237.019 177.073C217.021 184.916 198.533 176.415 185.607 162.904L187.053 161.522ZM236.289 175.211C246.049 171.384 251.888 165.354 255.07 158.139C258.267 150.889 258.819 142.353 257.817 133.487L259.804 133.262C260.829 142.323 260.293 151.253 256.9 158.946C253.493 166.673 247.24 173.064 237.019 177.073L236.289 175.211ZM257.817 133.487C256.89 125.292 251.923 117.339 244.658 111.081C237.4 104.828 227.93 100.341 218.156 99.0356L218.421 97.0532C228.603 98.413 238.43 103.076 245.963 109.565C253.489 116.049 258.805 124.428 259.804 133.262L257.817 133.487ZM218.156 99.0356C208.732 97.7772 202.393 100.424 197.21 105.209C191.94 110.073 187.869 117.129 183.051 124.82L181.356 123.759C186.09 116.201 190.333 108.834 195.853 103.739C201.46 98.564 208.388 95.7136 218.421 97.0532L218.156 99.0356ZM183.051 124.82C175.271 137.243 177.16 151.181 187.053 161.522L185.607 162.904C175.115 151.936 173.065 136.997 181.356 123.759L183.051 124.82Z" fill="white"/>
<mask id="path-26-inside-1_438_6048" fill="white">
<path d="M182.433 194.498C179.566 194.498 177.241 196.822 177.241 199.689L177.241 224.609C177.241 253.282 200.485 276.525 229.158 276.525L254.078 276.525C256.946 276.525 259.27 274.201 259.27 271.334L259.27 199.689C259.27 196.822 256.946 194.498 254.078 194.498L182.433 194.498Z"/>
</mask>
<path d="M179.241 199.689L179.241 224.609L175.241 224.609L175.241 199.689L179.241 199.689ZM229.158 274.525L254.078 274.525L254.078 278.525L229.158 278.525L229.158 274.525ZM257.27 271.334L257.27 199.689L261.27 199.689L261.27 271.334L257.27 271.334ZM254.078 196.498L182.433 196.498L182.433 192.498L254.078 192.498L254.078 196.498ZM257.27 199.689C257.27 197.927 255.841 196.498 254.078 196.498L254.078 192.498C258.05 192.498 261.27 195.717 261.27 199.689L257.27 199.689ZM254.078 274.525C255.841 274.525 257.27 273.096 257.27 271.334L261.27 271.334C261.27 275.306 258.05 278.525 254.078 278.525L254.078 274.525ZM179.241 224.609C179.241 252.177 201.59 274.525 229.158 274.525L229.158 278.525C199.381 278.525 175.241 254.386 175.241 224.609L179.241 224.609ZM175.241 199.689C175.241 195.717 178.461 192.498 182.433 192.498L182.433 196.498C180.67 196.498 179.241 197.927 179.241 199.689L175.241 199.689Z" fill="white" mask="url(#path-26-inside-1_438_6048)"/>
<path d="M258.271 314.547C258.271 301.845 247.973 291.547 235.271 291.547L201.242 291.547C188.539 291.547 178.242 301.845 178.242 314.547L178.242 475.986C178.242 498.085 196.157 516 218.256 516C240.355 516 258.271 498.085 258.271 475.986L258.271 314.547Z" stroke="white" stroke-width="2"/>
<path d="M0.216603 269.796C0.120748 271.112 0.056337 272.438 0.0241163 273.772L1.02382 273.796C1.00799 274.451 1.00002 275.109 1.00002 275.768L1.00002 277.738L2.08872e-05 277.738L2.05427e-05 281.679L1.00002 281.679L1.00002 285.619L2.01982e-05 285.619L1.98538e-05 289.559L1.00002 289.559L1.00002 293.499L1.95093e-05 293.499L1.91648e-05 297.44L1.00002 297.44L1.00002 301.38L1.88204e-05 301.38L1.84759e-05 305.32L1.00002 305.32L1.00002 309.26L1.81314e-05 309.26L1.7787e-05 313.2L1.00002 313.2L1.00002 317.141L1.74425e-05 317.141L1.7098e-05 321.081L1.00002 321.081L1.00002 325.021L1.67536e-05 325.021L1.64091e-05 328.961L1.00002 328.961L1.00002 332.902L1.60646e-05 332.902L1.57202e-05 336.842L1.00002 336.842L1.00002 340.782L1.53757e-05 340.782L1.50313e-05 344.722L1.00002 344.722L1.00001 348.662L1.46868e-05 348.662L1.43423e-05 352.603L1.00001 352.603L1.00001 356.543L1.39979e-05 356.543L1.36534e-05 360.483L1.00001 360.483L1.00001 364.423L1.33089e-05 364.423L1.29645e-05 368.363L1.00001 368.363L1.00001 372.304L1.262e-05 372.304L1.22755e-05 376.244L1.00001 376.244L1.00001 380.184L1.19311e-05 380.184L1.15866e-05 384.124L1.00001 384.124L1.00001 388.065L1.12421e-05 388.065L1.08977e-05 392.005L1.00001 392.005L1.00001 395.945L1.05532e-05 395.945L1.02087e-05 399.885L1.00001 399.885L1.00001 403.825L9.86428e-06 403.825L9.51982e-06 407.766L1.00001 407.766L1.00001 411.706L9.17535e-06 411.706L8.83089e-06 415.646L1.00001 415.646L1.00001 419.586L8.48643e-06 419.586L8.14196e-06 423.526L1.00001 423.526L1.00001 427.467L7.7975e-06 427.467L7.45303e-06 431.407L1.00001 431.407L1.00001 435.347L7.10857e-06 435.347L6.7641e-06 439.287L1.00001 439.287L1.00001 443.228L6.41964e-06 443.228L6.07517e-06 447.168L1.00001 447.168L1.00001 451.108L5.73071e-06 451.108L5.38624e-06 455.048L1.00001 455.048L1.00001 458.988L5.04178e-06 458.988L4.69731e-06 462.929L1 462.929L1 466.869L4.35285e-06 466.869L4.00839e-06 470.809L1 470.809L1 474.749L3.66392e-06 474.749L3.31946e-06 478.69L1 478.69L1 480.66C1 481.319 1.01822 481.974 1.05418 482.624L0.0557013 482.679C0.130872 484.039 0.281456 485.378 0.503339 486.693L1.4894 486.526C1.70901 487.828 2.00046 489.105 2.3595 490.353L1.39846 490.63C1.7729 491.932 2.21882 493.203 2.7317 494.44L3.65543 494.057C4.15896 495.271 4.72892 496.451 5.36079 497.592L4.486 498.076C5.1402 499.258 5.85888 500.398 6.63728 501.493L7.45235 500.914C8.2119 501.982 9.02998 503.007 9.90191 503.982L9.15649 504.648C10.0543 505.652 11.0075 506.605 12.0114 507.503L12.678 506.758C13.6531 507.63 14.6772 508.448 15.7458 509.207L15.1664 510.022C16.2615 510.801 17.402 511.519 18.5832 512.174L19.0677 511.299C20.2086 511.931 21.3884 512.501 22.6027 513.004L22.2196 513.928C23.4564 514.441 24.728 514.887 26.0299 515.261L26.3063 514.3C27.5546 514.659 28.8316 514.951 30.1332 515.17L29.9668 516.156C31.2818 516.378 32.621 516.529 33.9804 516.604L34.0356 515.605C34.6857 515.641 35.3407 515.66 36 515.66L38.0504 515.66L38.0504 516.66L42.1511 516.66L42.1511 515.66L46.2519 515.66L46.2519 516.66L50.3526 516.66L50.3526 515.66L54.4533 515.66L54.4533 516.66L58.5541 516.66L58.5541 515.66L62.6548 515.66L62.6548 516.66L66.7556 516.66L66.7556 515.66L70.8563 515.66L70.8563 516.66L74.957 516.66L74.957 515.66L79.0578 515.66L79.0578 516.66L83.1585 516.66L83.1585 515.66L87.2593 515.66L87.2593 516.66L91.36 516.66L91.36 515.66L95.4607 515.66L95.4607 516.66L99.5615 516.66L99.5615 515.66L103.662 515.66L103.662 516.66L107.763 516.66L107.763 515.66L111.864 515.66L111.864 516.66L115.964 516.66L115.964 515.66L120.065 515.66L120.065 516.66L124.166 516.66L124.166 515.66L126.216 515.66C126.876 515.66 127.531 515.641 128.181 515.606L128.236 516.604C129.595 516.529 130.934 516.378 132.249 516.156L132.083 515.17C133.385 514.951 134.662 514.659 135.91 514.3L136.186 515.261C137.488 514.887 138.76 514.441 139.997 513.928L139.614 513.004C140.828 512.501 142.008 511.931 143.149 511.299L143.633 512.174C144.814 511.519 145.955 510.801 147.05 510.022L146.471 509.207C147.539 508.448 148.563 507.63 149.538 506.758L150.205 507.503C151.209 506.605 152.162 505.652 153.06 504.648L152.314 503.982C153.186 503.007 154.004 501.982 154.764 500.914L155.579 501.493C156.357 500.398 157.076 499.258 157.73 498.076L156.856 497.592C157.487 496.451 158.057 495.271 158.561 494.057L159.485 494.44C159.997 493.203 160.443 491.932 160.818 490.63L159.857 490.353C160.216 489.105 160.507 487.828 160.727 486.526L161.713 486.693C161.935 485.378 162.085 484.039 162.161 482.679L161.162 482.624C161.198 481.974 161.216 481.319 161.216 480.66L161.216 478.69L162.216 478.69L162.216 474.749L161.216 474.749L161.216 470.809L162.216 470.809L162.216 466.869L161.216 466.869L161.216 462.929L162.216 462.929L162.216 458.989L161.216 458.989L161.216 455.048L162.216 455.048L162.216 451.108L161.216 451.108L161.216 447.168L162.216 447.168L162.216 443.228L161.216 443.228L161.216 439.287L162.216 439.287L162.216 435.347L161.216 435.347L161.216 431.407L162.216 431.407L162.216 427.467L161.216 427.467L161.216 423.527L162.216 423.527L162.216 419.586L161.216 419.586L161.216 415.646L162.216 415.646L162.216 411.706L161.216 411.706L161.216 407.766L162.216 407.766L162.216 403.825L161.216 403.825L161.216 399.885L162.216 399.885L162.216 395.945L161.216 395.945L161.216 392.005L162.216 392.005L162.216 388.065L161.216 388.065L161.216 384.124L162.216 384.124L162.216 380.184L161.216 380.184L161.216 376.244L162.216 376.244L162.216 372.304L161.216 372.304L161.216 368.364L162.216 368.364L162.216 364.423L161.216 364.423L161.216 360.483L162.216 360.483L162.216 356.543L161.216 356.543L161.216 352.603L162.216 352.603L162.216 348.662L161.216 348.662L161.216 344.722L162.216 344.722L162.216 340.782L161.216 340.782L161.216 336.842L162.216 336.842L162.216 332.902L161.216 332.902L161.216 328.961L162.216 328.961L162.216 325.021L161.216 325.021L161.216 321.081L162.216 321.081L162.216 317.141L161.216 317.141L161.216 313.201L162.216 313.201L162.216 309.26L161.216 309.26L161.216 305.32L162.216 305.32L162.216 301.38L161.216 301.38L161.216 297.44L162.216 297.44L162.216 293.499L161.216 293.499L161.216 289.559L162.216 289.559L162.216 285.619L161.216 285.619L161.216 281.679L162.216 281.679L162.216 277.739L161.216 277.739L161.216 275.768C161.216 275.109 161.208 274.452 161.193 273.796L162.192 273.772C162.16 272.438 162.096 271.113 162 269.796L161.002 269.868C160.907 268.555 160.779 267.25 160.621 265.955L161.614 265.833C161.452 264.511 161.259 263.197 161.034 261.895L160.049 262.065C159.825 260.768 159.571 259.482 159.286 258.208L160.262 257.99C159.971 256.69 159.649 255.402 159.297 254.127L158.333 254.393C157.983 253.126 157.603 251.872 157.193 250.631L158.143 250.317C157.726 249.054 157.278 247.804 156.801 246.569L155.868 246.929C155.395 245.703 154.893 244.492 154.362 243.297L155.276 242.891C154.737 241.676 154.168 240.476 153.572 239.293L152.679 239.744C152.088 238.571 151.468 237.416 150.822 236.277L151.692 235.784C151.036 234.628 150.352 233.49 149.642 232.371L148.797 232.907C148.094 231.799 147.365 230.709 146.61 229.639L147.427 229.062C146.661 227.977 145.87 226.912 145.053 225.866L144.265 226.482C143.457 225.449 142.625 224.436 141.768 223.444L142.525 222.79C141.658 221.785 140.766 220.802 139.851 219.841L139.127 220.531C138.222 219.581 137.295 218.654 136.346 217.75L137.036 217.026C136.075 216.111 135.091 215.219 134.086 214.351L133.433 215.108C132.441 214.252 131.428 213.419 130.394 212.612L131.01 211.824C129.965 211.007 128.899 210.215 127.814 209.45L127.238 210.267C126.168 209.512 125.078 208.782 123.97 208.079L124.506 207.235C123.387 206.525 122.249 205.841 121.093 205.185L120.599 206.054C119.461 205.408 118.305 204.789 117.133 204.198L117.583 203.305C116.4 202.708 115.201 202.14 113.986 201.6L113.58 202.514C112.384 201.984 111.173 201.481 109.948 201.008L110.308 200.075C109.073 199.598 107.823 199.151 106.56 198.734L106.246 199.683C105.005 199.274 103.75 198.893 102.483 198.543L102.749 197.579C101.474 197.227 100.187 196.905 98.887 196.615L98.6688 197.591C97.3944 197.306 96.1084 197.051 94.8119 196.828L94.9817 195.842C93.6792 195.618 92.3661 195.424 91.0432 195.263L90.9219 196.255C89.6268 196.097 88.322 195.97 87.0084 195.874L87.081 194.877C85.7641 194.781 84.4385 194.717 83.1048 194.684L83.0807 195.684C82.4251 195.668 81.7676 195.66 81.1082 195.66C80.4488 195.66 79.7912 195.668 79.1357 195.684L79.1115 194.684C77.7779 194.717 76.4522 194.781 75.1353 194.877L75.2079 195.874C73.8943 195.97 72.5896 196.097 71.2944 196.255L71.1732 195.263C69.8502 195.424 68.5371 195.618 67.2346 195.842L67.4045 196.828C66.1079 197.051 64.822 197.306 63.5476 197.591L63.3293 196.615C62.0298 196.905 60.7421 197.227 59.4669 197.579L59.7331 198.543C58.466 198.893 57.2114 199.274 55.9703 199.683L55.6568 198.734C54.3933 199.151 53.1435 199.598 51.9084 200.075L52.2685 201.008C51.043 201.481 49.8321 201.984 48.6366 202.514L48.2308 201.6C47.0155 202.14 45.816 202.708 44.633 203.305L45.0833 204.198C43.9111 204.789 42.7555 205.408 41.6171 206.054L41.1234 205.185C39.9678 205.841 38.8298 206.524 37.7105 207.235L38.2463 208.079C37.1384 208.782 36.0489 209.512 34.9787 210.267L34.4022 209.45C33.3169 210.215 32.2513 211.007 31.2062 211.824L31.8219 212.612C30.7885 213.419 29.7754 214.252 28.7835 215.108L28.13 214.351C27.1251 215.219 26.1418 216.111 25.1808 217.026L25.8705 217.75C24.9211 218.654 23.9939 219.581 23.0898 220.531L22.3656 219.841C21.4505 220.802 20.5586 221.785 19.691 222.79L20.448 223.444C19.5916 224.436 18.7592 225.449 17.9515 226.482L17.1636 225.866C16.3468 226.911 15.5552 227.977 14.7895 229.062L15.6066 229.639C14.8515 230.709 14.122 231.799 13.4189 232.906L12.5746 232.371C11.8643 233.49 11.1806 234.628 10.5246 235.784L11.3942 236.277C10.748 237.416 10.1288 238.571 9.53765 239.744L8.64478 239.293C8.04815 240.476 7.47963 241.676 6.94011 242.891L7.85409 243.297C7.32335 244.492 6.82102 245.703 6.34796 246.929L5.41505 246.569C4.93826 247.804 4.49083 249.053 4.07361 250.317L5.02318 250.631C4.61336 251.872 4.23307 253.126 3.88312 254.393L2.9192 254.127C2.56704 255.402 2.24524 256.69 1.95462 257.99L2.93051 258.208C2.6455 259.482 2.39086 260.768 2.16738 262.065L1.18191 261.895C0.957421 263.197 0.763991 264.51 0.602414 265.833L1.59504 265.955C1.43686 267.25 1.30958 268.555 1.21396 269.868L0.216603 269.796Z" stroke="white" stroke-width="2" stroke-dasharray="4 4"/>
</g>
</svg>
