<svg width="261" height="518" viewBox="0 0 261 518" fill="none" xmlns="http://www.w3.org/2000/svg">
<g opacity="0.3">
<path d="M73.8364 41.2772C73.8402 41.3648 73.8551 41.4498 73.8797 41.5306V42.6421L73.8796 42.8831L73.8797 43.0563L73.8796 165.249C73.8796 172.981 67.6116 179.249 59.8796 179.249H16.106C8.37397 179.249 2.10596 172.981 2.10596 165.249L2.10597 41.535C2.13148 41.4528 2.14689 41.3662 2.15078 41.2768L2.15079 41.2767C3.10825 19.2946 18.8948 2 37.9936 2C57.0925 2 72.8792 19.2948 73.8364 41.2772ZM73.8364 41.2772L74.8355 41.234M73.8364 41.2772C73.8364 41.2773 73.8364 41.2774 73.8364 41.2775L74.8355 41.234M74.8355 41.234C74.836 41.2458 74.8457 41.2552 74.8576 41.2552C74.8698 41.2552 74.8797 41.2651 74.8797 41.2773V42.8831L74.8796 165.249C74.8796 173.533 68.1639 180.249 59.8796 180.249H16.106C7.82168 180.249 1.10596 173.533 1.10596 165.249L1.10597 41.2781C1.10597 41.2655 1.11622 41.2552 1.12886 41.2552C1.14111 41.2552 1.1512 41.2455 1.15173 41.2332C2.12685 18.8458 18.2386 0.999997 37.9936 1C57.7488 1 73.8607 18.8462 74.8355 41.234Z" stroke="white" stroke-width="2"/>
<path d="M89.9038 138.368L89.9038 138.363V138.192L89.9038 16C89.9038 8.26801 96.1718 2 103.904 2L147.678 2.00001C155.409 2.00001 161.678 8.26801 161.678 16L161.677 139.714C161.652 139.796 161.637 139.883 161.633 139.972C160.675 161.954 144.889 179.249 125.79 179.249C106.691 179.249 90.9041 161.954 89.947 139.971C89.9432 139.884 89.9284 139.799 89.9038 139.718L89.9038 138.606V138.368Z" stroke="white" stroke-width="2"/>
<mask id="mask0_438_6048" style="mask-type:alpha" maskUnits="userSpaceOnUse" x="177" y="0" width="83" height="84">
<path d="M259.242 42.8777L259.242 15.998C259.242 7.71378 252.526 0.998046 244.242 0.998046L221.716 0.998044C179.932 0.99804 177.242 35.3866 177.242 43.3428C177.242 49.4242 182.594 85.2841 221.716 82.9135C253.014 81.0171 259.774 55.4328 259.242 42.8777Z" fill="#C4C4C4"/>
</mask>
<g mask="url(#mask0_438_6048)">
<path d="M168 12.2001C168 12.2001 173.227 10.5899 174.612 6.53601C175.94 2.59515 181.308 0.999023 181.308 0.999023" stroke="white" stroke-miterlimit="10"/>
<path d="M168 17.2851C168 17.2851 176.929 15.2087 179.246 8.97963C181.478 2.97652 190.59 0.999023 190.59 0.999023" stroke="white" stroke-miterlimit="10"/>
<path d="M168 22.3842C168 22.3842 180.616 19.8276 183.894 11.4233C187.016 3.34377 199.858 0.999023 199.858 0.999023" stroke="white" stroke-miterlimit="10"/>
<path d="M168 27.4692C168 27.4692 184.318 24.4465 188.528 13.8669C192.554 3.72514 209.14 0.999023 209.14 0.999023" stroke="white" stroke-miterlimit="10"/>
<path d="M168 32.5542C168 32.5542 188.019 29.0653 193.176 16.2964C198.092 4.10652 218.422 0.999023 218.422 0.999023" stroke="white" stroke-miterlimit="10"/>
<path d="M168 37.6533C168 37.6533 191.706 33.6842 197.81 18.7541C203.63 4.47377 227.704 0.999023 227.704 0.999023" stroke="white" stroke-miterlimit="10"/>
<path d="M168 42.7383C168 42.7383 195.408 38.3031 202.458 21.1836C209.168 4.85514 236.986 0.999023 236.986 0.999023" stroke="white" stroke-miterlimit="10"/>
<path d="M168 47.8233C168 47.8233 199.109 42.9219 207.106 23.6272C214.706 5.23652 246.254 0.999023 246.254 0.999023" stroke="white" stroke-miterlimit="10"/>
<path d="M168 52.9224C168 52.9224 202.797 47.5549 211.739 26.0709C220.258 5.60377 255.535 0.999023 255.535 0.999023" stroke="white" stroke-miterlimit="10"/>
<path d="M168 58.0074C168 58.0074 206.498 52.1597 216.387 28.5145C225.797 5.98514 264.817 0.999023 264.817 0.999023" stroke="white" stroke-miterlimit="10"/>
<path d="M168 63.0924C168 63.0924 210.2 56.7785 221.021 30.944C231.335 6.36651 274.099 0.999023 274.099 0.999023" stroke="white" stroke-miterlimit="10"/>
<path d="M168 68.1915C168 68.1915 213.887 61.4115 225.669 33.4017C236.873 6.73376 283.367 0.999023 283.367 0.999023" stroke="white" stroke-miterlimit="10"/>
<path d="M168 73.2765C168 73.2765 217.588 66.0304 230.303 35.8453C242.411 7.11514 292.649 0.999023 292.649 0.999023" stroke="white" stroke-miterlimit="10"/>
<path d="M168 78.3756C168 78.3756 221.29 70.6493 234.951 38.289C247.949 7.49651 301.931 0.999023 301.931 0.999023" stroke="white" stroke-miterlimit="10"/>
<path d="M168 83.4606C168 83.4606 224.977 75.2681 239.585 40.7326C253.487 7.86376 311.213 0.999023 311.213 0.999023" stroke="white" stroke-miterlimit="10"/>
<path d="M168 88.5456C168 88.5456 228.679 79.887 244.233 43.1621C259.025 8.24514 320.495 0.999023 320.495 0.999023" stroke="white" stroke-miterlimit="10"/>
<path d="M168 93.6447C168 93.6447 232.38 84.5059 248.881 45.6198C264.563 8.62651 329.763 0.999023 329.763 0.999023" stroke="white" stroke-miterlimit="10"/>
<path d="M168 98.7297C168 98.7297 236.067 89.1247 253.515 48.0493C270.101 8.99376 339.044 0.999023 339.044 0.999023" stroke="white" stroke-miterlimit="10"/>
<path d="M168 103.815C168 103.815 239.769 93.7436 258.163 50.4929C275.639 9.37513 348.326 0.999023 348.326 0.999023" stroke="white" stroke-miterlimit="10"/>
<path d="M168 108.914C168 108.914 243.47 98.3766 262.797 52.9365C281.177 9.75651 357.608 0.999023 357.608 0.999023" stroke="white" stroke-miterlimit="10"/>
<path d="M168 113.999C168 113.999 247.158 102.981 267.445 55.3802C286.715 10.1238 366.876 0.999023 366.876 0.999023" stroke="white" stroke-miterlimit="10"/>
</g>
<path d="M186.33 163.213L187.053 162.521L186.33 163.213ZM236.654 177.142L237.019 178.073L236.654 177.142ZM258.81 134.374L259.804 134.261L258.81 134.374ZM218.288 99.0439L218.156 100.035L218.288 99.0439ZM182.204 125.289L181.356 124.758L182.204 125.289ZM187.053 162.521C199.646 175.686 217.313 183.653 236.289 176.211L237.019 178.073C217.021 185.916 198.533 177.415 185.607 163.904L187.053 162.521ZM236.289 176.211C246.049 172.383 251.888 166.354 255.07 159.138C258.267 151.888 258.819 143.353 257.817 134.486L259.804 134.261C260.829 143.322 260.293 152.252 256.9 159.945C253.493 167.673 247.24 174.064 237.019 178.073L236.289 176.211ZM257.817 134.486C256.89 126.291 251.923 118.338 244.658 112.08C237.4 105.828 227.93 101.34 218.156 100.035L218.421 98.0527C228.603 99.4125 238.43 104.076 245.963 110.565C253.489 117.048 258.805 125.428 259.804 134.261L257.817 134.486ZM218.156 100.035C208.732 98.7767 202.393 101.424 197.21 106.208C191.94 111.073 187.869 118.128 183.051 125.82L181.356 124.758C186.09 117.2 190.333 109.834 195.853 104.739C201.46 99.5635 208.388 96.7131 218.421 98.0527L218.156 100.035ZM183.051 125.82C175.271 138.242 177.16 152.18 187.053 162.521L185.607 163.904C175.115 152.936 173.065 137.996 181.356 124.758L183.051 125.82Z" fill="white"/>
<mask id="path-26-inside-1_438_6048" fill="white">
<path d="M182.433 195.497C179.566 195.497 177.241 197.821 177.241 200.689L177.241 225.609C177.241 254.281 200.485 277.525 229.158 277.525L254.078 277.525C256.946 277.525 259.27 275.201 259.27 272.333L259.27 200.689C259.27 197.821 256.946 195.497 254.078 195.497L182.433 195.497Z"/>
</mask>
<path d="M179.241 200.689L179.241 225.609L175.241 225.609L175.241 200.689L179.241 200.689ZM229.158 275.525L254.078 275.525L254.078 279.525L229.158 279.525L229.158 275.525ZM257.27 272.333L257.27 200.689L261.27 200.689L261.27 272.333L257.27 272.333ZM254.078 197.497L182.433 197.497L182.433 193.497L254.078 193.497L254.078 197.497ZM257.27 200.689C257.27 198.926 255.841 197.497 254.078 197.497L254.078 193.497C258.05 193.497 261.27 196.717 261.27 200.689L257.27 200.689ZM254.078 275.525C255.841 275.525 257.27 274.096 257.27 272.333L261.27 272.333C261.27 276.305 258.05 279.525 254.078 279.525L254.078 275.525ZM179.241 225.609C179.241 253.177 201.59 275.525 229.158 275.525L229.158 279.525C199.381 279.525 175.241 255.386 175.241 225.609L179.241 225.609ZM175.241 200.689C175.241 196.717 178.461 193.497 182.433 193.497L182.433 197.497C180.67 197.497 179.241 198.926 179.241 200.689L175.241 200.689Z" fill="white" mask="url(#path-26-inside-1_438_6048)"/>
<path d="M258.271 315.547C258.271 302.844 247.973 292.547 235.271 292.547L201.242 292.547C188.539 292.547 178.242 302.844 178.242 315.547L178.242 476.985C178.242 499.085 196.157 517 218.256 517C240.355 517 258.271 499.085 258.271 476.985L258.271 315.547Z" stroke="white" stroke-width="2"/>
<path d="M81.1082 196.66C80.4488 196.66 79.7912 196.668 79.1357 196.684L79.1115 195.684C77.7779 195.716 76.4523 195.78 75.1353 195.876L75.2079 196.874C73.8943 196.969 72.5896 197.097 71.2944 197.255L71.1732 196.262C69.8503 196.424 68.5371 196.617 67.2347 196.842L67.4045 197.827C66.1079 198.051 64.822 198.305 63.5476 198.59L63.3294 197.614C62.0298 197.905 60.7421 198.227 59.4669 198.579L59.7331 199.543C58.466 199.893 57.2114 200.273 55.9704 200.683L55.6568 199.733C54.3933 200.151 53.1436 200.598 51.9084 201.075L52.2685 202.008C51.0431 202.481 49.8321 202.983 48.6366 203.514L48.2309 202.6C47.0155 203.139 45.816 203.708 44.633 204.304L45.0833 205.197C43.9111 205.789 42.7555 206.408 41.6172 207.054L41.1235 206.184C39.9678 206.84 38.8299 207.524 37.7105 208.234L38.2463 209.079C37.1384 209.782 36.0489 210.511 34.9787 211.266L34.4022 210.449C33.3169 211.215 32.2513 212.007 31.2062 212.823L31.822 213.611C30.7885 214.419 29.7754 215.251 28.7835 216.108L28.13 215.351C27.1251 216.218 26.1418 217.11 25.1808 218.025L25.8705 218.749C24.9211 219.654 23.9939 220.581 23.0898 221.53L22.3656 220.841C21.4505 221.801 20.5586 222.785 19.6911 223.79L20.448 224.443C19.5916 225.435 18.7592 226.448 17.9515 227.482L17.1636 226.866C16.3469 227.911 15.5552 228.977 14.7895 230.062L15.6066 230.638C14.8515 231.709 14.122 232.798 13.4189 233.906L12.5746 233.37C11.8643 234.49 11.1807 235.627 10.5246 236.783L11.3942 237.277C10.748 238.415 10.1288 239.571 9.53765 240.743L8.64478 240.293C8.04815 241.476 7.47963 242.675 6.94011 243.891L7.8541 244.296C7.32335 245.492 6.82102 246.703 6.34797 247.928L5.41507 247.568C4.93827 248.803 4.49083 250.053 4.07361 251.316L5.02319 251.63C4.61337 252.871 4.23307 254.126 3.88312 255.393L2.9192 255.127C2.56704 256.402 2.24524 257.689 1.95462 258.989L2.93051 259.207C2.64551 260.482 2.39086 261.768 2.16739 263.064L1.18192 262.894C0.957424 264.197 0.763994 265.51 0.602416 266.833L1.59504 266.954C1.43686 268.249 1.30958 269.554 1.21397 270.868L0.216604 270.795C0.120749 272.112 0.0563381 273.438 0.0241171 274.771L1.02383 274.795C1.00799 275.451 1.00002 276.108 1.00002 276.768L1.00002 278.738L2.08872e-05 278.738L2.05427e-05 282.678L1.00002 282.678L1.00002 286.618L2.01982e-05 286.618L1.98538e-05 290.559L1.00002 290.559L1.00002 294.499L1.95093e-05 294.499L1.91648e-05 298.439L1.00002 298.439L1.00002 302.379L1.88204e-05 302.379L1.84759e-05 306.319L1.00002 306.319L1.00002 310.26L1.81314e-05 310.26L1.7787e-05 314.2L1.00002 314.2L1.00002 318.14L1.74425e-05 318.14L1.7098e-05 322.08L1.00002 322.08L1.00002 326.021L1.67536e-05 326.021L1.64091e-05 329.961L1.00002 329.961L1.00002 333.901L1.60646e-05 333.901L1.57202e-05 337.841L1.00002 337.841L1.00002 341.781L1.53757e-05 341.781L1.50313e-05 345.722L1.00002 345.722L1.00001 349.662L1.46868e-05 349.662L1.43423e-05 353.602L1.00001 353.602L1.00001 357.542L1.39979e-05 357.542L1.36534e-05 361.483L1.00001 361.483L1.00001 365.423L1.33089e-05 365.423L1.29645e-05 369.363L1.00001 369.363L1.00001 373.303L1.262e-05 373.303L1.22755e-05 377.243L1.00001 377.243L1.00001 381.184L1.19311e-05 381.184L1.15866e-05 385.124L1.00001 385.124L1.00001 389.064L1.12421e-05 389.064L1.08977e-05 393.004L1.00001 393.004L1.00001 396.944L1.05532e-05 396.944L1.02088e-05 400.885L1.00001 400.885L1.00001 404.825L9.86428e-06 404.825L9.51982e-06 408.765L1.00001 408.765L1.00001 412.705L9.17536e-06 412.705L8.83089e-06 416.646L1.00001 416.646L1.00001 420.586L8.48643e-06 420.586L8.14196e-06 424.526L1.00001 424.526L1.00001 428.466L7.7975e-06 428.466L7.45303e-06 432.406L1.00001 432.406L1.00001 436.347L7.10857e-06 436.347L6.7641e-06 440.287L1.00001 440.287L1.00001 444.227L6.41964e-06 444.227L6.07517e-06 448.167L1.00001 448.167L1.00001 452.107L5.73071e-06 452.107L5.38625e-06 456.048L1.00001 456.048L1.00001 459.988L5.04178e-06 459.988L4.69732e-06 463.928L1 463.928L1 467.868L4.35285e-06 467.868L4.00839e-06 471.809L1 471.809L1 475.749L3.66392e-06 475.749L3.31946e-06 479.689L1 479.689L1 481.659C1 482.318 1.01822 482.973 1.05418 483.624L0.0557007 483.679C0.130871 485.038 0.281455 486.377 0.503338 487.692L1.4894 487.526C1.70901 488.827 2.00046 490.105 2.3595 491.353L1.39846 491.629C1.7729 492.931 2.21882 494.203 2.7317 495.44L3.65543 495.056C4.15896 496.271 4.72892 497.451 5.36079 498.591L4.486 499.076C5.1402 500.257 5.85888 501.398 6.63728 502.493L7.45235 501.913C8.2119 502.982 9.02998 504.006 9.90191 504.981L9.15649 505.648C10.0543 506.652 11.0075 507.605 12.0114 508.503L12.678 507.757C13.6531 508.629 14.6772 509.447 15.7458 510.207L15.1664 511.022C16.2615 511.8 17.402 512.519 18.5832 513.173L19.0677 512.298C20.2086 512.93 21.3884 513.5 22.6027 514.004L22.2196 514.927C23.4564 515.44 24.728 515.886 26.0299 516.261L26.3063 515.3C27.5546 515.659 28.8316 515.95 30.1332 516.17L29.9668 517.156C31.2818 517.378 32.621 517.528 33.9804 517.603L34.0356 516.605C34.6857 516.641 35.3407 516.659 36 516.659L38.0504 516.659L38.0504 517.659L42.1511 517.659L42.1511 516.659L46.2519 516.659L46.2519 517.659L50.3526 517.659L50.3526 516.659L54.4533 516.659L54.4533 517.659L58.5541 517.659L58.5541 516.659L62.6548 516.659L62.6548 517.659L66.7556 517.659L66.7556 516.659L70.8563 516.659L70.8563 517.659L74.957 517.659L74.957 516.659L79.0578 516.659L79.0578 517.659L83.1585 517.659L83.1585 516.659L87.2593 516.659L87.2593 517.659L91.36 517.659L91.36 516.659L95.4608 516.659L95.4608 517.659L99.5615 517.659L99.5615 516.659L103.662 516.659L103.662 517.659L107.763 517.659L107.763 516.659L111.864 516.659L111.864 517.659L115.964 517.659L115.964 516.659L120.065 516.659L120.065 517.659L124.166 517.659L124.166 516.659L126.216 516.659C126.876 516.659 127.531 516.641 128.181 516.605L128.236 517.603C129.595 517.528 130.934 517.378 132.249 517.156L132.083 516.17C133.385 515.95 134.662 515.659 135.91 515.3L136.186 516.261C137.488 515.886 138.76 515.44 139.997 514.927L139.614 514.004C140.828 513.5 142.008 512.93 143.149 512.298L143.633 513.173C144.814 512.519 145.955 511.8 147.05 511.022L146.471 510.207C147.539 509.447 148.563 508.629 149.538 507.757L150.205 508.503C151.209 507.605 152.162 506.652 153.06 505.648L152.314 504.981C153.186 504.006 154.004 502.982 154.764 501.913L155.579 502.493C156.357 501.398 157.076 500.257 157.73 499.076L156.856 498.591C157.487 497.451 158.057 496.271 158.561 495.056L159.485 495.44C159.997 494.203 160.443 492.931 160.818 491.629L159.857 491.353C160.216 490.105 160.507 488.828 160.727 487.526L161.713 487.692C161.935 486.377 162.085 485.038 162.161 483.679L161.162 483.624C161.198 482.973 161.216 482.319 161.216 481.659L161.216 479.689L162.216 479.689L162.216 475.749L161.216 475.749L161.216 471.809L162.216 471.809L162.216 467.868L161.216 467.868L161.216 463.928L162.216 463.928L162.216 459.988L161.216 459.988L161.216 456.048L162.216 456.048L162.216 452.108L161.216 452.108L161.216 448.167L162.216 448.167L162.216 444.227L161.216 444.227L161.216 440.287L162.216 440.287L162.216 436.347L161.216 436.347L161.216 432.407L162.216 432.407L162.216 428.466L161.216 428.466L161.216 424.526L162.216 424.526L162.216 420.586L161.216 420.586L161.216 416.646L162.216 416.646L162.216 412.705L161.216 412.705L161.216 408.765L162.216 408.765L162.216 404.825L161.216 404.825L161.216 400.885L162.216 400.885L162.216 396.945L161.216 396.945L161.216 393.004L162.216 393.004L162.216 389.064L161.216 389.064L161.216 385.124L162.216 385.124L162.216 381.184L161.216 381.184L161.216 377.243L162.216 377.243L162.216 373.303L161.216 373.303L161.216 369.363L162.216 369.363L162.216 365.423L161.216 365.423L161.216 361.483L162.216 361.483L162.216 357.542L161.216 357.542L161.216 353.602L162.216 353.602L162.216 349.662L161.216 349.662L161.216 345.722L162.216 345.722L162.216 341.782L161.216 341.782L161.216 337.841L162.216 337.841L162.216 333.901L161.216 333.901L161.216 329.961L162.216 329.961L162.216 326.021L161.216 326.021L161.216 322.08L162.216 322.08L162.216 318.14L161.216 318.14L161.216 314.2L162.216 314.2L162.216 310.26L161.216 310.26L161.216 306.32L162.216 306.32L162.216 302.379L161.216 302.379L161.216 298.439L162.216 298.439L162.216 294.499L161.216 294.499L161.216 290.559L162.216 290.559L162.216 286.619L161.216 286.619L161.216 282.678L162.216 282.678L162.216 278.738L161.216 278.738L161.216 276.768C161.216 276.109 161.208 275.451 161.193 274.796L162.192 274.771C162.16 273.438 162.096 272.112 162 270.795L161.002 270.868C160.907 269.554 160.78 268.249 160.621 266.954L161.614 266.833C161.452 265.51 161.259 264.197 161.034 262.894L160.049 263.064C159.825 261.768 159.571 260.482 159.286 259.207L160.262 258.989C159.971 257.69 159.649 256.402 159.297 255.127L158.333 255.393C157.983 254.126 157.603 252.871 157.193 251.63L158.143 251.317C157.726 250.053 157.278 248.803 156.801 247.568L155.868 247.928C155.395 246.703 154.893 245.492 154.362 244.296L155.276 243.891C154.737 242.675 154.168 241.476 153.572 240.293L152.679 240.743C152.088 239.571 151.468 238.415 150.822 237.277L151.692 236.783C151.036 235.628 150.352 234.49 149.642 233.37L148.797 233.906C148.094 232.798 147.365 231.709 146.61 230.638L147.427 230.062C146.661 228.977 145.87 227.911 145.053 226.866L144.265 227.482C143.457 226.448 142.625 225.435 141.768 224.443L142.525 223.79C141.658 222.785 140.766 221.802 139.851 220.841L139.127 221.53C138.222 220.581 137.295 219.654 136.346 218.75L137.036 218.025C136.075 217.11 135.091 216.218 134.086 215.351L133.433 216.108C132.441 215.251 131.428 214.419 130.394 213.611L131.01 212.823C129.965 212.007 128.899 211.215 127.814 210.449L127.238 211.266C126.168 210.511 125.078 209.782 123.97 209.079L124.506 208.234C123.387 207.524 122.249 206.84 121.093 206.184L120.599 207.054C119.461 206.408 118.305 205.789 117.133 205.197L117.583 204.305C116.4 203.708 115.201 203.139 113.986 202.6L113.58 203.514C112.384 202.983 111.173 202.481 109.948 202.008L110.308 201.075C109.073 200.598 107.823 200.151 106.56 199.733L106.246 200.683C105.005 200.273 103.75 199.893 102.483 199.543L102.75 198.579C101.474 198.227 100.187 197.905 98.8871 197.614L98.6688 198.59C97.3944 198.305 96.1085 198.051 94.8119 197.827L94.9818 196.842C93.6793 196.617 92.3662 196.424 91.0432 196.262L90.922 197.255C89.6268 197.097 88.3221 196.969 87.0085 196.874L87.0811 195.876C85.7642 195.78 84.4385 195.716 83.1049 195.684L83.0807 196.684C82.4252 196.668 81.7676 196.66 81.1082 196.66Z" stroke="white" stroke-width="2" stroke-dasharray="4 4"/>
</g>
</svg>
