<svg width="120" height="120" viewBox="0 0 120 120" fill="none" xmlns="http://www.w3.org/2000/svg">
<circle cx="60" cy="60" r="33.5" stroke="#B9D8E9" stroke-width="3"/>
<path d="M94.0948 106.921C84.4527 113.927 72.8862 117.793 60.969 117.992C49.0517 118.191 37.3625 114.714 27.4917 108.033" stroke="#B9D8E9" stroke-width="3" stroke-linecap="round"/>
<path d="M25.9052 13.0793C35.5473 6.07292 47.1138 2.20715 59.031 2.00803C70.9483 1.80892 82.6375 5.28612 92.5083 11.9665" stroke="#B9D8E9" stroke-width="3" stroke-linecap="round"/>
<path d="M13.0796 94.0948C6.07316 84.4527 2.20739 72.8862 2.00828 60.969C1.80916 49.0517 5.28636 37.3625 11.9668 27.4917" stroke="#B9D8E9" stroke-width="3" stroke-linecap="round"/>
<path d="M106.92 25.9052C113.927 35.5473 117.793 47.1138 117.992 59.031C118.191 70.9483 114.714 82.6375 108.033 92.5083" stroke="#B9D8E9" stroke-width="3" stroke-linecap="round"/>
</svg>
